<svg version="1.0" xmlns="http://www.w3.org/2000/svg"
 width="1024.000000pt" height="1024.000000pt" viewBox="0 0 1024.000000 1024.000000"
 preserveAspectRatio="xMidYMid meet">
<metadata>
Created by potrace 1.14, written by Peter Selinger 2001-2017
</metadata>
<g transform="translate(0.000000,1024.000000) scale(0.100000,-0.100000)"
fill="#000000" stroke="none">
<path d="M6322 8822 c-14 -4 -16 -28 -2 -37 5 -3 8 0 7 7 -2 7 -2 9 1 5 2 -4
11 0 19 10 8 10 11 12 7 4 -4 -8 -3 -12 2 -8 6 3 16 1 24 -4 13 -9 13 -10 0
-6 -18 5 -52 -11 -46 -22 3 -4 -1 -8 -9 -8 -8 0 -12 4 -9 9 3 4 -2 8 -10 8 -8
0 -17 -4 -21 -10 -3 -5 -12 -7 -20 -3 -8 3 -15 1 -15 -5 0 -11 18 -11 38 1 7
5 12 4 12 -2 0 -10 -14 -15 -33 -12 -5 1 -6 -9 -2 -21 l6 -23 -13 23 c-11 17
-16 20 -26 10 -16 -16 -16 4 1 21 10 11 8 11 -10 0 -12 -7 -19 -19 -15 -27 3
-10 1 -13 -6 -9 -6 4 -12 2 -15 -5 -2 -7 -2 -2 0 12 l3 25 -14 -25 c-8 -14
-12 -28 -10 -32 2 -3 1 -9 -4 -12 -4 -2 -8 6 -8 20 0 13 4 24 8 24 4 0 8 5 8
10 0 6 -4 10 -9 10 -11 0 -26 -38 -23 -60 1 -10 0 -11 -4 -2 -8 18 -24 4 -18
-16 5 -15 4 -15 -6 1 -6 9 -15 15 -21 12 -5 -3 -6 0 -3 8 3 8 1 18 -5 22 -7 4
-8 0 -4 -11 5 -12 3 -15 -6 -9 -11 6 -11 3 -1 -16 7 -13 9 -21 5 -16 -5 4 -17
0 -27 -10 -10 -9 -18 -12 -19 -7 0 5 -5 0 -10 -11 l-9 -20 3 20 c2 11 9 19 17
17 11 -3 11 0 0 12 -15 19 -21 20 -17 4 1 -8 -9 -13 -29 -13 -27 1 -31 -2 -29
-21 1 -12 -6 -26 -19 -34 -18 -11 -19 -11 -9 1 8 10 9 20 3 29 -7 10 -10 11
-10 3 0 -7 1 -14 2 -15 5 -9 -25 -48 -37 -48 -8 0 -15 -5 -15 -11 0 -6 -9 -8
-21 -4 -16 6 -20 4 -13 -6 6 -11 5 -12 -7 -2 -13 10 -19 10 -35 -3 -18 -14
-18 -15 4 -4 13 6 22 7 22 1 0 -5 -10 -13 -22 -17 -21 -6 -21 -7 -2 -22 15
-12 16 -14 2 -9 -11 4 -22 -1 -28 -11 -11 -16 -11 -16 -6 1 3 9 1 17 -4 17 -6
0 -10 5 -10 11 0 8 5 7 15 -1 13 -11 14 -10 9 4 -10 27 -29 12 -26 -20 1 -16
-1 -24 -5 -19 -11 14 -53 17 -53 3 0 -7 -5 -6 -14 1 -11 10 -14 9 -12 -3 1 -9
6 -19 11 -23 4 -5 5 -1 0 7 -5 8 -5 12 0 8 4 -4 13 -4 19 2 7 5 17 5 26 0 10
-7 11 -10 3 -10 -25 0 -28 -1 -49 -21 -16 -15 -24 -17 -29 -8 -6 8 -4 10 6 4
12 -7 12 -6 0 6 -10 11 -15 11 -18 1 -3 -6 -10 -9 -15 -6 -7 4 -8 2 -4 -5 4
-6 11 -9 15 -7 4 3 13 -5 21 -17 12 -20 12 -21 -3 -9 -9 8 -22 10 -28 6 -8 -4
-9 -3 -5 4 4 7 2 12 -3 12 -6 0 -11 -5 -11 -11 0 -8 -6 -7 -17 2 -13 11 -15
11 -9 1 4 -7 17 -17 29 -21 20 -8 20 -8 -1 -13 -12 -4 -20 -3 -17 2 3 4 -1 10
-8 13 -8 3 -13 -4 -13 -19 0 -13 4 -24 10 -24 5 0 7 -2 4 -5 -3 -3 -13 -2 -22
1 -14 5 -15 9 -4 15 10 7 11 9 0 9 -7 0 -10 5 -6 12 4 6 3 8 -3 5 -6 -4 -10
-22 -9 -41 1 -19 -1 -33 -3 -30 -2 2 -11 -2 -19 -9 -13 -9 -14 -9 -8 1 4 6 2
12 -3 12 -11 0 -14 -9 -14 -43 0 -13 -3 -15 -13 -6 -11 9 -14 8 -14 -2 0 -12
-2 -12 -9 0 -5 7 -14 10 -20 7 -6 -4 -11 -1 -11 6 0 8 -5 6 -11 -5 -6 -9 -14
-15 -20 -12 -12 8 2 -28 15 -38 7 -5 4 -7 -7 -3 -15 5 -17 2 -12 -16 6 -18 5
-19 -8 -7 -9 9 -12 18 -6 23 5 6 9 15 9 20 0 6 -5 3 -11 -7 -6 -9 -14 -15 -19
-12 -5 3 -12 0 -16 -6 -4 -7 -3 -10 2 -7 5 3 16 -1 23 -10 13 -14 12 -15 -7
-10 -12 4 -22 2 -22 -4 0 -5 -4 -7 -9 -4 -4 3 -13 -6 -19 -19 -7 -14 -16 -25
-21 -25 -15 0 -21 -29 -8 -36 7 -4 9 -4 5 1 -9 9 9 35 23 35 5 0 9 -4 9 -10 0
-5 -5 -9 -12 -7 -7 1 -12 -5 -13 -13 0 -9 -8 -14 -19 -12 -10 2 -15 -1 -12 -7
4 -5 2 -12 -4 -16 -6 -4 -8 -10 -5 -15 6 -10 -15 -8 -33 3 -7 5 -9 13 -6 19 4
7 2 8 -5 4 -6 -4 -9 -11 -6 -16 3 -5 1 -11 -5 -15 -5 -3 -10 -13 -10 -21 0 -8
5 -12 10 -9 6 4 8 10 5 15 -3 5 -1 11 5 15 18 11 10 -22 -10 -40 -16 -15 -18
-21 -7 -34 11 -14 10 -14 -5 -3 -18 14 -43 7 -33 -9 4 -5 1 -17 -5 -26 -9 -15
-10 -14 -4 7 6 22 5 23 -9 12 -9 -8 -20 -11 -26 -8 -5 3 -8 -2 -6 -11 1 -10
-2 -23 -7 -30 -5 -7 -6 -18 -2 -24 4 -7 3 -9 -4 -5 -5 3 -13 0 -15 -6 -4 -10
-6 -10 -6 -1 -1 10 -7 10 -26 1 -14 -6 -25 -15 -25 -20 0 -5 5 -6 10 -3 6 3
10 -1 10 -10 0 -11 -5 -15 -14 -12 -8 3 -21 -2 -30 -12 -18 -19 -22 -46 -6
-36 6 3 10 1 10 -4 0 -6 -10 -9 -22 -7 -29 4 -49 -11 -41 -31 4 -9 2 -14 -3
-10 -6 3 -16 1 -24 -4 -12 -7 -11 -8 5 -6 11 1 25 6 31 9 6 4 11 1 11 -6 0 -9
-12 -13 -37 -12 -23 0 -37 -4 -37 -11 0 -7 4 -10 8 -8 4 3 9 -2 12 -10 4 -9 1
-12 -7 -9 -7 3 -16 -2 -20 -12 -5 -13 -9 -14 -21 -4 -20 16 -19 3 0 -17 21
-20 0 -50 -22 -32 -11 10 -12 9 -7 -5 5 -12 2 -15 -12 -10 -18 5 -18 5 -1 -6
13 -8 15 -16 7 -29 -5 -10 -6 -22 -2 -26 4 -5 2 -5 -5 -1 -6 3 -15 1 -18 -4
-5 -8 -13 -6 -25 5 -14 12 -20 13 -26 4 -4 -7 -3 -10 4 -5 6 3 16 -3 22 -14 6
-11 7 -20 3 -20 -4 0 -1 -5 7 -10 11 -8 7 -9 -15 -4 -16 4 -33 12 -37 18 -6 8
-8 8 -8 0 0 -6 3 -14 7 -18 13 -13 11 -35 -3 -29 -8 3 -11 10 -7 16 3 6 1 7
-5 3 -9 -5 -8 -13 3 -30 13 -20 13 -23 0 -23 -8 0 -12 4 -9 8 2 4 0 10 -5 13
-17 11 -21 -11 -6 -24 14 -12 14 -15 0 -30 -11 -12 -13 -20 -6 -25 6 -3 11 -1
11 6 0 7 3 10 6 6 3 -3 3 -11 -1 -17 -5 -8 -11 -8 -21 1 -11 9 -12 15 -2 28 7
9 8 13 4 9 -5 -4 -16 -2 -25 5 -13 10 -14 10 -5 -3 5 -8 10 -22 9 -30 0 -8 3
-18 8 -21 5 -3 1 -9 -8 -12 -9 -4 -13 -3 -10 3 3 6 1 10 -5 10 -6 0 -8 5 -4
12 4 7 3 8 -4 4 -11 -7 -7 -28 11 -56 5 -8 -3 -1 -19 15 -15 17 -25 22 -21 13
7 -20 -8 -34 -19 -17 -5 8 -3 9 7 4 8 -5 10 -4 6 0 -4 5 -13 10 -20 11 -7 1
-19 4 -27 6 -8 3 -12 3 -7 1 4 -3 5 -9 2 -14 -4 -5 0 -6 8 -3 14 5 33 -24 22
-34 -3 -3 -5 0 -5 8 0 10 -3 10 -17 -1 -10 -7 -15 -9 -11 -5 4 5 3 15 -4 23
-15 18 -18 84 -4 103 10 13 9 13 -7 1 -10 -8 -16 -20 -13 -27 3 -7 1 -16 -4
-19 -5 -3 -7 -13 -4 -23 5 -14 4 -14 -4 -2 -7 9 -7 18 -1 26 7 8 6 13 -3 16
-10 4 -10 9 2 23 9 11 10 16 3 11 -7 -4 -13 -2 -13 4 0 8 -6 8 -22 0 -22 -11
-22 -10 -4 4 10 9 22 13 27 11 4 -3 11 0 15 6 4 8 3 9 -4 5 -7 -4 -12 -2 -12
5 0 10 -3 10 -12 1 -18 -18 -25 -15 -24 11 1 12 -4 30 -12 40 -13 14 -13 17
-1 17 11 0 11 2 -1 10 -12 8 -12 10 -1 10 11 0 11 4 -2 18 -13 14 -14 21 -5
30 9 9 6 11 -10 7 -12 -2 -27 -7 -34 -11 -7 -4 -8 -3 -4 5 4 7 -2 15 -16 20
-20 8 -20 10 -4 10 11 1 16 4 13 8 -4 3 0 17 9 31 9 13 11 22 6 18 -6 -3 -12
-3 -15 1 -2 5 -2 3 -1 -4 2 -6 -4 -17 -12 -24 -13 -10 -14 -8 -10 14 2 15 0
30 -6 33 -7 4 -8 2 -4 -4 4 -7 2 -12 -4 -12 -7 0 -10 6 -7 13 2 6 11 11 20 9
10 -2 15 4 14 17 0 11 -5 17 -9 15 -5 -3 -6 -10 -3 -15 3 -5 -1 -6 -10 -3 -10
4 -12 10 -7 18 14 17 10 46 -6 46 -11 0 -12 -3 -3 -14 9 -11 9 -16 0 -22 -7
-4 -9 -3 -5 4 3 5 0 13 -6 15 -9 4 -5 12 12 27 14 12 20 19 14 16 -19 -10 -25
23 -6 33 9 6 13 10 7 11 -18 0 -38 -18 -31 -28 3 -6 1 -14 -5 -18 -7 -4 -9 -3
-5 4 3 6 -1 18 -10 26 -9 9 -11 16 -4 16 6 0 9 4 5 9 -3 5 0 13 6 17 7 4 9 3
5 -4 -8 -13 6 -23 20 -14 5 4 0 18 -14 32 -13 14 -22 19 -20 11 2 -7 -4 -16
-12 -18 -13 -4 -13 -3 0 6 13 10 13 11 0 11 -12 1 -11 3 3 11 13 8 22 7 34 -3
13 -10 13 -7 -2 17 -10 17 -24 37 -31 45 -7 8 -14 20 -16 25 -2 6 -8 10 -14 9
-12 -1 -12 31 0 43 4 5 6 2 4 -6 -1 -7 4 -16 12 -18 9 -3 11 -1 5 4 -6 4 -10
15 -10 23 1 8 -4 23 -11 34 -7 10 -10 24 -8 31 3 7 1 15 -3 18 -5 3 -9 -4 -9
-16 1 -27 -16 -39 -20 -14 -1 9 2 15 7 11 5 -3 8 5 6 17 -2 13 -10 25 -17 27
-7 3 -10 0 -6 -6 3 -6 2 -13 -3 -16 -10 -7 -9 20 2 30 3 4 18 -1 31 -10 35
-23 44 -20 13 4 -14 11 -30 20 -35 20 -6 0 -14 5 -18 12 -5 7 -2 9 7 6 10 -4
15 1 15 13 0 17 -2 17 -23 3 -13 -8 -22 -11 -21 -7 1 4 -4 19 -11 33 l-12 25
19 -24 c13 -16 21 -20 26 -12 4 6 2 11 -3 11 -6 0 -11 5 -11 11 0 5 5 7 12 3
7 -4 8 -3 4 4 -4 7 -2 12 5 12 7 0 9 3 6 6 -4 4 -13 1 -21 -5 -12 -10 -15 -9
-13 8 1 12 6 21 12 21 5 0 -3 8 -20 19 -23 14 -34 16 -45 7 -13 -10 -13 -9 -1
7 11 14 16 15 29 5 10 -9 13 -9 9 -1 -4 6 -1 14 5 16 7 3 -1 4 -19 3 -41 -4
-47 2 -26 28 10 12 11 15 3 9 -19 -17 -30 -16 -30 2 0 9 -6 12 -17 9 -15 -5
-15 -3 2 10 19 16 19 17 -5 14 -19 -2 -24 1 -22 15 2 9 -3 17 -12 17 -9 0 -12
-7 -9 -19 3 -10 1 -21 -4 -24 -5 -3 -8 8 -7 25 3 36 -5 60 -16 53 -5 -3 -11
-1 -15 5 -3 5 2 10 12 10 13 0 10 4 -10 14 -26 14 -53 14 -80 1 -6 -4 -3 1 7
9 13 11 15 16 6 16 -7 0 -10 3 -7 6 4 4 13 2 20 -4 10 -9 14 -8 14 3 0 8 -3
12 -7 10 -3 -2 -18 2 -33 10 -16 8 -29 10 -33 4 -3 -5 0 -8 6 -7 7 2 14 -5 15
-15 3 -18 2 -18 -15 -2 -10 9 -16 23 -13 31 5 15 -32 21 -40 7 -2 -5 -2 -2 0
5 1 8 -3 12 -9 9 -7 -2 -12 -10 -10 -16 1 -7 -2 -10 -8 -6 -8 5 -7 11 1 22 11
12 10 14 -2 13 -26 -4 -40 0 -35 9 3 5 -1 11 -9 14 -9 4 -12 1 -9 -7 3 -8 0
-17 -7 -22 -8 -4 -10 -3 -5 4 8 13 -5 43 -20 45 -5 1 -8 6 -6 10 1 5 -2 6 -8
2 -6 -3 -8 -11 -5 -16 6 -8 -8 -13 -27 -10 -27 4 -34 8 -40 21 -5 12 -7 11 -7
-3 -1 -10 -6 -15 -11 -12 -6 4 -7 11 -4 17 4 7 2 8 -5 4 -6 -4 -8 -13 -4 -19
17 -28 9 -36 -12 -13 -13 14 -30 26 -37 26 -11 0 -11 -2 0 -9 17 -10 -4 -27
-33 -26 -11 0 -24 -4 -28 -10 -5 -6 -7 -3 -4 7 3 9 0 19 -7 21 -9 4 -12 -3 -9
-21 2 -17 1 -22 -4 -12 -10 18 -57 20 -59 3 -1 -7 -3 -16 -4 -20 -1 -5 -2 -12
-1 -16 1 -5 -3 -6 -9 -2 -5 3 -10 0 -10 -7 0 -10 -3 -9 -9 2 -6 8 -8 17 -5 21
2 4 0 10 -6 14 -9 5 -15 -22 -11 -47 0 -5 -4 -8 -10 -8 -6 0 -9 6 -6 14 7 16
-19 30 -28 15 -4 -5 -11 -6 -17 -3 -7 4 -8 2 -4 -5 5 -8 12 -9 20 -2 8 7 12 4
13 -12 2 -17 0 -19 -7 -7 -5 8 -10 12 -10 7 0 -4 -13 -1 -29 8 -28 14 -31 14
-45 -7 -8 -12 -12 -26 -9 -32 4 -6 0 -5 -9 1 -8 7 -18 9 -23 5 -4 -4 -4 4 0
17 5 17 4 21 -5 16 -6 -4 -10 -18 -7 -31 3 -20 2 -22 -10 -13 -11 9 -17 9 -26
-1 -8 -9 -8 -11 0 -6 7 4 9 -1 5 -16 -4 -16 -7 -18 -10 -8 -7 22 -25 30 -39
18 -9 -7 -10 -14 -3 -23 7 -9 5 -16 -7 -26 -16 -13 -17 -12 -5 2 10 14 10 18
-3 23 -16 6 -31 -16 -21 -32 3 -5 -1 -9 -8 -9 -8 0 -12 8 -9 21 4 17 1 16 -14
-6 -17 -27 -43 -38 -43 -18 0 5 3 9 8 7 4 -1 8 2 10 8 2 5 -1 11 -7 13 -6 2
-11 -1 -11 -8 0 -6 -5 -8 -12 -4 -7 5 -8 3 -3 -6 5 -8 3 -11 -6 -8 -8 3 -13
12 -13 21 1 9 -2 14 -6 12 -5 -3 -8 -14 -7 -25 1 -10 4 -17 8 -15 3 3 15 -2
25 -11 18 -14 18 -15 -2 -5 -16 8 -25 7 -33 -3 -6 -7 -7 -17 -3 -22 4 -4 -1
-2 -11 5 -9 8 -20 11 -24 8 -3 -4 -12 -2 -20 5 -11 8 -12 7 -7 -6 4 -11 2 -16
-7 -14 -8 2 -13 -4 -11 -14 1 -9 -3 -20 -9 -24 -8 -5 -10 -2 -7 8 4 8 2 21 -3
29 -6 10 -9 8 -10 -11 -1 -14 -1 -32 0 -40 0 -10 -1 -11 -5 -2 -8 17 -24 15
-24 -3 0 -8 -5 -15 -10 -15 -14 0 5 36 22 43 7 3 9 6 3 6 -5 0 -30 -18 -55
-40 -25 -22 -34 -33 -20 -25 29 18 56 9 34 -12 -9 -9 -14 -9 -14 -2 0 7 -6 10
-12 7 -7 -2 -12 -9 -11 -14 1 -5 -9 -9 -22 -9 -13 0 -21 4 -19 8 3 5 9 6 13 4
3 -3 7 4 7 15 0 19 -1 19 -13 3 -11 -14 -15 -15 -30 -3 -15 11 -16 11 -5 -1
15 -17 16 -50 1 -50 -5 0 -8 4 -5 9 3 5 -5 9 -19 9 l-24 0 22 -19 c23 -18 6
-22 -22 -4 -10 5 -16 4 -19 -3 -2 -7 -7 -10 -12 -7 -4 3 -7 -8 -6 -23 1 -17
-3 -29 -11 -29 -6 0 -10 4 -8 8 3 4 -2 9 -10 13 -18 7 -19 2 -4 -27 11 -21 10
-20 -17 3 l-28 25 18 -29 c12 -18 13 -25 5 -20 -8 5 -22 10 -32 11 -15 3 -16
1 -5 -11 7 -8 16 -12 19 -10 3 2 6 -3 6 -11 0 -13 -3 -13 -16 -2 -27 23 -42
29 -39 16 2 -6 -3 -14 -11 -17 -9 -3 -11 0 -6 9 5 8 4 10 0 6 -5 -4 -10 -14
-11 -23 -2 -14 0 -14 21 0 15 10 26 12 30 6 4 -6 3 -9 -2 -8 -16 5 -53 -23
-47 -35 5 -9 3 -8 -7 1 -7 6 -17 12 -22 12 -4 0 -5 -6 -2 -12 4 -7 -1 -4 -9 6
-13 16 -16 17 -16 4 0 -15 -26 -33 -42 -30 -4 1 -3 -10 2 -24 13 -32 12 -43 0
-24 -8 12 -12 13 -19 2 -7 -11 -9 -10 -14 3 -4 9 -3 13 2 10 5 -3 12 -2 15 3
2 4 -6 8 -19 8 -20 0 -22 -3 -12 -14 10 -12 8 -14 -10 -8 -13 4 -26 1 -36 -8
-8 -8 -19 -12 -23 -8 -5 4 2 -6 16 -23 17 -20 19 -25 6 -15 -18 14 -19 13 -13
-3 4 -11 3 -16 -3 -12 -6 3 -10 -1 -10 -9 0 -9 -4 -16 -10 -16 -5 0 -7 6 -4
13 3 8 -3 13 -15 13 -11 0 -17 -5 -14 -10 4 -5 -1 -7 -10 -3 -11 4 -17 1 -17
-8 0 -9 8 -12 20 -10 11 2 18 0 15 -5 -3 -4 -13 -7 -23 -5 -20 3 -44 -14 -36
-26 9 -16 -3 -10 -17 8 -12 14 -12 16 0 8 10 -6 12 -4 6 5 -6 9 -4 11 5 5 9
-6 11 -4 5 5 -5 8 -4 11 1 7 6 -3 11 3 11 14 1 16 -3 14 -26 -11 -22 -24 -29
-28 -40 -18 -10 9 -12 9 -7 1 3 -6 -2 -17 -11 -23 -15 -10 -15 -11 -1 -6 9 2
19 -1 21 -8 4 -9 -2 -11 -19 -8 -24 4 -29 -3 -25 -38 2 -12 0 -12 -7 -2 -5 8
-8 24 -6 38 1 13 -2 22 -6 19 -5 -3 -7 -12 -4 -19 3 -8 0 -17 -5 -21 -6 -3 -9
-11 -6 -16 3 -5 -1 -6 -9 -3 -11 4 -14 0 -11 -15 2 -12 0 -19 -6 -16 -5 4 -12
-1 -15 -10 -9 -22 -24 0 -19 27 2 10 0 18 -5 18 -5 0 -8 -14 -6 -30 2 -17 1
-28 -2 -25 -3 2 -12 -1 -20 -8 -13 -10 -14 -9 -3 13 11 22 9 22 -13 -5 -27
-32 -33 -28 -15 8 10 21 10 21 -8 -1 -15 -18 -21 -20 -31 -10 -8 7 -13 9 -12
3 4 -21 -1 -30 -9 -17 -7 11 -9 11 -14 -2 -3 -8 -1 -18 5 -22 7 -4 8 -3 4 4
-4 7 1 10 14 7 13 -3 18 0 14 7 -4 7 -2 8 5 4 6 -4 9 -12 5 -17 -3 -5 -9 -7
-14 -4 -5 3 -11 1 -15 -4 -3 -6 -12 -8 -19 -5 -7 3 -20 -2 -29 -10 -19 -20
-28 -20 -21 -2 3 7 -2 16 -12 20 -14 5 -15 4 -4 -9 7 -8 9 -15 5 -15 -4 0 -2
-6 5 -14 6 -8 19 -12 28 -9 14 4 15 3 2 -5 -9 -7 -19 -7 -26 -2 -6 6 -14 6
-18 2 -4 -4 -6 0 -4 8 2 9 -5 15 -19 16 -12 1 -20 -3 -17 -8 3 -4 10 -5 16 -2
7 4 8 2 4 -4 -8 -13 -36 -5 -36 11 0 6 -3 7 -6 4 -4 -4 -1 -13 6 -22 11 -13
10 -14 -4 -9 -12 5 -15 2 -10 -11 5 -13 3 -16 -7 -13 -8 3 -13 14 -11 24 2 16
0 15 -17 -6 -11 -13 -17 -28 -15 -32 3 -4 0 -8 -6 -8 -6 0 -9 10 -7 23 2 12 2
16 0 8 -4 -12 -6 -12 -14 0 -7 11 -8 9 -6 -6 1 -11 6 -25 9 -31 4 -6 1 -11 -7
-11 -8 0 -12 4 -9 9 3 4 1 8 -4 8 -15 0 -22 -28 -9 -33 7 -3 2 -4 -10 -4 -12
1 -25 7 -28 15 -3 7 -10 10 -17 6 -8 -5 -9 -2 -5 9 9 24 0 21 -14 -4 -6 -12
-7 -19 -2 -16 5 3 10 -4 10 -16 2 -15 -1 -17 -6 -9 -9 14 -32 13 -43 -3 -5 -6
-12 -5 -20 4 -8 9 -9 11 -1 7 6 -3 14 -2 18 4 4 6 11 8 16 5 5 -4 9 -1 9 4 0
12 -13 14 -24 4 -10 -11 -36 -12 -36 -2 0 5 -5 9 -11 9 -8 0 -8 -4 1 -14 7
-10 8 -21 2 -32 -8 -15 -9 -15 -15 0 -5 12 -3 15 6 10 8 -5 7 -2 -2 9 -14 18
-26 23 -16 8 5 -9 -18 -27 -40 -31 -5 -1 -12 -3 -14 -6 -2 -2 5 -2 16 0 11 3
20 -1 20 -9 0 -7 -9 -11 -21 -8 -21 4 -21 4 -1 -13 16 -13 17 -16 3 -11 -10 3
-20 2 -23 -4 -4 -5 -11 -7 -16 -3 -5 3 -7 10 -3 15 3 5 10 6 16 3 6 -4 6 2 -1
15 -7 11 -14 21 -17 21 -3 0 -3 -4 0 -9 6 -9 -16 -61 -26 -61 -4 0 -10 5 -13
10 -8 13 -25 13 -25 -1 0 -5 3 -8 8 -6 4 3 13 -2 21 -10 11 -13 11 -14 -5 -13
-31 4 -37 1 -26 -13 7 -8 7 -18 2 -27 -7 -10 -10 -11 -10 -2 0 6 -5 12 -10 12
-7 0 -7 -6 0 -20 9 -16 8 -18 -5 -14 -8 4 -15 13 -15 21 0 8 -4 12 -9 9 -5 -4
-11 -1 -13 5 -2 7 -4 -34 -5 -90 -1 -82 2 -101 14 -101 8 0 12 4 8 9 -3 5 -1
13 5 16 6 4 10 3 9 -2 -4 -20 2 -27 12 -13 9 13 10 13 6 0 -2 -8 -9 -16 -15
-16 -7 -1 -16 -2 -22 -3 -5 0 -10 -6 -10 -12 0 -8 4 -9 13 0 19 15 30 1 14
-17 -10 -13 -9 -14 3 -6 8 5 24 9 35 9 11 0 26 5 34 9 10 6 12 5 7 -2 -4 -7
-2 -12 4 -12 8 0 7 -6 -1 -21 -6 -12 -7 -19 -1 -15 14 8 35 -20 27 -36 -4 -7
1 -4 9 6 9 11 16 16 16 12 0 -5 7 -2 17 5 13 11 17 11 20 2 3 -7 11 -13 19
-13 9 0 12 5 8 12 -4 7 -3 8 4 4 6 -4 9 -13 5 -22 -5 -13 -8 -13 -29 1 -13 8
-24 12 -24 8 1 -16 69 -52 76 -41 4 6 3 8 -4 5 -6 -5 -8 1 -5 14 6 20 6 20 17
-3 8 -17 20 -22 46 -22 23 0 34 4 32 13 -1 7 2 10 8 6 7 -4 7 -12 0 -25 -16
-30 -12 -34 9 -9 17 21 20 22 34 7 9 -9 14 -18 12 -20 -2 -2 6 -4 20 -4 13 0
21 4 19 8 -3 4 0 8 5 8 6 0 11 -5 11 -12 0 -6 3 -8 6 -5 4 4 1 15 -7 24 -7 10
-9 15 -5 11 5 -4 15 -3 22 3 10 9 15 7 20 -5 3 -9 14 -16 24 -16 10 0 21 -6
23 -12 4 -10 6 -10 6 0 1 7 6 10 11 7 6 -4 9 -1 8 7 -2 7 3 12 10 10 8 -1 11
2 7 8 -3 6 -10 8 -15 5 -5 -3 -11 -1 -15 4 -3 6 3 8 15 6 28 -5 41 -15 35 -25
-3 -5 -1 -11 4 -14 13 -8 8 19 -7 37 -10 12 -10 17 -1 23 7 4 9 3 6 -2 -3 -6
3 -15 13 -22 12 -7 21 -8 25 -2 4 6 11 7 17 4 6 -4 8 -2 4 4 -3 6 0 17 8 25 8
8 13 17 11 21 -3 3 1 1 8 -5 9 -9 9 -12 0 -16 -7 -3 -13 -9 -13 -15 0 -6 6 -5
16 2 12 11 18 10 32 -4 11 -11 13 -19 7 -24 -6 -4 -12 -18 -13 -32 -4 -48 -10
-65 -21 -63 -6 2 -11 -1 -11 -7 0 -5 -8 -6 -17 -3 -16 6 -16 5 -4 -11 13 -15
13 -19 1 -26 -9 -5 -20 -4 -29 3 -12 10 -13 9 -3 -10 9 -16 9 -24 0 -29 -6 -4
-8 -3 -5 3 4 6 0 16 -8 23 -13 11 -14 10 -9 -4 4 -11 2 -16 -7 -14 -17 4 -13
-49 4 -71 9 -11 9 -13 1 -8 -7 4 -14 -1 -17 -12 -3 -12 1 -22 10 -25 8 -3 11
-2 8 3 -3 5 0 13 7 17 7 4 10 4 6 -1 -5 -5 6 -16 22 -26 31 -19 37 -33 20 -44
-6 -4 -7 1 -4 12 5 15 4 16 -6 3 -10 -13 -11 -13 -6 3 5 16 -6 23 -29 17 -5
-1 -15 -3 -22 -3 -7 0 -10 -4 -7 -9 3 -4 14 -3 25 2 16 9 19 7 19 -10 0 -18
10 -25 33 -21 7 1 11 -15 8 -33 -1 -5 9 -2 21 6 21 14 27 14 43 2 10 -8 14
-14 9 -14 -5 0 -10 -10 -11 -22 -2 -20 0 -19 17 7 16 24 20 26 20 11 0 -11 3
-16 7 -13 3 4 15 -1 26 -10 11 -10 17 -12 13 -5 -4 7 -2 12 5 12 18 0 4 11
-17 14 -10 2 -19 8 -20 15 -2 7 0 7 3 1 3 -7 10 -7 21 2 12 10 14 10 8 1 -5
-9 -1 -13 13 -13 10 0 22 6 24 13 4 10 6 10 6 0 1 -7 6 -13 12 -13 5 0 7 6 3
13 -4 6 -4 9 1 5 4 -4 15 -2 24 4 9 7 13 8 9 4 -4 -5 -2 -16 5 -25 11 -14 10
-14 -5 -2 -16 12 -18 11 -18 -2 0 -11 7 -15 21 -12 15 3 19 0 15 -11 -3 -9 -2
-12 4 -9 6 3 8 18 4 33 l-5 27 15 -25 c8 -14 12 -28 10 -32 -3 -5 0 -8 6 -8 7
0 10 7 6 15 -4 12 0 14 19 11 14 -3 27 0 31 5 4 6 10 6 19 -1 9 -8 14 -6 19 6
6 15 8 15 29 -2 22 -18 22 -18 -1 6 -17 19 -25 22 -31 12 -4 -7 -12 -12 -17
-11 -5 1 -11 0 -14 -1 -23 -8 -38 -6 -33 5 2 8 12 11 20 8 10 -4 14 -2 9 5 -3
6 -1 14 5 18 7 4 9 3 5 -4 -3 -6 -2 -13 3 -16 5 -4 12 -2 15 3 3 4 17 9 31 9
15 0 22 -5 18 -12 -4 -6 2 -4 12 4 17 14 18 13 13 -2 -7 -17 14 -20 29 -3 4 4
2 5 -4 1 -7 -4 -13 -3 -13 2 0 16 13 22 25 12 8 -7 12 -5 12 4 0 15 -14 16
-34 3 -9 -6 -11 -3 -7 7 6 16 9 17 56 20 14 0 30 4 34 8 3 4 -3 6 -14 3 -12
-2 -25 1 -28 7 -5 7 -2 8 6 3 10 -6 12 -4 6 11 -6 15 -5 17 5 7 19 -19 33 -15
18 5 -13 15 -12 16 3 4 13 -10 17 -10 21 0 4 10 8 10 16 -2 10 -13 15 -8 12
12 0 4 7 4 17 1 15 -6 15 -5 3 10 -12 15 -12 17 3 11 10 -4 15 -13 12 -20 -9
-24 3 -15 17 12 12 22 15 24 20 10 4 -9 3 -15 -2 -12 -5 3 -12 -1 -15 -10 -4
-12 -2 -15 9 -11 20 8 28 -8 10 -23 -8 -7 -12 -17 -8 -24 4 -6 -1 -5 -10 3
-21 17 -22 4 -2 -19 13 -14 12 -16 -8 -17 -14 -2 -17 1 -9 6 10 6 10 11 -3 21
-8 7 -18 10 -22 6 -3 -3 -1 -6 5 -6 7 0 12 -5 12 -11 0 -5 -6 -7 -12 -3 -10 6
-10 5 -1 -8 7 -8 10 -18 6 -22 -4 -4 1 -4 12 -1 18 6 18 5 2 -5 -9 -6 -23 -8
-30 -5 -6 4 -4 0 6 -8 12 -10 16 -23 13 -43 -3 -15 0 -35 7 -43 8 -10 8 -13 1
-8 -7 4 -15 0 -18 -9 -5 -12 -2 -15 9 -10 10 3 13 2 10 -5 -12 -19 4 -57 27
-62 21 -5 21 -5 6 7 -10 7 -14 17 -10 21 4 5 1 5 -5 1 -18 -10 -16 2 3 21 12
13 15 13 14 2 -4 -25 0 -40 8 -35 4 2 9 -5 9 -16 3 -30 35 -60 56 -52 9 3 14
11 10 17 -3 6 -1 7 6 3 8 -6 9 -12 2 -20 -8 -9 -6 -18 5 -32 14 -18 15 -18 4
4 -9 18 -8 22 5 22 9 0 13 -4 10 -10 -3 -6 1 -7 10 -4 10 4 15 2 13 -6 -2 -7
4 -15 12 -17 13 -4 13 -3 0 6 -8 6 -11 11 -6 11 5 0 1 10 -10 22 -19 22 -19
23 1 8 11 -8 26 -23 33 -33 10 -13 17 -15 27 -7 7 6 21 7 31 3 16 -6 17 -5 4
9 -13 14 -17 14 -31 2 -14 -13 -17 -13 -22 0 -4 9 -1 18 5 22 7 5 8 2 3 -6 -5
-8 -3 -11 6 -8 8 3 13 11 11 18 -3 11 0 11 12 0 9 -7 16 -9 16 -4 0 5 6 2 13
-7 12 -16 51 -23 41 -7 -3 4 0 8 6 8 6 0 8 5 4 12 -4 7 -3 8 5 4 6 -4 9 -11 6
-16 -3 -4 4 -6 15 -3 11 3 20 10 20 15 0 5 -5 6 -12 2 -6 -4 -3 4 8 18 11 15
22 21 25 16 4 -6 10 -1 14 11 7 23 25 29 25 9 0 -9 4 -8 11 2 8 12 9 9 5 -10
-3 -14 -3 -19 0 -12 3 6 11 9 17 5 7 -3 9 -3 5 2 -10 11 34 44 54 40 11 -3 15
1 11 11 -4 10 0 12 13 7 16 -6 17 -5 4 9 -14 15 -16 15 -25 -1 -13 -20 -32
-24 -32 -6 0 7 7 11 15 7 10 -3 13 -1 8 6 -7 11 6 17 28 13 5 -1 6 5 3 13 -4
11 0 14 14 11 14 -3 19 0 16 9 -3 7 -2 19 3 25 5 9 8 4 8 -13 0 -16 -9 -33
-21 -41 -12 -8 -16 -15 -9 -15 6 0 14 1 15 3 2 1 11 -4 19 -10 12 -10 15 -10
15 2 0 7 -3 13 -6 12 -3 -1 -6 3 -6 8 0 6 6 9 12 9 8 -1 10 4 4 15 -10 19 -3
44 10 35 5 -3 9 -10 9 -15 0 -6 -5 -7 -12 -3 -7 4 -8 3 -4 -5 4 -6 12 -8 18
-5 6 4 8 -1 3 -15 -3 -11 -2 -21 3 -21 11 0 12 -32 0 -47 -6 -7 -4 -14 3 -19
8 -4 9 -3 5 4 -5 8 -1 10 10 5 15 -5 15 -7 0 -15 -9 -5 -14 -13 -12 -17 3 -4
-4 -8 -15 -8 -38 -3 -58 -37 -36 -59 3 -4 4 3 2 15 -2 14 0 19 7 15 6 -4 8 -3
5 3 -3 5 0 10 8 10 12 0 12 -4 -2 -20 -10 -10 -16 -21 -13 -23 8 -6 -30 -45
-39 -40 -4 3 -8 -1 -8 -9 0 -12 3 -12 15 -2 12 9 16 9 19 -1 3 -6 10 -9 15 -6
7 4 8 2 4 -4 -4 -6 -12 -10 -19 -8 -7 1 -9 1 -5 -1 5 -3 3 -13 -2 -24 -8 -15
-7 -17 5 -13 8 3 12 10 9 15 -3 5 0 9 5 9 10 0 16 -29 12 -53 -1 -5 2 -6 7 -3
5 3 17 -5 27 -16 16 -19 19 -20 29 -5 11 14 13 13 25 -5 9 -15 15 -17 26 -8
11 9 12 7 8 -9 -3 -13 -1 -21 6 -21 7 0 9 4 6 10 -4 6 1 7 11 3 14 -5 15 -3 5
18 -11 21 -11 22 2 7 14 -18 33 -25 23 -10 -3 5 1 9 9 9 8 0 15 -4 15 -9 0 -4
-4 -8 -8 -8 -5 0 -16 -6 -27 -13 -14 -11 -15 -16 -5 -22 9 -5 11 -4 6 3 -4 7
-1 12 9 12 9 0 14 -4 11 -9 -4 -5 2 -8 11 -6 10 1 24 -3 32 -9 12 -9 12 -8 0
11 -8 14 -16 18 -20 12 -4 -7 -9 -7 -12 -2 -4 6 5 15 18 21 21 10 23 9 18 -5
-4 -10 -2 -14 4 -10 6 4 13 4 16 0 2 -5 2 -2 1 5 -2 6 5 12 14 12 10 0 23 5
30 12 7 7 12 8 12 3 0 -6 4 -4 8 3 5 7 22 15 38 18 21 3 25 2 14 -5 -8 -5 -17
-8 -22 -5 -4 2 -11 -4 -17 -14 -7 -14 -6 -19 4 -19 7 0 11 6 9 12 -3 6 1 12 8
13 27 2 48 8 55 17 4 4 3 5 -3 2 -7 -4 -14 0 -17 8 -4 10 -1 12 10 8 11 -4 14
-3 9 5 -11 18 15 37 49 38 17 0 29 4 28 10 -1 5 7 11 18 11 19 2 19 1 -1 -15
-21 -17 -21 -17 -1 -29 13 -8 22 -9 26 -3 3 6 1 10 -4 10 -6 0 -11 4 -11 8 0
5 6 9 14 9 8 0 14 -5 13 -11 -1 -6 5 -10 13 -8 8 2 11 0 7 -5 -5 -4 -14 -8
-19 -8 -6 0 -13 -6 -16 -14 -3 -9 0 -11 9 -6 8 5 5 -1 -5 -13 -24 -28 -26 -27
-20 3 3 17 -2 27 -16 35 -11 6 -20 7 -20 3 0 -4 -5 -2 -11 4 -14 14 -42 5 -32
-10 3 -6 1 -7 -5 -3 -8 5 -10 1 -5 -10 5 -15 7 -15 15 0 5 9 14 16 20 16 6 0
5 -7 -3 -17 -13 -17 -12 -17 6 -2 20 17 45 15 45 -2 0 -6 -4 -7 -10 -4 -5 3
-10 1 -10 -4 0 -6 5 -11 11 -11 5 0 8 -4 4 -9 -3 -5 -1 -12 5 -16 6 -4 7 -13
1 -23 -4 -9 -7 -24 -6 -33 2 -9 -3 -16 -9 -16 -7 0 -13 6 -13 13 0 7 5 10 11
7 6 -3 8 -3 4 2 -4 4 -3 17 3 29 8 17 6 16 -10 -4 -11 -14 -18 -27 -15 -29 2
-2 -1 -10 -7 -17 -7 -8 -6 -14 2 -20 8 -5 9 -3 4 7 -7 11 -6 12 7 2 8 -7 18
-11 21 -8 4 3 4 2 1 -2 -3 -5 -11 -8 -17 -8 -7 0 -12 -9 -13 -20 -1 -12 -6
-31 -13 -43 -7 -12 -9 -27 -6 -32 3 -6 0 -10 -7 -10 -8 0 -6 -5 5 -11 9 -6 15
-15 11 -20 -3 -5 0 -8 8 -7 7 2 12 -3 10 -10 -1 -8 2 -11 8 -7 6 3 14 -4 18
-16 l9 -23 5 22 c4 14 2 20 -4 15 -7 -4 -8 -1 -3 7 5 8 4 11 -3 6 -6 -3 -13
-2 -16 3 -7 11 13 9 32 -2 6 -5 16 -6 21 -3 5 3 8 0 7 -7 0 -6 3 -12 9 -12 5
0 9 3 8 8 -2 4 2 7 7 7 6 0 10 -5 10 -11 0 -5 5 -7 12 -3 6 4 8 3 5 -2 -3 -6
-1 -16 4 -24 8 -12 12 -12 16 -2 2 6 9 12 14 12 15 0 1 -18 -23 -31 -16 -9
-19 -8 -13 2 6 8 4 10 -5 4 -9 -5 -11 -4 -6 3 5 8 2 10 -8 6 -9 -3 -16 -10
-16 -16 0 -5 5 -6 10 -3 6 3 13 -1 16 -9 3 -9 10 -16 16 -16 5 0 6 6 2 13 -4
6 -3 9 1 4 5 -4 20 3 34 15 24 21 25 21 8 2 -10 -12 -15 -24 -10 -26 4 -3 3
-3 -4 -2 -6 2 -14 -3 -16 -10 -6 -16 23 -17 43 -2 13 9 13 9 3 -5 -7 -9 -10
-19 -6 -23 4 -4 -1 -4 -11 0 -15 6 -17 4 -11 -6 6 -9 4 -11 -5 -5 -10 6 -12 4
-7 -8 3 -9 3 -16 -1 -16 -22 4 -42 -2 -37 -11 3 -5 13 -7 23 -4 14 5 14 4 3
-4 -10 -7 -21 -7 -34 0 -11 5 -17 6 -14 1 8 -12 -47 -66 -56 -56 -4 3 -7 1 -7
-6 0 -7 6 -11 14 -8 8 3 19 0 25 -7 9 -10 6 -12 -14 -8 -21 4 -25 0 -26 -19
-1 -13 -1 -28 0 -33 1 -5 -9 -2 -22 7 l-25 16 8 -34 c6 -26 5 -32 -6 -28 -8 3
-11 10 -7 17 3 6 -3 2 -15 -8 -22 -19 -30 -32 -13 -22 5 3 11 -3 14 -14 5 -21
-2 -20 -38 9 -13 10 -16 11 -7 1 15 -18 16 -34 0 -24 -7 4 -8 3 -4 -4 4 -7 -2
-16 -17 -21 -25 -10 -33 -38 -10 -38 9 0 10 4 2 14 -9 10 -8 13 4 13 9 0 14
-7 13 -17 -3 -19 -46 -29 -46 -10 0 8 -3 7 -9 -3 -12 -18 -3 -33 15 -26 8 3
11 0 7 -9 -3 -8 -10 -12 -17 -8 -6 4 -20 8 -31 10 -11 1 -14 -1 -7 -3 16 -7
16 -28 -1 -21 -8 3 -14 -1 -14 -7 0 -8 10 -12 24 -10 13 1 21 -1 18 -6 -2 -4
-16 -6 -30 -5 -14 2 -25 -1 -25 -7 0 -6 -6 -5 -15 2 -13 11 -14 10 -9 -5 5
-13 4 -16 -5 -10 -10 6 -11 3 -1 -14 6 -13 16 -19 23 -15 7 4 8 3 4 -2 -5 -5
-12 -9 -15 -9 -16 0 -51 -32 -44 -40 4 -5 1 -5 -6 -1 -9 5 -9 12 -2 27 6 11
16 16 22 13 7 -5 8 -2 3 6 -6 9 -4 11 6 5 12 -8 12 -6 0 8 -16 20 -22 22 -18
5 1 -7 -4 -12 -11 -10 -8 1 -11 -2 -7 -8 3 -5 1 -10 -4 -10 -6 0 -10 -3 -10
-7 3 -19 -2 -27 -10 -14 -6 9 -8 4 -8 -15 0 -16 2 -23 4 -16 3 6 9 12 15 12 6
0 5 -6 -2 -15 -10 -12 -16 -13 -27 -3 -11 9 -13 8 -11 -3 2 -9 -5 -14 -18 -13
-14 0 -20 -4 -17 -13 5 -12 -8 -18 -29 -14 -5 0 -8 -4 -8 -9 0 -6 5 -10 10
-10 6 0 10 -7 10 -15 0 -8 -5 -15 -11 -15 -5 0 -8 -4 -4 -9 3 -5 0 -13 -6 -17
-8 -4 -9 -3 -5 4 4 7 3 12 -3 12 -5 0 -11 -5 -13 -12 -3 -7 -7 -5 -11 6 -4 9
-3 15 2 12 4 -3 17 1 27 9 10 8 14 15 7 15 -6 0 -14 -4 -18 -9 -3 -6 -14 -8
-25 -6 -11 2 -22 -1 -26 -6 -3 -5 0 -8 7 -7 7 2 13 -9 14 -24 1 -16 -2 -25 -8
-21 -17 10 -57 12 -51 2 3 -5 -1 -12 -9 -15 -9 -3 -13 -13 -10 -25 3 -11 0
-19 -6 -19 -7 0 -9 5 -6 10 3 6 1 10 -4 10 -6 0 -11 -5 -11 -11 0 -5 -4 -8 -9
-4 -5 3 -12 1 -15 -4 -4 -5 -1 -13 5 -17 8 -4 9 -3 5 4 -5 8 -1 10 9 5 13 -4
14 -8 4 -13 -7 -5 -18 -6 -25 -3 -6 2 -15 -1 -20 -8 -4 -7 -3 -10 3 -6 6 4 16
0 22 -7 9 -11 9 -14 -1 -12 -24 3 -39 18 -34 33 3 8 2 11 -3 8 -12 -7 -10 -45
2 -45 4 0 5 -5 1 -11 -4 -8 -12 -3 -20 12 -7 13 -13 19 -14 12 0 -7 -6 -11
-12 -9 -7 1 -9 1 -5 -2 4 -2 2 -11 -5 -20 -11 -13 -11 -15 2 -7 12 6 12 5 3
-5 -14 -15 -36 -4 -26 13 4 7 -2 5 -13 -3 -29 -22 -30 -24 -12 -17 18 6 33
-29 17 -39 -5 -3 -8 0 -7 7 2 6 -10 13 -27 15 -22 2 -25 1 -11 -5 11 -4 20
-15 22 -24 1 -10 -2 -15 -7 -11 -5 3 -7 11 -3 17 3 7 -1 3 -10 -7 -8 -10 -13
-23 -10 -27 3 -5 0 -9 -5 -9 -14 0 -14 6 -1 31 7 12 7 19 1 19 -5 0 -13 -9
-16 -21 -5 -14 -10 -17 -19 -10 -7 6 -17 6 -26 1 -8 -5 -19 -6 -25 -2 -5 3 -4
-1 2 -10 7 -8 9 -19 5 -23 -4 -5 -2 -6 3 -2 6 3 17 1 25 -5 12 -8 12 -9 -2 -4
-11 3 -18 0 -19 -7 0 -7 -5 -2 -11 11 -13 26 -21 28 -39 5 -10 -11 -10 -14 -1
-9 14 9 16 -3 2 -24 -6 -10 -10 -11 -10 -2 0 6 -5 12 -11 12 -5 0 -7 -5 -3
-12 5 -8 2 -9 -9 -5 -14 5 -16 2 -14 -16 2 -12 2 -16 0 -9 -3 6 -9 12 -14 12
-6 0 -8 4 -4 9 3 5 0 13 -6 17 -8 5 -9 3 -4 -6 5 -9 1 -11 -16 -6 l-24 6 23
-11 c12 -7 22 -16 22 -21 0 -5 -4 -6 -10 -3 -16 10 -50 15 -49 7 3 -20 -2 -25
-11 -12 -8 13 -10 13 -10 -2 0 -10 7 -16 19 -15 11 0 18 4 15 8 -2 4 0 10 5
13 5 4 8 -1 7 -11 -3 -19 -56 -31 -56 -11 0 6 -6 3 -14 -7 -8 -11 -13 -22 -11
-26 2 -3 -5 -5 -16 -4 -11 1 -24 7 -28 14 -6 10 -10 9 -15 -4 -3 -9 -10 -13
-16 -10 -8 5 -14 -13 -12 -36 1 -3 -19 -3 -44 1 -27 4 -47 3 -51 -3 -3 -6 -1
-7 5 -3 7 4 12 4 13 -1 0 -4 2 -16 4 -26 2 -9 -1 -15 -6 -11 -5 3 -6 10 -3 16
4 6 2 8 -4 4 -6 -3 -13 -2 -17 4 -9 14 -25 3 -25 -17 0 -12 3 -13 14 -4 10 9
15 8 19 -2 3 -8 -1 -13 -12 -12 -22 1 -42 15 -37 24 3 4 -1 8 -9 8 -8 0 -11
-5 -8 -10 4 -6 -1 -8 -11 -4 -10 4 -15 3 -11 -3 6 -10 -7 -14 -34 -11 -11 2
-11 0 0 -12 8 -8 16 -11 17 -6 2 5 8 7 13 3 5 -3 9 -1 9 4 0 6 8 13 18 16 9 3
4 -6 -13 -21 -16 -14 -29 -32 -27 -40 2 -7 -2 -13 -8 -13 -5 0 -9 3 -7 8 1 4
-3 7 -8 7 -5 0 -9 -4 -7 -8 1 -4 -6 -3 -17 3 -30 15 -36 12 -13 -7 15 -14 18
-23 11 -38 -9 -19 -9 -19 -5 2 2 15 -2 23 -17 27 -14 3 -17 2 -9 -6 12 -12 5
-38 -10 -38 -6 0 -5 6 2 15 7 8 9 15 6 15 -4 0 -14 -7 -22 -15 -9 -9 -11 -15
-4 -15 6 0 8 -5 5 -10 -3 -6 0 -13 8 -16 15 -5 17 -20 6 -39 -4 -5 -5 -20 -4
-32 1 -12 -4 -25 -12 -27 -11 -5 -11 -9 -1 -25 7 -11 17 -17 23 -14 5 3 4 0
-2 -7 -11 -12 -16 -11 -29 6 -15 18 -15 18 -5 -2 6 -12 8 -24 4 -27 -3 -4 0
-14 8 -24 9 -11 10 -14 2 -9 -15 8 -18 -15 -4 -29 5 -6 1 -18 -11 -30 -15 -16
-18 -16 -13 -3 5 13 2 16 -14 15 -19 -1 -19 -2 -4 -19 15 -17 15 -20 -3 -40
-11 -14 -5 -11 16 7 l34 30 -17 -27 c-23 -36 -21 -45 3 -23 11 10 20 13 20 7
0 -6 -6 -12 -12 -15 -10 -3 -9 -8 2 -23 13 -17 13 -18 0 -8 -20 14 -46 11 -43
-4 2 -7 -3 -12 -10 -12 -8 0 -7 -4 3 -11 11 -8 12 -12 3 -16 -7 -2 -13 -9 -13
-14 0 -6 4 -8 8 -5 4 2 14 -5 22 -17 12 -20 12 -21 -4 -8 -16 13 -18 13 -16 0
4 -28 0 -49 -10 -49 -7 0 -7 6 0 19 7 14 7 22 -2 27 -7 4 -8 3 -4 -4 4 -7 3
-12 -3 -12 -10 0 -9 -25 2 -36 11 -11 8 -21 -9 -38 -10 -10 -11 -16 -3 -16 8
0 8 -5 -2 -17 -13 -16 -12 -17 3 -4 10 7 15 17 12 22 -3 5 0 9 6 9 7 0 9 -8 5
-21 -6 -16 -4 -20 6 -14 8 5 11 5 7 0 -4 -4 -2 -15 5 -24 10 -14 10 -14 -4 -4
-9 7 -20 9 -24 5 -5 -4 -5 -1 -1 5 5 9 2 11 -9 6 -9 -3 -13 -9 -8 -12 4 -3 9
-18 10 -33 2 -26 -7 -33 -32 -28 -5 1 -7 -2 -2 -6 10 -10 47 -13 41 -3 -2 4 0
10 5 14 6 3 8 -3 6 -14 -2 -11 3 -22 10 -25 9 -3 13 -17 11 -41 -1 -20 1 -38
6 -41 5 -3 6 -10 3 -15 -4 -5 -1 -9 4 -9 14 0 14 13 0 27 -7 7 -6 12 5 16 8 3
18 1 22 -5 4 -7 3 -8 -4 -4 -14 9 -15 -4 -2 -24 9 -13 10 -13 10 0 0 13 2 13
9 1 6 -9 6 -22 0 -33 -7 -14 -6 -18 6 -18 10 0 13 5 9 12 -4 7 -3 8 4 4 7 -4
12 -14 12 -22 0 -8 -4 -13 -9 -9 -5 3 -12 1 -16 -4 -3 -6 5 -8 20 -5 15 3 25
0 25 -7 0 -8 6 -7 17 2 12 10 15 11 9 1 -4 -7 -3 -18 3 -25 5 -7 8 -26 7 -41
l-4 -29 19 24 18 24 -3 -27 c-2 -15 1 -32 6 -40 7 -10 8 -8 4 5 -3 9 -1 17 3
17 13 0 24 -34 12 -38 -5 -2 -2 -12 7 -22 9 -10 23 -26 30 -35 7 -8 18 -13 24
-9 6 4 8 -2 3 -17 -5 -19 -4 -21 4 -9 10 13 11 13 12 0 1 -8 1 -19 -1 -25 -1
-5 4 -4 11 2 7 7 20 13 28 12 11 0 12 -2 4 -6 -14 -5 -18 -24 -5 -22 21 4 32
-3 31 -18 0 -11 -3 -13 -6 -5 -6 15 -33 16 -33 1 0 -5 4 -8 9 -4 5 3 13 0 16
-5 5 -8 14 -5 28 7 12 9 16 11 10 3 -17 -19 -16 -35 1 -21 11 9 15 8 20 -5 9
-23 7 -31 -4 -14 -5 8 -10 10 -10 5 0 -6 7 -21 16 -33 11 -15 12 -22 3 -22 -7
0 -10 -2 -7 -5 3 -3 17 -1 31 4 23 9 25 8 21 -12 -13 -58 -14 -66 -5 -71 5 -3
8 1 7 10 -1 11 9 17 29 20 l30 3 -25 -15 -25 -15 27 4 c15 2 27 1 26 -2 -2
-19 4 -22 20 -10 14 11 15 11 5 0 -7 -9 -9 -21 -3 -36 5 -13 6 -26 2 -31 -4
-4 -1 -4 6 0 7 4 9 12 6 18 -4 6 2 5 15 -2 18 -9 21 -30 5 -30 -3 0 -2 5 1 10
3 6 2 10 -4 10 -5 0 -9 -8 -8 -19 1 -12 7 -17 19 -13 12 3 18 -1 18 -12 0 -9
4 -16 10 -16 5 0 9 -3 7 -7 -1 -5 3 -8 8 -8 6 0 9 5 9 12 -1 6 5 9 12 6 11 -4
12 -9 3 -19 -6 -7 -8 -23 -3 -36 4 -13 6 -25 5 -27 -7 -11 26 -18 39 -8 8 6
12 7 8 3 -4 -5 -3 -15 3 -22 8 -9 5 -11 -13 -8 -13 2 -8 -2 11 -9 19 -7 37
-19 39 -25 2 -7 9 -9 15 -5 7 4 5 -2 -3 -12 -9 -11 -10 -16 -2 -11 15 9 16 -6
0 -22 -7 -7 -9 -12 -4 -12 10 0 36 27 31 32 -3 3 2 5 10 5 13 0 13 -3 -2 -19
-15 -17 -15 -18 0 -18 10 0 17 -6 17 -14 0 -8 5 -18 12 -22 7 -4 8 -3 4 4 -4
7 -2 12 4 12 6 0 8 -10 4 -27 -7 -25 -6 -27 9 -14 9 7 14 17 11 22 -9 15 3 10
16 -7 11 -12 11 -15 0 -12 -7 2 -15 -3 -18 -11 -3 -10 0 -11 9 -5 12 7 12 5 0
-9 -13 -17 -4 -24 15 -10 5 5 0 -1 -11 -11 -15 -14 -16 -18 -4 -13 21 7 39
-11 32 -32 -4 -14 -3 -14 6 -1 6 9 7 18 1 24 -13 13 -13 26 0 26 5 0 9 -6 7
-12 -1 -7 4 -12 11 -10 8 1 11 -2 8 -7 -4 -5 -3 -11 1 -14 5 -2 2 -2 -4 -1 -7
2 -13 -1 -13 -6 0 -6 9 -10 20 -10 11 0 20 -5 20 -11 0 -5 -4 -8 -9 -4 -5 3
-13 0 -17 -6 -4 -7 -3 -9 4 -5 6 3 13 2 17 -4 3 -6 17 -8 31 -6 14 3 22 1 19
-5 -4 -5 -11 -7 -16 -4 -5 4 -9 2 -9 -2 0 -5 10 -14 21 -22 19 -11 21 -11 16
3 -4 10 -1 13 8 9 8 -3 12 -10 8 -17 -14 -22 -12 -44 3 -50 14 -5 14 -9 3 -23
-8 -9 -9 -14 -3 -10 7 4 17 0 24 -8 14 -17 45 -21 35 -5 -4 6 -11 7 -17 4 -7
-4 -8 -2 -4 5 6 8 12 9 20 2 7 -6 17 -7 22 -3 4 4 2 -1 -6 -12 -16 -21 -23
-49 -9 -40 5 3 6 10 3 16 -5 7 -2 8 5 3 7 -4 10 -16 8 -27 -5 -16 -3 -17 11
-6 13 11 15 11 9 -4 -3 -10 -2 -20 4 -23 5 -4 6 -11 3 -17 -4 -7 -2 -8 4 -4 7
4 12 1 12 -8 0 -8 4 -17 9 -20 5 -4 7 4 4 16 -3 17 -2 19 5 9 5 -7 15 -10 21
-7 6 4 19 2 28 -4 15 -9 14 -10 -7 -4 -20 5 -22 4 -13 -6 8 -9 9 -20 2 -37 -6
-16 -5 -22 1 -18 6 3 10 12 10 20 0 8 4 16 9 20 6 3 8 -4 6 -15 -2 -12 6 -31
22 -48 14 -15 19 -18 12 -7 -7 11 -9 17 -5 13 5 -4 15 -3 22 3 8 7 14 7 19 -1
4 -6 1 -9 -5 -8 -7 2 -14 -7 -16 -20 -2 -12 1 -22 6 -22 6 0 10 5 10 12 0 6 6
3 14 -7 8 -11 12 -25 9 -31 -3 -9 2 -11 17 -7 15 4 21 1 20 -8 -4 -29 0 -40
13 -33 8 5 8 2 -2 -9 -16 -20 -1 -23 18 -4 11 10 11 8 2 -10 -10 -19 -9 -23 4
-23 9 0 13 4 10 10 -3 6 1 7 10 4 14 -6 14 -8 -2 -19 -10 -7 -20 -12 -24 -10
-3 2 -6 -3 -6 -11 0 -10 4 -11 11 -4 13 13 29 13 21 0 -4 -6 -3 -10 2 -9 20 3
27 -2 13 -11 -11 -7 -11 -10 -2 -10 7 0 17 10 23 23 8 20 9 19 4 -6 -4 -18 -2
-26 4 -22 7 3 8 0 5 -10 -5 -13 -1 -15 20 -11 14 2 28 1 31 -4 3 -5 -4 -7 -15
-5 -17 3 -20 0 -17 -21 2 -13 6 -24 10 -24 4 0 12 0 19 0 6 0 3 7 -8 15 -19
15 -19 15 1 8 35 -11 37 -15 16 -30 -22 -15 -28 -33 -10 -33 5 0 8 3 5 8 -2 4
7 12 20 19 17 8 26 8 31 1 3 -6 1 -8 -4 -5 -6 4 -16 1 -22 -7 -9 -10 -8 -16 4
-26 8 -7 12 -16 9 -21 -3 -5 0 -8 8 -7 7 2 12 -2 11 -7 -1 -6 8 -12 20 -12 21
-2 21 -1 3 12 -18 13 -18 14 2 12 11 0 18 -5 16 -9 -3 -5 5 -12 17 -16 l23 -9
-22 -5 c-14 -4 -20 -2 -15 4 3 7 1 8 -5 4 -9 -5 -9 -13 0 -29 7 -12 11 -29 9
-37 -2 -8 7 -4 19 10 18 21 21 22 15 5 -9 -27 -13 -42 -8 -32 3 4 9 4 14 1 6
-4 6 -11 -1 -19 -10 -11 -8 -13 9 -10 12 2 27 7 34 11 9 5 9 4 0 -6 -14 -15 1
-55 17 -45 5 3 11 1 15 -4 3 -5 14 -8 24 -6 15 3 19 -1 16 -15 -4 -23 26 -60
51 -60 17 0 17 -1 -2 -15 -18 -14 -18 -16 -1 -26 9 -5 23 -22 31 -38 12 -22
21 -27 46 -25 24 2 29 -1 21 -9 -6 -6 -11 -15 -11 -19 0 -11 23 -6 32 7 5 6 8
4 9 -5 1 -8 3 -19 4 -25 2 -5 3 -14 4 -20 1 -5 5 -4 10 3 7 11 9 11 14 -2 3
-8 1 -18 -5 -22 -6 -4 -8 -3 -5 2 3 6 -6 10 -21 9 -26 0 -32 -9 -16 -23 4 -4
3 -1 -1 7 -6 11 -4 13 9 8 10 -4 20 -7 22 -7 3 0 2 -6 -2 -12 -6 -9 -3 -9 9 0
14 12 21 10 51 -14 33 -26 34 -29 17 -43 -17 -14 -17 -15 3 -35 12 -12 24 -20
29 -18 4 1 7 -9 7 -23 0 -14 -5 -25 -12 -25 -6 0 -8 -3 -4 -7 4 -5 39 -8 77
-9 60 -1 69 2 64 15 -5 15 -4 15 7 0 14 -17 66 -15 83 3 7 8 6 9 -2 4 -8 -4
-13 -1 -13 7 0 7 6 14 13 15 20 1 56 10 67 17 6 4 17 2 25 -5 9 -8 15 -8 20 0
4 6 1 9 -7 8 -7 -2 -12 3 -10 10 2 10 -2 10 -18 2 -11 -6 -26 -8 -32 -4 -6 4
-8 3 -5 -3 3 -5 1 -10 -6 -11 -33 -3 -50 -10 -59 -25 -12 -22 -28 -22 -28 1 0
15 2 15 11 2 9 -12 10 -11 6 8 -3 13 -1 20 5 16 13 -8 49 26 41 39 -3 6 -1 7
6 3 9 -6 9 -11 0 -22 -7 -9 -8 -14 -1 -14 6 0 13 4 17 10 3 5 13 6 23 3 15 -6
16 -5 2 13 -14 18 -14 18 3 5 11 -9 21 -10 30 -4 6 6 29 9 50 8 21 -1 40 2 43
7 3 4 9 6 14 3 4 -3 11 2 14 11 3 8 11 12 17 8 8 -5 9 -3 5 5 -5 7 -11 10 -14
7 -3 -3 -11 -1 -19 5 -8 8 -13 8 -13 1 0 -6 5 -12 10 -14 6 -2 2 -8 -9 -15
-15 -10 -20 -9 -25 2 -3 10 0 12 12 8 14 -6 15 -4 4 9 -10 13 -10 17 2 21 7 3
18 1 24 -5 7 -7 14 -4 21 11 11 20 41 19 41 -1 0 -7 -5 -6 -14 1 -10 9 -15 8
-19 -3 -7 -18 17 -28 32 -13 6 6 11 7 11 3 0 -5 7 -3 15 4 12 10 15 10 15 0 0
-8 3 -11 6 -7 3 3 3 11 -1 17 -5 8 -11 8 -21 -1 -10 -8 -14 -8 -14 0 0 11 15
15 35 11 6 -1 15 -2 20 -3 6 -1 13 -6 17 -12 5 -6 8 -4 9 5 1 8 2 20 4 25 1 6
3 16 3 23 1 7 7 10 12 7 6 -3 10 2 10 12 0 15 2 16 10 3 5 -8 10 -10 10 -5 0
6 10 -1 21 -15 l20 -25 -12 25 c-7 14 -17 29 -23 33 -6 4 1 5 17 1 18 -4 27
-2 27 7 0 7 3 9 6 6 4 -4 2 -13 -4 -20 -9 -10 -8 -14 3 -14 8 0 12 4 9 8 -2 4
0 10 6 14 6 4 8 10 5 15 -3 5 0 12 6 16 7 4 9 3 6 -3 -11 -17 21 -24 37 -8 7
8 16 11 20 8 8 -8 34 16 32 30 -1 7 -5 18 -9 25 -5 7 -4 12 2 12 6 0 11 -5 11
-10 0 -6 3 -9 8 -9 18 3 33 -2 28 -9 -3 -5 2 -9 10 -9 10 0 8 7 -8 25 l-23 25
24 -16 c18 -12 28 -14 38 -5 10 8 13 7 13 -3 1 -9 4 -8 11 4 6 9 15 15 20 11
5 -3 8 0 7 8 -2 8 5 12 17 11 11 -1 14 0 8 3 -7 3 -13 10 -13 15 0 6 6 7 13 3
8 -5 7 -2 -2 9 -12 16 -12 17 5 10 10 -3 22 -11 25 -16 4 -5 9 -5 13 2 4 6 2
11 -4 11 -6 0 -8 4 -5 10 3 5 0 7 -8 4 -8 -3 -18 -1 -22 5 -4 7 0 8 11 4 13
-5 15 -3 9 8 -5 8 1 5 13 -5 23 -20 31 -9 10 13 -11 11 -9 11 9 2 12 -6 21
-17 19 -24 -1 -6 -1 -9 1 -4 3 4 9 4 15 1 6 -4 6 1 -1 14 -10 18 -8 20 19 18
16 -1 26 2 23 7 -3 5 5 6 18 2 23 -7 24 -7 4 9 -12 9 -15 16 -7 17 6 1 18 2
25 3 6 1 11 9 11 17 -1 9 8 22 20 29 19 12 20 12 7 -4 -12 -14 -12 -16 3 -10
9 3 16 1 16 -5 0 -6 5 -11 11 -11 8 0 7 6 -2 17 -12 14 -12 16 2 11 9 -4 16
-1 16 7 0 7 -6 11 -13 8 -6 -2 -15 1 -20 8 -4 7 -3 10 4 6 12 -8 44 2 38 12
-3 4 8 6 25 5 16 -1 26 2 23 8 -3 5 -13 7 -21 4 -8 -4 -11 -1 -8 5 4 6 13 8
20 5 8 -3 19 1 25 9 6 8 18 11 26 8 11 -4 12 -9 5 -16 -6 -6 -11 -15 -11 -21
0 -5 6 -1 14 10 10 13 11 23 4 31 -7 9 -2 11 19 8 15 -2 22 -2 16 1 -16 7 -17
34 -2 34 5 0 7 -5 3 -12 -5 -7 -3 -8 5 -3 7 4 11 15 8 25 -3 14 -1 17 11 13
11 -5 13 -3 7 6 -4 8 3 6 18 -4 24 -15 25 -15 22 2 -1 10 -8 17 -15 15 -6 -1
-9 2 -6 7 9 15 45 1 39 -15 -3 -8 0 -14 7 -14 6 0 9 4 5 9 -3 5 -1 12 5 16 6
4 8 10 5 15 -3 5 -1 12 5 15 8 5 7 12 -2 23 -7 10 -8 13 -3 9 5 -4 14 3 21 15
12 23 12 23 11 -4 -1 -14 -4 -25 -7 -23 -3 2 -7 -5 -7 -16 -1 -10 3 -19 8 -19
6 0 7 5 4 10 -3 6 1 13 10 16 13 6 14 8 3 15 -10 7 -11 9 0 9 7 0 11 4 7 9 -3
5 -1 12 5 16 6 4 7 12 4 18 -4 7 -3 9 1 4 5 -4 17 0 27 10 10 9 18 12 18 7 0
-13 -16 -35 -26 -37 -5 -1 -8 -6 -6 -10 1 -5 -3 -5 -9 -1 -8 5 -9 3 -4 -5 13
-22 57 29 52 59 l-5 25 19 -24 c21 -26 25 -21 8 11 -6 12 -7 18 -1 14 13 -8
34 18 24 30 -4 5 2 1 13 -8 15 -12 24 -14 35 -7 13 9 12 10 -2 6 -19 -7 -33
19 -16 29 7 4 8 3 4 -4 -4 -7 -2 -12 3 -12 6 0 11 6 11 13 0 8 3 8 8 1 8 -12
53 -14 45 -1 -3 5 -11 6 -19 3 -17 -6 -18 13 -3 34 9 13 10 13 6 -2 -9 -26 22
-15 42 15 10 15 21 24 26 20 4 -5 5 -2 1 5 -5 8 1 16 16 21 14 6 17 10 7 10
-16 1 -48 -30 -67 -64 -9 -15 -11 -16 -12 -4 0 9 3 19 8 23 4 4 7 13 7 19 0 7
7 12 15 12 8 1 14 6 13 13 -2 7 3 11 10 9 7 -1 11 6 10 18 -1 11 0 14 3 8 8
-19 24 -16 17 3 -4 10 1 17 16 21 11 3 21 10 21 15 0 5 -4 7 -8 4 -5 -3 -9 1
-9 9 0 10 5 11 19 4 17 -9 22 -5 19 14 -1 5 8 11 19 14 11 3 17 9 14 14 -3 5
-15 4 -27 -2 -21 -10 -21 -10 1 8 19 15 20 21 10 33 -11 12 -11 12 4 1 10 -7
15 -17 12 -22 -7 -11 33 -6 43 6 5 4 4 6 -2 3 -5 -3 -15 0 -22 7 -9 10 -8 14
9 18 11 3 17 10 14 16 -4 5 -1 13 5 17 8 5 9 3 4 -6 -6 -10 -4 -11 11 -6 10 5
24 9 31 9 7 0 10 4 7 9 -3 4 0 8 6 8 7 0 6 5 -2 14 -7 8 -17 11 -23 8 -5 -2
-5 0 1 7 6 7 20 13 32 14 11 0 18 5 15 11 -4 6 1 6 13 2 14 -5 16 -4 7 5 -6 6
-17 8 -25 3 -16 -11 -42 -15 -33 -6 4 4 12 7 18 7 7 0 11 9 9 20 -2 12 0 16 5
9 13 -17 42 -24 49 -12 4 7 3 8 -4 4 -13 -8 -16 3 -4 20 4 6 15 10 25 8 11 -1
16 0 13 3 -3 3 -1 14 4 24 7 12 6 20 -2 25 -7 5 -8 3 -3 -6 5 -8 4 -11 -2 -7
-6 4 -10 -1 -9 -9 0 -9 -7 -18 -16 -19 -14 -3 -16 1 -8 14 11 21 40 47 40 36
0 -4 6 -2 13 4 8 6 17 8 20 4 4 -3 7 -1 7 6 0 6 -10 10 -22 8 -13 -2 -18 -2
-11 0 7 2 9 12 7 21 -5 15 -4 15 5 2 6 -8 11 -10 11 -5 0 6 8 1 17 -10 14 -18
15 -18 9 -2 -3 10 -6 23 -6 28 0 6 -4 8 -8 5 -5 -3 -9 1 -9 8 0 10 8 12 29 6
17 -6 30 -5 34 2 4 6 3 8 -2 5 -6 -3 -15 3 -22 13 -9 14 -9 21 0 26 7 4 8 3 4
-4 -4 -7 -1 -12 8 -12 25 0 31 4 28 19 -2 7 1 10 7 6 7 -3 8 0 5 9 -3 9 -11
13 -16 10 -6 -4 -2 5 7 20 18 27 35 34 35 14 0 -17 11 -3 14 19 2 10 9 18 17
18 8 0 13 8 11 19 -2 10 1 16 6 12 5 -3 9 2 9 11 0 10 -10 4 -28 -18 -15 -19
-25 -38 -22 -43 4 -5 1 -6 -5 -2 -13 8 3 45 26 59 7 5 9 13 6 19 -4 6 -3 8 3
5 5 -3 22 3 39 14 16 10 23 19 16 19 -7 0 -10 5 -6 12 4 6 3 8 -4 4 -6 -3 -13
-2 -16 3 -4 5 5 8 18 7 19 -2 23 1 18 13 -5 14 -4 14 12 2 13 -11 16 -11 14
-1 -2 7 3 15 11 18 10 3 11 0 5 -9 -6 -11 -5 -12 8 -2 8 7 18 11 21 8 4 -3 4
-2 1 2 -9 12 -64 12 -57 0 4 -6 1 -7 -7 -2 -7 4 -16 2 -21 -6 -4 -7 -10 -11
-13 -8 -3 3 8 17 24 33 17 15 27 21 24 12 -5 -12 -2 -15 10 -10 9 3 16 10 16
15 0 5 9 0 20 -11 21 -21 25 -35 13 -43 -5 -2 -2 -2 5 -1 6 2 12 0 12 -4 0 -4
10 -13 21 -21 18 -11 23 -11 30 1 5 7 9 9 10 3 0 -5 2 -19 4 -30 2 -10 -1 -25
-7 -32 -8 -9 -3 -9 18 1 25 14 29 13 41 -4 8 -11 19 -20 25 -20 7 0 7 4 -1 14
-8 10 -8 16 3 25 10 9 16 9 21 1 4 -6 4 -14 1 -17 -3 -4 -6 -1 -6 6 0 7 -5 9
-10 6 -8 -5 -8 -11 0 -20 18 -21 -8 -30 -30 -10 -15 13 -23 14 -39 5 -12 -6
-21 -13 -21 -16 0 -2 10 0 21 7 13 7 24 7 28 2 3 -6 16 -15 29 -22 18 -9 22
-9 20 1 -2 7 3 12 10 10 8 -1 11 2 7 8 -3 5 -2 10 4 10 5 0 12 -6 14 -12 2 -7
3 -1 1 14 -2 15 1 30 6 33 5 3 7 0 4 -8 -3 -8 0 -18 6 -22 6 -3 10 -3 9 2 -4
22 3 31 21 28 12 -2 18 0 15 6 -4 5 -10 7 -14 5 -4 -3 -13 0 -21 5 -12 8 -11
9 5 7 12 -2 19 2 18 9 -2 7 1 12 6 10 5 -1 17 7 26 18 9 11 13 14 9 6 -5 -9
-3 -12 4 -7 7 4 12 13 12 19 0 7 11 20 25 30 23 16 24 16 34 0 6 -11 11 -13
11 -5 0 7 4 11 9 7 5 -3 13 0 17 6 4 7 3 9 -4 5 -6 -3 -13 -2 -16 3 -4 5 -1
13 5 17 20 12 29 -19 13 -44 -11 -17 -12 -27 -5 -36 6 -7 8 -16 4 -20 -4 -4 3
-9 15 -13 12 -3 22 -9 22 -14 0 -12 -7 -11 -33 2 -20 9 -20 9 -5 -4 12 -9 14
-17 8 -25 -6 -7 -7 -10 -4 -7 4 3 13 -3 20 -13 9 -13 10 -20 1 -32 -10 -13
-10 -13 5 -2 16 13 16 16 2 40 -15 26 -15 26 1 7 9 -11 21 -19 26 -17 5 1 2
-10 -8 -25 -13 -20 -14 -25 -3 -16 12 9 19 8 34 -3 11 -8 15 -14 10 -14 -6 0
-15 5 -22 12 -9 9 -12 8 -12 -6 0 -9 -4 -15 -9 -11 -5 3 -12 1 -16 -4 -3 -6 5
-8 19 -5 14 2 28 0 31 -6 4 -6 12 -7 18 -3 7 3 4 -3 -7 -15 -10 -12 -22 -20
-26 -17 -4 2 -7 -2 -7 -10 0 -9 5 -11 11 -6 6 4 20 11 31 14 17 6 16 4 -4 -13
l-24 -21 27 5 c16 3 25 2 21 -2 -3 -4 -11 -8 -16 -8 -5 -1 -13 -2 -19 -3 -5 0
-10 -6 -10 -12 0 -8 4 -8 14 0 10 8 16 8 25 -2 6 -8 7 -17 3 -22 -4 -4 4 -4
18 0 23 7 24 7 10 -10 -9 -11 -10 -16 -2 -11 7 4 12 2 12 -4 0 -6 4 -9 10 -5
5 3 7 13 4 23 -5 14 -4 14 4 3 6 -8 7 -21 4 -30 -5 -14 -3 -14 11 -2 9 7 17
10 17 6 0 -4 7 -2 16 5 12 11 15 11 12 0 -2 -9 10 -14 36 -16 21 -1 42 -6 45
-11 3 -4 13 -9 21 -11 10 -1 9 2 -4 13 -11 8 -25 15 -30 15 -6 0 -4 5 4 10 10
6 20 4 31 -6 13 -12 19 -12 25 -3 5 8 3 10 -6 4 -10 -6 -12 -4 -7 8 4 10 1 17
-5 17 -30 0 14 17 50 19 6 1 12 8 12 16 0 8 5 15 11 15 5 0 7 5 4 10 -3 5 -2
10 4 10 5 0 11 -3 14 -7 2 -5 2 -2 1 5 -2 6 1 12 6 12 6 0 10 5 10 12 0 9 -3
9 -12 0 -15 -15 -28 -15 -28 -1 0 5 5 7 10 4 6 -3 10 3 10 15 0 19 1 20 16 6
19 -20 20 -20 27 -1 4 8 1 17 -5 21 -7 4 -8 3 -4 -4 4 -7 3 -12 -2 -12 -6 0
-13 8 -16 17 -4 10 -4 14 0 10 4 -4 14 -1 22 6 10 8 13 8 9 1 -4 -7 0 -15 9
-18 13 -5 14 -9 5 -20 -9 -11 -9 -16 0 -22 7 -4 9 -3 6 3 -4 6 0 16 8 23 13
11 13 14 -2 27 -17 13 -16 13 2 4 11 -5 21 -20 22 -33 2 -18 0 -19 -7 -8 -8
12 -10 11 -10 -7 0 -12 -5 -23 -12 -25 -9 -3 -9 -6 0 -12 7 -4 12 -3 12 3 0 6
10 15 23 21 20 10 21 10 4 -4 -20 -15 -21 -24 -6 -43 7 -7 6 -13 0 -17 -6 -4
-8 -13 -4 -21 3 -9 1 -21 -5 -28 -5 -6 -8 -22 -6 -34 4 -25 -11 -40 -22 -22
-4 8 -3 9 5 5 8 -5 10 0 7 18 -3 14 0 28 5 32 6 3 8 13 5 21 -4 9 -2 21 4 28
8 9 8 15 0 20 -5 3 -10 -1 -10 -10 0 -9 -5 -13 -11 -9 -8 5 -8 1 0 -14 8 -15
8 -23 0 -27 -6 -4 -8 -13 -6 -19 3 -7 1 -19 -3 -26 -13 -20 7 -50 28 -43 10 3
8 -1 -7 -12 -16 -12 -19 -20 -11 -25 9 -6 9 -13 0 -31 -10 -21 -10 -22 3 -6
18 22 28 22 20 0 -5 -12 -3 -14 8 -8 12 7 12 6 -1 -11 -22 -30 -24 -30 -17 -9
7 19 7 19 -8 1 -18 -24 -10 -39 15 -26 13 7 21 7 26 -2 4 -6 3 -8 -3 -5 -6 4
-16 0 -23 -8 -10 -12 -16 -13 -29 -3 -14 12 -14 11 -2 -5 10 -13 17 -15 27 -6
11 9 14 8 14 0 0 -7 5 -9 10 -6 6 4 2 -9 -9 -29 -14 -24 -17 -37 -9 -42 6 -4
8 -3 5 2 -3 6 3 15 14 22 11 7 19 8 19 2 0 -5 -5 -10 -12 -10 -6 0 -8 -3 -5
-7 4 -3 1 -13 -6 -22 -11 -14 -10 -14 5 -2 21 16 48 8 48 -14 0 -9 -5 -13 -10
-10 -6 4 -8 11 -5 16 3 5 0 6 -8 3 -7 -2 -14 -11 -14 -18 0 -8 6 -12 13 -9 6
2 15 0 19 -6 3 -6 12 -11 18 -11 9 0 9 2 1 8 -9 5 -8 11 2 20 12 11 14 8 9
-19 -3 -18 -8 -36 -10 -40 -3 -3 3 -6 13 -5 10 0 16 -5 14 -14 -3 -12 -1 -13
10 -2 11 11 10 15 -4 23 -10 6 -15 16 -11 26 5 13 9 11 19 -10 10 -19 20 -25
39 -22 14 1 28 -2 32 -8 3 -6 1 -7 -5 -3 -6 3 -14 1 -18 -5 -4 -8 -9 -7 -15 2
-7 11 -9 10 -9 -3 0 -9 5 -20 10 -23 6 -3 10 -1 10 4 0 6 12 11 26 11 14 0 23
4 20 8 -2 4 6 8 19 8 13 0 21 -4 19 -8 -3 -5 -10 -5 -16 -2 -6 4 -8 3 -5 -3 3
-5 16 -9 29 -7 13 1 29 3 36 3 7 1 10 6 6 13 -5 8 -2 9 10 5 12 -5 15 -3 9 6
-11 18 -13 38 -2 31 5 -3 7 -9 4 -14 -3 -4 2 -10 10 -14 18 -7 19 -2 4 27 -7
12 -8 19 -4 15 4 -4 17 2 28 15 14 15 18 17 14 5 -3 -9 0 -21 7 -27 9 -8 12
-3 10 19 -1 23 2 28 16 25 20 -4 34 20 23 37 -3 7 -1 8 6 4 6 -4 9 -16 6 -27
-4 -13 -2 -18 7 -16 7 2 9 2 4 -1 -5 -3 6 -13 25 -23 21 -11 27 -18 17 -19
-10 0 -18 -5 -18 -11 0 -5 4 -7 10 -4 6 4 7 -1 3 -11 -4 -12 -3 -15 5 -10 8 4
10 2 6 -8 -5 -12 -8 -12 -25 2 -19 17 -26 27 -11 18 5 -3 8 5 7 17 -1 14 -8
21 -18 21 -9 -1 -14 3 -10 9 3 6 1 7 -5 3 -21 -13 -13 -28 10 -20 19 6 21 4
12 -7 -13 -16 -15 -51 -2 -43 4 3 8 0 8 -5 0 -10 -14 -15 -32 -12 -5 0 -8 -4
-8 -10 0 -7 7 -8 18 -4 31 12 36 10 38 -14 1 -24 22 -44 36 -35 4 3 8 1 8 -4
0 -6 -11 -9 -24 -8 -13 0 -22 5 -18 10 3 5 0 6 -6 2 -17 -10 -15 -23 4 -30 10
-4 13 -2 9 7 -4 6 0 4 9 -6 8 -11 12 -26 9 -34 -3 -8 0 -19 8 -24 11 -8 10 -9
-5 -7 -12 2 -20 -4 -21 -15 -2 -9 1 -15 6 -11 5 3 6 10 3 16 -4 7 -2 8 4 4 9
-5 9 -13 2 -27 -6 -11 -16 -16 -22 -13 -7 5 -8 2 -4 -5 6 -9 13 -8 28 6 20 18
21 17 10 -3 -6 -11 -9 -29 -7 -40 2 -10 4 -23 4 -28 2 -17 12 2 17 30 3 23 2
26 -7 14 -7 -10 -9 -11 -7 -2 2 8 8 14 13 15 14 3 16 -55 2 -72 -10 -12 -9
-12 10 -1 12 8 19 19 16 25 -3 5 0 4 7 -2 8 -7 15 -23 17 -35 3 -21 3 -21 -10
-4 -13 17 -14 17 -28 -1 -13 -17 -13 -17 5 -3 18 14 19 13 13 -2 -3 -10 -3
-17 1 -17 20 3 25 -2 12 -12 -12 -8 -12 -10 -1 -7 8 2 15 12 17 22 1 10 6 21
10 24 4 4 5 -1 1 -10 -3 -9 0 -19 9 -22 16 -6 19 -26 3 -26 -5 0 -7 5 -4 10 9
15 -4 12 -21 -5 -9 -9 -11 -16 -5 -16 6 -1 17 -2 24 -3 6 -1 18 3 26 8 11 8
13 8 8 0 -4 -7 0 -17 8 -24 8 -7 12 -16 9 -21 -3 -5 0 -9 6 -9 6 0 9 -4 5 -9
-3 -5 0 -13 6 -17 8 -4 8 -8 0 -13 -6 -4 -2 -12 12 -20 20 -13 21 -13 8 2 -7
10 -10 17 -6 17 4 0 2 6 -4 13 -8 10 -7 14 4 14 8 0 12 -3 10 -7 -2 -4 2 -15
9 -25 17 -23 48 -13 40 12 -5 15 -4 15 5 3 7 -10 6 -19 -4 -30 -10 -11 -11
-20 -4 -30 9 -12 10 -12 5 2 -4 13 2 20 19 24 14 3 25 11 25 18 0 6 5 4 10 -4
8 -13 13 -13 38 2 16 10 32 15 36 11 3 -3 6 -1 6 5 0 16 -12 15 -36 -3 -10 -8
-23 -14 -29 -14 -5 0 -2 4 8 10 9 6 15 14 12 19 -3 5 -1 11 5 15 6 4 7 11 4
17 -4 6 -2 8 4 4 6 -3 14 -2 17 4 4 7 11 8 18 1 8 -6 21 -4 37 6 14 8 17 12 8
9 -22 -7 -48 2 -48 16 0 7 4 7 13 0 8 -7 19 -5 36 9 21 17 16 25 -12 20 -5 -1
-6 3 -3 8 4 5 1 13 -5 17 -8 4 -4 11 12 20 18 9 26 9 32 1 6 -8 7 -7 4 3 -2 8
-11 14 -19 12 -8 -1 -15 4 -15 12 0 8 6 12 13 9 6 -2 15 1 19 6 3 6 11 9 16 5
5 -3 8 0 7 7 -2 6 3 14 11 17 9 3 11 0 6 -8 -5 -9 -4 -11 4 -6 6 4 10 10 7 14
-2 4 0 16 5 27 8 18 8 17 6 -5 -1 -16 3 -24 11 -22 8 1 11 -2 7 -8 -3 -5 0
-10 7 -10 9 0 9 -3 -2 -10 -8 -5 -11 -10 -6 -10 5 0 2 -8 -5 -17 -12 -15 -12
-16 6 -9 11 4 16 4 13 0 -4 -4 -2 -16 4 -28 7 -11 12 -25 13 -29 0 -4 7 -12
15 -18 13 -9 13 -10 -2 -6 -9 3 -19 -1 -22 -9 -3 -8 -2 -12 3 -9 5 3 20 0 33
-6 24 -10 35 -44 17 -54 -5 -3 -7 0 -6 7 2 7 2 10 0 5 -3 -4 -8 -5 -13 -2 -5
3 -7 -3 -6 -12 2 -13 10 -17 27 -15 24 4 24 3 4 -13 -11 -9 -15 -14 -8 -11 15
8 23 -14 12 -34 -5 -11 -2 -16 11 -16 10 0 17 3 15 6 -2 3 5 7 16 7 17 2 17 0
5 -13 -9 -8 -12 -22 -9 -30 5 -14 8 -12 20 7 13 23 14 23 8 2 -4 -13 0 -32 8
-43 12 -17 16 -18 26 -7 6 8 7 18 3 22 -4 5 -1 5 6 1 7 -4 10 -11 7 -16 -3 -5
2 -13 11 -18 15 -8 15 -10 0 -15 -9 -4 -16 -12 -16 -19 0 -9 3 -9 10 2 5 8 12
11 16 7 4 -3 1 -15 -7 -24 -7 -10 -1 -7 14 7 23 20 27 21 21 6 -5 -14 -4 -17
4 -12 7 4 12 2 12 -4 0 -7 -6 -10 -14 -7 -8 3 -22 -4 -33 -16 -18 -22 -18 -22
3 -4 24 20 40 11 22 -12 -7 -9 0 -5 16 9 26 23 28 23 24 5 -1 -11 -7 -24 -13
-28 -6 -5 -4 -7 5 -6 8 1 23 -1 33 -6 15 -6 15 -10 5 -24 -11 -14 -11 -14 3
-4 9 7 19 10 23 5 4 -4 12 1 17 11 6 9 15 17 22 17 8 0 9 -2 1 -8 -13 -9 -14
-42 -1 -42 5 0 7 7 4 14 -4 11 -1 13 10 9 12 -5 14 -3 8 8 -7 11 -6 12 7 2 8
-7 18 -10 22 -6 10 10 37 13 31 3 -9 -15 40 -20 51 -5 13 18 29 20 18 3 -4 -7
-3 -8 5 -4 9 6 9 11 -1 24 -11 13 -10 15 4 9 12 -4 15 -2 11 9 -4 11 -8 12
-19 3 -8 -7 -17 -9 -21 -6 -3 4 2 9 11 13 9 3 13 10 10 15 -3 5 2 6 10 3 11
-4 14 0 11 15 -2 12 0 19 6 16 5 -4 7 -10 4 -15 -3 -5 3 -14 12 -20 16 -10 16
-11 1 -6 -11 3 -15 1 -12 -8 3 -7 11 -13 18 -13 10 0 13 44 13 197 l0 196 -25
12 c-13 6 -29 9 -35 5 -6 -4 -7 -1 -2 7 6 10 4 12 -9 7 -10 -4 -15 -3 -11 4 4
5 16 7 28 4 21 -6 21 -5 -3 15 -22 20 -39 57 -20 45 4 -3 13 2 20 10 10 12 9
15 -4 15 -9 0 -16 5 -16 10 0 7 7 7 21 0 11 -7 18 -14 15 -17 -3 -4 -1 -12 5
-20 6 -7 8 -13 4 -13 -4 0 -2 -7 5 -15 6 -8 8 -20 4 -26 -5 -8 -3 -9 7 -4 12
8 12 6 0 -8 -11 -14 -11 -17 0 -17 10 0 14 14 14 52 0 56 -9 79 -28 77 -30 -4
-39 2 -32 19 4 9 9 28 11 42 4 22 3 23 -8 10 -7 -9 -22 -23 -33 -30 -18 -14
-19 -13 -8 1 7 9 9 20 5 24 -4 5 -2 5 4 2 7 -4 15 0 18 9 5 12 1 14 -17 9 -17
-5 -19 -4 -7 4 12 9 13 14 2 31 -11 19 -11 20 7 8 11 -7 17 -16 14 -22 -3 -5
-1 -6 6 -2 8 6 9 12 2 20 -6 7 -7 17 -3 21 4 5 3 6 -3 3 -5 -3 -17 1 -25 10
-13 14 -12 15 3 9 19 -7 18 -8 22 49 1 23 -4 53 -11 65 l-13 24 2 -22 c1 -13
5 -23 10 -23 5 0 3 -8 -4 -17 -10 -11 -10 -14 -1 -9 6 4 12 2 12 -3 0 -6 -7
-11 -16 -11 -11 0 -14 7 -10 30 4 29 -8 42 -17 18 -3 -7 -4 -3 -4 9 1 12 5 19
9 17 4 -3 8 2 8 10 0 8 6 14 13 12 6 -1 9 -1 4 1 -4 3 -4 10 0 16 4 7 -1 6
-10 -2 -24 -19 -31 -8 -9 15 17 17 17 20 3 31 -14 11 -13 12 7 8 13 -2 20 0
17 6 -4 5 -11 6 -17 3 -7 -5 -9 2 -6 20 3 14 1 29 -5 33 -6 4 -7 1 -2 -8 5 -8
4 -10 0 -6 -5 4 -10 14 -11 22 -2 11 3 11 21 3 15 -7 21 -16 18 -28 -3 -10 -1
-20 4 -23 5 -3 8 6 7 21 0 14 -6 28 -12 30 -7 2 -10 7 -7 12 7 12 -47 48 -65
43 -12 -4 -12 -3 -1 5 9 7 10 12 2 16 -6 4 -9 11 -6 16 3 4 -2 13 -11 20 -13
12 -11 17 18 47 26 26 30 36 19 42 -7 5 -11 13 -7 19 3 6 1 14 -5 17 -5 4 -8
13 -5 21 3 7 1 16 -5 20 -5 3 -7 14 -4 25 5 15 3 18 -12 12 -19 -7 -18 -5 9
15 12 10 18 10 24 1 5 -8 3 -9 -6 -4 -9 6 -11 4 -6 -4 8 -12 21 -7 21 7 0 4 4
13 9 21 7 11 6 12 -5 6 -20 -13 -49 -13 -56 -2 -3 6 -1 7 5 3 7 -4 12 -3 12 2
0 6 6 9 13 8 6 0 12 3 12 9 0 5 -7 8 -15 7 -12 -3 -13 -1 -2 9 18 19 15 34 -5
18 -15 -13 -15 -12 -3 8 11 16 18 19 31 12 12 -6 20 -5 24 1 4 6 3 10 -2 9
-22 -4 -32 3 -30 21 1 11 6 20 12 20 5 0 3 5 -5 10 -18 12 -40 14 -25 2 6 -4
11 -14 13 -22 1 -11 -2 -9 -13 4 -16 22 -3 49 19 40 8 -3 16 2 20 12 6 15 4
15 -11 3 -15 -12 -16 -12 -10 4 4 11 1 20 -8 23 -8 4 -12 10 -9 16 3 5 13 4
22 -4 10 -7 14 -8 10 -4 -4 5 -3 15 4 23 9 11 8 13 -2 11 -7 -2 -15 3 -18 11
-3 9 0 11 8 6 10 -6 11 -4 4 6 -5 8 -9 17 -9 21 0 3 -3 10 -7 14 -4 3 -6 -3
-3 -15 4 -22 -9 -29 -20 -11 -3 6 -1 10 4 10 6 0 10 3 10 8 -4 26 2 32 20 22
14 -7 22 -7 26 0 4 6 3 10 -2 9 -34 -6 -44 24 -15 46 9 7 5 10 -14 12 -15 0
-23 -2 -18 -5 5 -4 10 -14 12 -22 1 -11 -2 -9 -13 4 -16 21 -4 47 18 42 7 -1
9 -1 5 1 -13 8 -9 25 5 18 6 -4 2 2 -10 13 -26 23 -19 36 11 21 20 -10 20 -10
2 5 -14 12 -16 16 -5 16 12 0 12 2 -1 10 -13 9 -13 11 0 20 13 8 13 10 1 10
-11 0 -11 3 3 13 16 12 16 13 -2 13 -14 0 -19 -6 -17 -18 4 -19 -10 -25 -20
-8 -3 6 -2 10 4 10 5 0 8 8 6 18 -1 9 -8 16 -14 14 -8 -1 -7 4 1 18 7 11 17
20 22 20 4 0 3 -6 -3 -14 -9 -10 -8 -15 3 -19 9 -4 18 -1 22 5 4 7 3 8 -4 4
-19 -12 -14 12 6 24 16 11 16 11 0 6 -10 -3 -20 -1 -23 5 -4 5 -11 6 -17 3 -7
-4 -8 -2 -4 5 4 7 17 9 29 6 16 -5 18 -4 8 3 -7 5 -11 14 -7 20 3 6 1 14 -5
18 -7 4 -9 3 -5 -4 9 -16 -14 -26 -27 -13 -9 9 -8 11 5 6 11 -4 16 -2 14 7 -3
23 -17 39 -28 32 -7 -4 -8 -2 -4 4 4 7 18 4 42 -10 19 -11 37 -18 40 -15 3 3
-4 8 -17 12 -17 6 -19 9 -8 17 11 7 9 8 -6 6 -12 -2 -20 3 -20 12 -1 8 -7 14
-14 12 -7 -1 -10 2 -6 8 5 8 11 8 20 0 9 -8 15 -8 20 0 3 5 12 10 18 10 7 0 3
-7 -7 -15 -22 -17 -10 -20 14 -5 13 9 12 13 -6 28 -20 17 -20 20 -5 31 14 10
13 11 -7 7 -13 -2 -20 0 -16 6 3 5 17 7 31 3 21 -5 23 -3 14 13 -6 11 -7 22
-4 26 3 3 0 6 -8 6 -10 0 -11 2 -2 8 6 4 14 21 16 37 2 17 9 29 15 28 6 -2 9
4 5 13 -4 11 -8 12 -13 4 -6 -9 -9 -9 -13 1 -3 8 -4 2 -2 -13 4 -31 -11 -46
-28 -29 -9 9 -8 11 3 6 11 -4 15 3 16 29 0 20 -3 33 -7 30 -4 -2 -11 1 -15 7
-5 8 -3 9 6 4 8 -5 11 -3 8 6 -3 8 -11 13 -17 12 -6 -2 -11 2 -11 7 0 6 7 10
15 10 8 0 15 -4 15 -8 0 -5 7 -17 15 -28 15 -19 15 -19 9 1 -9 25 -35 56 -43
50 -4 -2 -13 0 -21 6 -12 7 -12 9 -1 9 10 0 11 3 2 14 -9 10 -9 16 -1 21 6 4
14 4 17 1 4 -3 1 -6 -7 -6 -9 0 -10 -3 -1 -13 6 -8 7 -18 3 -23 -4 -5 3 0 16
10 12 11 22 21 22 24 0 2 -7 -1 -15 -8 -18 -15 -20 1 -2 19 10 11 9 13 -1 7
-7 -4 -15 0 -18 9 -6 13 -8 14 -15 3 -6 -9 -9 -9 -9 -1 0 6 5 15 10 18 7 4 7
13 0 26 -6 11 -16 16 -22 13 -7 -4 -8 -2 -4 5 6 8 12 9 20 2 10 -8 16 -4 24
14 8 18 8 26 0 31 -6 4 -8 3 -5 -2 3 -6 2 -16 -4 -24 -6 -11 -9 -6 -9 18 0 24
3 31 13 26 9 -6 9 -4 -1 8 -9 11 -9 18 -2 21 6 3 6 5 -1 3 -7 -1 -13 -10 -15
-20 -1 -10 -6 -21 -10 -24 -4 -4 -5 0 -1 9 3 9 1 21 -5 27 -8 8 -4 14 15 21
34 13 34 19 2 17 -14 0 -25 -5 -25 -10 0 -5 -2 -7 -5 -4 -3 3 -2 13 1 22 5 14
9 15 15 4 7 -10 9 -11 9 0 0 8 5 10 13 6 8 -6 8 -3 -2 9 -10 13 -17 14 -33 6
-11 -6 -22 -8 -25 -5 -7 7 7 27 16 22 4 -3 13 -1 21 4 12 7 11 9 -5 9 -30 -1
-60 7 -57 14 1 4 2 10 2 13 0 4 8 0 18 -7 14 -11 13 -10 -2 9 -18 21 -11 31
10 15 5 -5 2 -1 -8 8 -9 9 -15 19 -13 21 3 3 -2 5 -10 5 -10 0 -12 -4 -5 -12
7 -8 5 -12 -5 -12 -7 0 -14 3 -13 6 0 3 -1 8 -2 11 -6 15 -5 62 2 66 4 3 8 11
8 17 0 7 -5 4 -11 -6 -8 -13 -14 -15 -30 -7 -10 6 -19 17 -19 25 0 7 -5 15
-10 17 -6 2 -12 14 -15 27 -5 26 -15 41 -15 23 0 -7 -4 -12 -10 -12 -5 0 -10
6 -10 14 0 8 -6 16 -12 18 -22 8 -37 -2 -31 -20 3 -9 3 -14 -1 -11 -9 9 -17
51 -7 45 4 -3 13 0 21 6 13 8 12 9 -1 5 -9 -3 -22 0 -29 6 -10 9 -11 9 -6 0 4
-8 1 -13 -8 -13 -10 0 -13 6 -9 17 4 10 2 14 -5 9 -6 -3 -15 2 -21 11 -6 10
-11 12 -11 6 0 -7 -11 -13 -25 -13 -23 0 -25 2 -15 23 10 20 9 20 -11 -3 l-22
-25 8 25 c7 22 6 23 -8 11 -9 -7 -14 -18 -10 -24 3 -6 1 -7 -5 -3 -12 7 -2 39
15 48 5 3 3 4 -3 2 -6 -1 -17 3 -24 9 -10 9 -11 9 -6 0 3 -6 3 -13 -1 -16 -5
-2 -1 -2 7 0 11 3 12 1 4 -7 -9 -9 -17 -9 -34 0 -20 11 -22 10 -17 -4 4 -11 3
-15 -4 -10 -6 3 -8 18 -5 33 6 26 6 26 -7 3 -7 -12 -16 -20 -19 -17 -4 4 -15
2 -25 -3 -19 -10 -43 -6 -43 7 0 4 7 8 15 8 8 0 12 -4 9 -9 -3 -4 6 -3 20 4
14 6 26 16 26 21 0 5 -5 5 -13 -1 -16 -13 -52 -9 -52 6 0 6 -4 14 -8 19 -5 4
-7 2 -5 -6 2 -7 -3 -16 -11 -19 -9 -3 -11 0 -6 8 5 9 4 11 -4 6 -6 -4 -20 -2
-29 6 -16 12 -16 11 -2 -6 14 -18 13 -19 -3 -13 -10 4 -21 7 -23 7 -2 0 -4 6
-4 14 0 8 -4 18 -10 21 -11 7 -2 -22 14 -45 6 -8 6 -12 2 -8 -5 4 -15 3 -21
-2 -9 -8 -12 -4 -10 15 2 14 -2 28 -7 32 -6 3 -8 1 -4 -5 10 -17 -13 -25 -32
-10 -15 11 -15 11 -5 -3 7 -9 10 -19 6 -23 -4 -4 -13 4 -20 16 -7 13 -12 18
-13 13 0 -6 -14 -12 -31 -13 -20 -2 -28 1 -24 9 6 8 2 8 -13 0 -28 -15 -55
-14 -46 2 6 9 5 9 -8 0 -8 -7 -19 -9 -23 -5 -5 4 -4 1 0 -7 6 -11 4 -13 -9 -8
-10 4 -15 3 -11 -3 4 -7 -3 -9 -18 -6 -13 2 -30 0 -38 -5 -10 -6 -5 -8 15 -6
19 1 31 -3 33 -13 3 -10 2 -11 -4 -4 -10 14 -43 9 -55 -8 -6 -9 -8 -8 -6 6 2
10 -3 21 -10 23 -7 3 -12 1 -11 -4 4 -21 -2 -34 -12 -27 -7 4 -8 9 -1 13 7 4
5 13 -4 25 -8 11 -14 14 -14 7 0 -7 -5 -9 -12 -5 -7 4 -8 3 -4 -5 4 -6 13 -8
19 -4 7 4 7 1 -1 -9 -8 -9 -19 -15 -27 -12 -7 3 -16 0 -20 -5 -3 -6 -11 -9
-16 -6 -5 4 -9 2 -9 -4 0 -6 -8 -7 -17 -4 -16 6 -17 5 -3 -12 8 -10 10 -16 3
-12 -6 4 -14 1 -17 -5 -3 -7 -3 -1 -1 14 2 15 0 30 -4 32 -4 3 -8 -1 -9 -9 -1
-8 -3 -21 -4 -29 -1 -11 -27 -14 -70 -7 -4 0 -4 9 -1 18 6 15 5 16 -8 3 -9 -8
-15 -25 -13 -38 2 -20 0 -21 -14 -10 -27 20 -28 22 -7 14 11 -4 16 -3 11 1 -4
4 -18 8 -31 8 -18 1 -21 -2 -14 -11 7 -8 6 -15 -2 -20 -7 -4 -9 -3 -6 3 4 6 0
14 -9 17 -8 3 -13 2 -10 -3 8 -13 -30 -21 -42 -9 -6 6 -8 18 -5 27 4 12 3 13
-5 3 -7 -11 -11 -10 -17 5 -5 10 -7 22 -6 27 1 4 -4 15 -10 23 -10 11 -10 14
2 11 8 -2 13 2 12 7 -1 6 8 12 19 12 19 2 19 1 3 -11 -10 -7 -15 -19 -12 -27
4 -10 6 -9 6 4 1 9 4 17 9 18 24 2 45 8 50 15 4 4 -1 5 -10 1 -10 -3 -19 0
-22 9 -4 10 0 14 11 12 9 -2 18 3 21 11 3 9 0 11 -9 6 -8 -5 -5 1 5 13 16 18
22 20 34 9 13 -10 14 -9 7 2 -6 11 -4 13 8 8 11 -4 15 0 14 14 -1 10 -6 19
-11 19 -5 0 -7 2 -4 5 9 10 38 -7 31 -18 -3 -5 -1 -7 5 -4 5 4 8 16 5 27 -3
11 -9 17 -14 14 -5 -3 -6 2 -3 10 5 12 8 12 23 -2 10 -9 16 -20 14 -24 -2 -4
4 -5 13 -1 11 4 13 8 6 11 -14 4 -37 43 -25 41 14 -4 43 13 38 21 -3 5 6 7 20
4 14 -2 25 0 25 6 0 6 -4 8 -10 5 -5 -3 -10 1 -10 9 0 8 5 18 12 22 7 4 8 3 4
-4 -4 -7 -3 -12 2 -12 6 0 12 7 16 15 3 8 11 15 18 15 9 0 9 -3 0 -12 -7 -7
-12 -17 -12 -22 0 -6 7 0 16 12 8 12 12 26 9 32 -3 5 0 7 9 4 8 -3 12 -12 9
-20 -7 -20 0 -17 21 8 15 17 15 20 3 15 -9 -3 -19 -1 -23 5 -5 7 -2 8 6 3 9
-6 12 -4 8 7 -4 8 0 15 8 15 7 0 11 -4 9 -8 -8 -12 21 -18 36 -7 11 8 10 9 -5
4 -15 -5 -17 -3 -11 16 3 13 7 28 7 35 1 7 5 10 10 7 5 -3 6 -9 3 -14 -3 -4 3
-7 12 -6 10 2 19 10 21 19 2 12 -1 15 -12 11 -9 -3 -16 -1 -16 6 0 6 4 9 9 5
5 -3 16 2 25 11 9 8 20 12 26 9 5 -3 10 0 10 7 1 9 5 7 14 -5 12 -16 14 -16
20 -2 3 9 10 14 15 10 5 -3 13 0 17 6 4 7 3 10 -2 7 -5 -3 -18 4 -28 15 -19
20 -19 20 0 13 10 -5 25 -9 32 -9 6 0 12 -5 12 -10 0 -6 8 0 19 11 10 12 23
22 29 22 6 0 14 5 18 11 4 8 0 9 -15 4 -24 -7 -29 10 -5 19 8 3 12 10 9 16 -3
5 -1 10 5 10 7 0 10 -7 6 -15 -9 -24 10 -17 28 10 9 14 21 23 26 20 5 -3 17 6
26 20 9 14 20 25 25 25 5 0 -3 -13 -17 -30 -15 -16 -31 -27 -37 -23 -6 4 -7 1
-2 -7 6 -9 4 -11 -5 -5 -9 5 -11 4 -6 -4 6 -9 11 -9 21 -1 7 6 15 7 17 3 3 -4
4 -3 2 3 -1 6 6 18 17 28 23 19 33 21 23 4 -4 -7 3 -4 15 7 13 11 25 19 27 18
2 -2 4 -1 4 2 0 3 0 12 0 21 0 8 -5 12 -10 9 -6 -4 -7 -11 -4 -17 5 -7 2 -8
-6 -3 -9 6 -11 4 -5 -6 7 -12 6 -12 -6 -1 -12 11 -11 15 6 25 11 6 24 12 28
12 4 0 12 7 17 15 5 8 10 10 10 5 0 -6 -5 -16 -12 -23 -16 -16 4 -16 21 1 11
10 13 9 8 -5 -10 -28 2 -21 13 8 6 14 14 22 20 19 5 -3 7 0 4 8 -6 16 13 34
39 36 42 3 48 5 43 18 -8 19 2 16 13 -5 10 -18 5 -20 -61 -23 -10 0 -20 -4
-23 -10 -4 -5 2 -6 12 -2 15 5 16 3 6 -8 -7 -7 -13 -17 -13 -22 0 -5 8 1 18
12 19 25 53 34 64 17 5 -8 8 -7 8 2 0 7 4 11 8 8 5 -3 9 1 9 9 0 8 -5 11 -11
8 -6 -3 -8 -3 -4 2 4 4 2 15 -5 24 -10 14 -10 14 4 4 12 -10 18 -10 29 0 10 9
10 7 0 -7 -13 -17 -13 -19 0 -14 8 3 23 1 33 -4 13 -7 19 -4 26 14 4 13 12 22
17 21 16 -5 42 7 47 21 3 7 -1 13 -8 13 -8 0 -13 -5 -12 -11 1 -6 -7 -11 -18
-11 -11 0 -24 -9 -30 -21 -5 -11 -16 -19 -23 -16 -18 6 -14 19 8 25 14 4 18
11 14 24 -5 15 -4 15 5 3 9 -13 11 -13 11 0 0 12 2 13 9 1 7 -11 10 -9 16 9 6
18 9 20 16 9 5 -8 9 -10 9 -5 0 5 7 2 17 -5 13 -11 17 -11 21 -1 3 10 7 10 20
0 15 -12 16 -11 3 5 -10 13 -17 15 -27 6 -18 -15 -18 -2 0 17 8 7 16 9 18 4 2
-5 15 -11 31 -12 15 -1 27 -7 27 -12 0 -5 3 -7 6 -3 3 3 1 14 -5 24 -7 12 -10
14 -11 4 0 -8 -3 -12 -6 -8 -3 3 -3 11 1 17 5 8 12 7 23 -3 19 -16 59 -20 43
-4 -11 11 -3 39 10 31 5 -3 6 -10 3 -16 -4 -7 -2 -8 4 -4 16 10 15 12 -8 34
-19 18 -19 18 4 17 13 0 31 -6 40 -14 15 -12 17 -12 14 0 -2 8 -10 20 -18 27
-13 11 -11 11 8 2 17 -8 27 -8 42 3 11 8 17 17 12 21 -4 4 -2 7 3 6 22 -5 45
1 45 11 0 5 -4 8 -8 5 -4 -2 -8 6 -8 19 0 13 4 21 8 19 5 -3 6 -9 4 -13 -3 -4
1 -8 9 -8 8 0 13 4 12 8 -1 4 7 15 18 24 19 16 18 16 -7 1 -27 -16 -28 -15
-28 3 0 10 6 18 13 17 6 0 13 4 14 9 2 6 -8 10 -20 9 -14 -1 -24 5 -24 12 0 9
4 11 12 4 12 -10 25 -4 25 12 0 5 -5 6 -11 2 -8 -4 -8 -1 -1 12 10 20 9 46 -2
79 -4 11 0 7 9 -8 13 -23 35 -30 35 -11 0 3 -4 2 -10 -1 -21 -13 -9 8 16 27
14 11 22 23 19 26 -3 4 -10 0 -15 -8 -5 -7 -16 -15 -24 -16 -9 -1 -14 2 -10 7
3 5 9 7 13 5 4 -3 13 4 20 16 7 11 8 17 3 14 -5 -3 -12 3 -15 14 -6 24 -1 29
22 23 13 -3 17 -12 15 -26 -4 -21 -4 -21 5 -2 10 23 5 35 -15 35 -15 0 -19 12
-7 24 10 10 12 56 1 50 -10 -6 -11 10 -1 20 12 11 12 37 0 29 -6 -4 -8 0 -4 9
3 9 1 20 -5 26 -6 6 -6 12 3 17 7 5 10 4 6 -2 -3 -5 0 -10 8 -10 13 0 13 3 1
16 -17 20 -17 51 0 51 7 0 10 -8 7 -19 -3 -10 -1 -21 4 -24 5 -3 8 7 7 21 0
17 -7 28 -17 30 -10 2 -14 8 -11 14 4 6 2 8 -4 4 -6 -3 -9 -15 -7 -26 2 -12
-6 -24 -23 -35 -26 -16 -26 -16 -7 2 24 21 26 40 5 54 -12 9 -12 10 4 5 15 -5
17 -2 13 14 -3 11 -1 23 4 26 5 3 5 13 -1 23 -5 10 -6 22 -2 26 4 5 0 6 -9 3
-9 -4 -16 -1 -16 7 0 10 5 11 19 4 10 -6 16 -13 14 -17 -3 -5 5 -8 17 -9 12 0
16 1 9 4 -6 3 -9 10 -6 15 4 7 2 8 -4 4 -19 -11 -14 15 6 31 15 13 15 13 -5 4
-12 -6 -30 -11 -40 -11 -13 1 -11 5 10 16 29 16 37 27 12 18 -11 -4 -13 -2
-10 9 7 17 -21 31 -31 15 -4 -6 1 -17 11 -24 16 -12 16 -13 -3 -11 -15 1 -19
7 -17 27 2 14 -4 34 -13 44 -10 11 -12 16 -6 13 15 -8 26 31 12 39 -6 4 -5 10
3 15 9 6 -1 7 -26 4 -28 -3 -35 -2 -25 5 10 6 11 10 3 10 -7 0 -13 5 -13 10 0
7 7 7 21 0 11 -7 23 -9 27 -6 3 3 0 6 -7 6 -7 0 -9 4 -6 10 4 6 -1 7 -11 3
-12 -4 -15 -3 -10 6 5 7 2 10 -6 9 -7 -2 -12 3 -10 10 1 8 -1 11 -6 8 -5 -3
-20 6 -35 20 -14 13 -30 24 -34 24 -4 -1 2 -9 14 -19 19 -16 20 -20 7 -25 -8
-3 -13 -2 -10 3 3 5 -1 14 -9 21 -12 10 -13 16 -3 29 7 9 8 13 4 9 -14 -12
-36 11 -29 30 4 14 3 14 -5 3 -6 -8 -21 -16 -34 -17 -13 -2 -17 0 -10 2 6 3
12 10 12 15 0 6 -5 7 -11 3 -7 -4 -7 1 1 16 7 13 8 20 2 16 -6 -3 -17 3 -25
14 -7 11 -17 17 -20 13 -4 -3 -7 -1 -7 6 0 7 -7 19 -15 28 -8 8 -12 19 -9 25
4 7 2 8 -4 4 -7 -4 -12 -2 -12 5 0 7 -3 10 -6 6 -3 -3 3 -19 15 -35 12 -17 21
-37 21 -46 0 -10 6 -13 18 -10 14 5 14 4 2 -4 -18 -14 -30 -6 -30 19 0 13 -4
18 -12 13 -6 -4 -8 -3 -5 3 9 15 -25 51 -43 45 -8 -3 -4 4 9 15 19 15 21 22
11 28 -9 5 -11 4 -6 -3 6 -11 -6 -16 -19 -9 -2 1 -10 -6 -17 -16 -13 -18 -14
-17 -14 2 0 11 4 17 8 15 4 -3 8 1 8 8 0 10 2 10 9 -1 7 -10 9 -6 8 13 -2 20
-4 23 -12 13 -19 -26 -40 -26 -41 0 -2 23 -1 23 13 6 13 -17 13 -16 3 5 -6 12
-8 28 -5 35 4 6 0 4 -8 -5 -15 -19 -32 -25 -22 -8 3 6 2 10 -4 10 -5 0 -12 -6
-14 -12 -4 -10 -6 -10 -6 0 -1 7 -5 11 -9 8 -5 -3 -9 1 -9 9 0 8 4 12 9 9 16
-10 8 9 -9 22 -14 9 -21 10 -33 1 -13 -10 -13 -10 -1 5 9 13 18 15 30 8 13 -6
18 -5 18 5 0 8 -4 12 -8 9 -14 -8 -59 27 -52 40 4 6 -1 5 -10 -3 -9 -7 -17
-10 -17 -5 0 4 -5 3 -11 -3 -9 -9 -17 -6 -31 12 -11 14 -24 24 -31 22 -17 -3
-15 46 3 61 13 11 12 11 -7 3 -27 -14 -36 -14 -28 -1 3 6 1 10 -4 10 -17 0
-13 -18 7 -29 9 -6 13 -10 7 -11 -29 0 -48 41 -32 68 5 7 5 11 0 10 -16 -4
-53 23 -54 40 0 13 -2 14 -6 3 -3 -9 5 -23 21 -36 23 -18 23 -21 7 -21 -11 0
-19 5 -18 11 1 5 -3 9 -9 8 -6 -1 -11 5 -12 13 -1 7 -3 20 -4 27 -1 7 -10 14
-21 14 -10 1 -27 9 -36 17 -10 9 -21 13 -26 9 -4 -5 -5 -3 -1 4 3 6 2 14 -3
18 -6 3 -7 13 -4 23 5 14 3 15 -8 5 -19 -19 -33 -16 -14 3 11 11 13 20 5 28
-5 7 -7 17 -3 22 4 5 1 3 -7 -3 -22 -20 -32 -15 -19 8 7 13 7 19 1 15 -6 -3
-13 -2 -17 4 -3 5 -16 10 -29 10 -26 0 -104 80 -100 104 1 10 -3 13 -14 8 -15
-5 -16 -4 -2 13 9 11 10 16 3 11 -12 -7 -18 5 -14 27 1 5 -3 6 -8 3 -5 -4 -11
-1 -13 6 -3 8 -7 6 -11 -5 -4 -10 -2 -16 4 -14 6 1 13 -9 15 -23 l5 -25 -16
23 c-9 12 -20 20 -24 18 -4 -3 -8 1 -8 9 0 8 4 12 9 9 4 -3 8 0 8 5 0 6 -5 11
-11 11 -5 0 -7 6 -3 13 6 9 5 9 -7 0 -13 -11 -18 -9 -29 12 -11 20 -11 27 0
40 8 9 8 15 2 15 -6 0 -14 -9 -17 -20 -6 -20 -7 -20 -27 5 -11 14 -24 23 -29
20 -12 -8 2 28 15 38 7 6 4 7 -6 3 -10 -3 -18 -1 -18 4 0 5 8 14 18 19 9 6 13
10 7 10 -19 0 -45 -25 -35 -35 6 -6 5 -15 -1 -24 -9 -13 -10 -12 -6 2 3 9 1
19 -6 21 -9 3 -8 8 2 20 15 19 8 22 -20 7 -15 -8 -19 -8 -17 2 2 8 -5 12 -17
10 -13 -2 -16 0 -8 5 6 5 11 24 11 43 -1 19 -3 29 -5 22 -3 -6 -9 -10 -13 -7
-5 3 -6 13 -3 22 4 11 3 14 -6 9 -7 -5 -10 -14 -7 -21 2 -7 -1 -16 -8 -18 -9
-4 -12 3 -10 19 2 19 -1 22 -14 16 -28 -14 -47 -8 -44 13 3 16 2 17 -12 6 -9
-8 -16 -9 -16 -3 0 18 29 21 40 4 11 -16 11 -16 6 0 -3 9 -2 19 2 21 4 2 1 2
-5 1 -7 -2 -13 4 -14 14 0 15 -1 15 -7 1 -4 -10 -15 -14 -27 -12 -11 2 -25 5
-31 5 -13 1 -13 16 0 36 4 7 5 16 2 19 -3 4 -6 1 -6 -5 0 -7 -5 -12 -11 -12
-6 0 -8 7 -5 16 7 19 -32 54 -51 47 -7 -3 -13 0 -13 6 0 6 5 11 10 11 6 0 10
4 10 8 0 5 -7 9 -15 9 -8 0 -12 -4 -9 -9 3 -4 -2 -8 -10 -8 -8 0 -18 5 -22 12
-4 7 -3 8 4 4 7 -4 12 -1 12 8 0 12 -8 15 -32 12 -28 -3 -30 -2 -15 9 16 12
16 14 2 29 -9 9 -13 16 -9 16 3 0 1 7 -6 15 -7 8 -18 15 -24 15 -6 0 -2 -7 8
-15 11 -8 16 -15 12 -15 -5 0 -3 -7 4 -15 8 -9 8 -15 2 -15 -6 0 -14 9 -17 20
-4 11 -11 18 -16 14 -5 -3 -8 -1 -7 4 2 5 -7 18 -20 28 -13 11 -24 29 -25 41
0 12 -4 20 -8 17 -4 -2 -14 2 -22 10 -8 8 -18 12 -22 8 -5 -4 -4 0 0 8 25 43
-2 63 -33 24 -12 -16 -14 -16 -8 -1 3 9 9 25 12 35 6 14 4 14 -8 -2 -19 -25
-49 -30 -40 -8 4 10 7 12 10 4 2 -7 8 -10 13 -6 13 8 11 24 -3 24 -25 1 -50
29 -50 56 0 17 -3 22 -9 13 -4 -7 -6 -16 -4 -19 2 -4 -3 -7 -11 -7 -10 0 -11
4 -4 11 15 15 12 26 -6 26 -8 0 -13 -4 -9 -9 3 -5 1 -12 -4 -16 -6 -3 -8 4 -6
15 3 15 -3 24 -22 31 -14 5 -23 12 -20 16 4 3 18 -2 32 -11 14 -9 25 -12 25
-7 0 5 -9 12 -20 16 -11 3 -19 9 -19 13 4 28 -3 32 -21 11 -10 -13 -19 -18
-20 -11 0 6 6 12 13 12 9 0 9 2 -1 8 -7 5 -15 22 -18 38 -3 16 -8 31 -11 34
-3 3 -3 -5 0 -17 3 -16 1 -23 -9 -23 -8 0 -14 6 -13 13 3 24 -1 37 -12 37 -8
0 -8 -4 0 -14 9 -10 7 -17 -6 -27 -16 -13 -17 -12 -4 4 12 16 9 22 -12 18 -5
-1 -6 3 -2 9 3 5 0 13 -8 16 -8 3 -17 18 -21 35 -3 16 -11 29 -17 29 -8 0 -8
-4 1 -15 7 -9 10 -18 6 -22 -3 -3 -6 -1 -6 7 0 10 -4 10 -17 -1 -16 -12 -17
-12 -7 1 15 21 12 35 -13 63 -13 16 -18 28 -12 34 6 6 4 10 -5 10 -8 0 -13 -4
-10 -9 3 -4 1 -8 -3 -8 -5 0 -14 9 -21 20 -8 13 -8 20 -1 20 5 0 7 5 3 11 -5
8 -9 8 -14 -1 -4 -7 -13 -9 -19 -6 -6 4 -8 12 -5 18 5 8 1 9 -10 5 -14 -6 -16
-3 -11 16 3 12 3 18 -2 12 -4 -5 -17 -11 -28 -13 -15 -2 -13 2 10 17 32 22 28
28 -7 10 -18 -9 -19 -8 -13 10 7 22 -9 29 -21 9 -5 -7 -3 -8 6 -3 9 5 11 4 6
-3 -5 -9 -14 -7 -31 5 -13 10 -19 20 -14 21 5 2 9 10 9 18 0 9 5 12 12 8 7 -4
8 -3 4 5 -4 6 -12 9 -17 6 -5 -4 -9 -1 -9 4 0 16 -182 14 -199 -1 -8 -7 -11
-8 -8 -2 6 10 -36 15 -61 6z m266 -27 c-3 -3 -9 2 -12 12 -6 14 -5 15 5 6 7
-7 10 -15 7 -18z m86 -111 c3 -8 2 -12 -4 -9 -6 3 -10 10 -10 16 0 14 7 11 14
-7z m88 -64 c29 -27 47 -50 41 -50 -7 0 -13 6 -13 13 0 8 -4 7 -11 -3 -9 -13
-10 -12 -5 2 6 19 -25 43 -39 30 -5 -4 -5 -2 -2 5 8 14 -21 46 -34 38 -5 -4
-9 -1 -9 4 0 21 19 11 72 -39z m-3185 25 c0 -8 -4 -12 -9 -9 -5 3 -6 10 -3 15
9 13 12 11 12 -6z m50 -7 c-3 -8 -6 -5 -6 6 -1 11 2 17 5 13 3 -3 4 -12 1 -19z
m34 5 c13 -16 12 -17 -3 -4 -10 7 -18 15 -18 17 0 8 8 3 21 -13z m59 -6 c0 -7
-4 -6 -10 3 -8 12 -10 12 -10 1 0 -8 -3 -12 -6 -8 -9 9 6 28 17 22 5 -4 9 -12
9 -18z m2274 4 c3 -5 0 -14 -8 -20 -10 -9 -15 -8 -19 3 -4 11 -1 13 10 9 11
-4 14 -2 9 5 -4 7 -5 12 -2 12 3 0 7 -4 10 -9z m-2552 -16 c-2 -4 2 -12 10
-17 9 -7 8 -8 -6 -4 -11 4 -23 1 -27 -5 -4 -7 -6 -1 -6 13 1 16 7 25 17 23 8
-1 13 -5 12 -10z m2528 -30 c0 -2 -10 -9 -22 -15 -22 -11 -22 -10 -4 4 21 17
26 19 26 11z m-2720 -25 c-7 -5 -9 -14 -5 -21 6 -11 5 -11 -5 -2 -15 14 -5 47
11 37 8 -5 8 -9 -1 -14z m725 -59 c1 -11 -4 -17 -11 -14 -7 2 -11 12 -9 21 2
9 4 19 4 21 2 11 15 -12 16 -28z m-1065 -111 c0 -7 -46 -7 -54 0 -2 3 9 6 25
6 16 1 29 -2 29 -6z m1253 -84 c3 3 4 -1 3 -10 -1 -8 -5 -18 -9 -21 -4 -3 -5
-2 -2 2 3 3 -3 16 -12 27 -14 15 -14 18 -2 8 9 -6 18 -9 22 -6z m1267 -61 c-5
-7 -7 -15 -3 -19 4 -4 0 -4 -9 -1 -20 8 -14 32 7 32 10 0 12 -4 5 -12z m-2823
-13 c0 -10 -7 -19 -13 -19 -9 0 -10 5 -3 19 5 10 12 18 14 18 2 0 3 -8 2 -18z
m4562 -31 c-15 -5 -22 6 -14 19 6 9 10 9 16 -1 5 -8 4 -15 -2 -18z m-1831 -42
c-10 -5 -15 -17 -12 -27 5 -14 3 -14 -6 2 -10 15 -9 20 1 27 8 5 19 9 24 9 6
-1 2 -5 -7 -11z m1882 -14 c0 -2 -6 -5 -13 -8 -8 -3 -14 1 -14 8 0 7 6 11 14
8 7 -3 13 -6 13 -8z m-4740 -29 c0 -2 -7 -7 -16 -10 -8 -3 -12 -2 -9 4 6 10
25 14 25 6z m-91 -46 c-7 -5 -19 -6 -27 -3 -12 5 -12 2 -2 -16 6 -13 10 -25 7
-27 -2 -2 -9 7 -15 21 -9 20 -8 26 5 34 21 11 51 2 32 -9z m1866 0 c3 -5 1
-10 -4 -10 -6 0 -11 5 -11 10 0 6 2 10 4 10 3 0 8 -4 11 -10z m-34 -23 c-10
-9 -11 -8 -5 6 3 10 9 15 12 12 3 -3 0 -11 -7 -18z m-1941 -28 c13 -9 13 -10
0 -6 -8 2 -24 0 -35 -6 -18 -9 -19 -9 -6 6 16 20 21 20 41 6z m1987 -25 c-3
-4 2 -18 13 -32 20 -25 19 -42 -3 -42 -7 0 -6 4 3 10 13 8 12 10 -2 10 -10 0
-19 5 -19 10 -1 6 -2 16 -3 23 -3 14 3 27 11 27 4 0 3 -3 0 -6z m3176 -80 c-3
-8 -7 -14 -10 -14 -3 0 -2 7 1 15 3 9 -1 18 -9 21 -8 4 -15 11 -15 17 0 5 9 2
19 -7 11 -10 17 -24 14 -32z m-5349 -21 c4 -11 1 -11 -14 -3 -24 13 -25 17 -5
17 8 0 16 -6 19 -14z m2956 -43 c0 -5 -2 -10 -4 -10 -3 0 -8 5 -11 10 -3 6 -1
10 4 10 6 0 11 -4 11 -10z m-46 -45 c-4 -8 -11 -15 -16 -15 -6 0 -5 6 2 15 7
8 14 15 16 15 2 0 1 -7 -2 -15z m2629 -51 c-4 -12 -8 -13 -14 -3 -9 15 -2 32
11 24 5 -3 6 -13 3 -21z m-5743 2 c0 -2 -7 -7 -16 -10 -8 -3 -12 -2 -9 4 6 10
25 14 25 6z m3080 -7 c0 -4 -9 -7 -19 -6 -11 0 -18 4 -16 7 6 9 35 8 35 -1z
m-3350 -113 c0 -2 -8 -10 -17 -17 -16 -13 -17 -12 -4 4 13 16 21 21 21 13z
m2795 -55 c-3 -5 -1 -12 5 -16 16 -10 12 -22 -8 -27 -11 -3 -19 0 -19 7 0 8 7
11 16 7 13 -5 14 -3 4 10 -7 8 -10 18 -6 21 9 10 15 8 8 -2z m435 -5 c0 -3 -4
-8 -10 -11 -5 -3 -10 -1 -10 4 0 6 5 11 10 11 6 0 10 -2 10 -4z m-406 -84 c2
-4 -5 -9 -17 -9 -17 -2 -19 0 -7 7 18 12 18 12 24 2z m321 -42 c3 -6 -1 -7 -9
-4 -18 7 -21 14 -7 14 6 0 13 -4 16 -10z m3279 -88 c2 -4 0 -14 -6 -22 -8 -12
-9 -12 -4 2 3 10 -1 18 -12 21 -16 4 -16 5 0 6 9 0 19 -3 22 -7z m41 -41 c3
-5 2 -12 -3 -15 -5 -3 -9 1 -9 9 0 17 3 19 12 6z m-3561 -17 c3 -8 2 -12 -4
-9 -6 3 -10 10 -10 16 0 14 7 11 14 -7z m81 -23 c3 -5 2 -12 -3 -15 -5 -3 -9
1 -9 9 0 17 3 19 12 6z m-3360 -31 c-3 -5 -12 -10 -18 -10 -7 0 -6 4 3 10 19
12 23 12 15 0z m-35 -10 c0 -5 -2 -10 -4 -10 -3 0 -8 5 -11 10 -3 6 -1 10 4
10 6 0 11 -4 11 -10z m79 -37 c-3 -19 2 -27 10 -15 7 11 9 11 14 -1 3 -8 0
-14 -6 -13 -21 3 -38 17 -32 27 7 11 15 12 14 2z m593 -21 c-7 -2 -9 -8 -6
-13 3 -6 10 -6 17 -1 7 5 21 6 32 1 17 -6 17 -8 3 -8 -20 -1 -25 -21 -5 -21 7
0 18 -10 26 -22 13 -22 13 -23 -6 -5 -25 22 -40 22 -22 0 8 -10 9 -14 2 -10
-7 4 -18 -2 -28 -15 l-16 -23 4 23 c2 12 8 27 15 34 8 8 5 16 -13 30 -23 18
-25 55 -2 41 8 -5 7 -8 -1 -11z m6302 10 c3 -5 -1 -9 -9 -9 -8 0 -12 4 -9 9 3
4 7 8 9 8 2 0 6 -4 9 -8z m-6398 -27 c-3 -8 -1 -15 4 -15 6 0 10 5 10 12 0 6
3 8 6 5 4 -4 1 -14 -6 -22 -12 -15 -14 -15 -22 -1 -5 9 -6 21 -3 26 10 15 18
12 11 -5z m-91 -47 c13 -2 16 -6 9 -11 -7 -4 -20 1 -31 11 -10 9 -14 14 -8 11
5 -4 19 -9 30 -11z m-109 -3 c-3 -20 -16 -31 -16 -13 0 13 8 28 16 28 1 0 1
-7 0 -15z m6664 5 c0 -5 -5 -10 -11 -10 -5 0 -7 5 -4 10 3 6 8 10 11 10 2 0 4
-4 4 -10z m197 -135 c1 0 -8 -7 -20 -14 -20 -13 -21 -13 -9 2 9 10 10 17 2 22
-5 3 -10 2 -10 -3 0 -5 -7 -9 -16 -9 -15 0 -14 2 1 13 14 11 22 11 34 2 9 -7
17 -13 18 -13z m-6677 -54 c7 -15 7 -22 -2 -27 -7 -4 -10 -4 -6 1 4 4 3 16 -3
26 -5 11 -7 19 -5 19 3 0 10 -9 16 -19z m703 -26 c-3 -9 -8 -14 -10 -11 -3 3
-2 9 2 15 9 16 15 13 8 -4z m52 -23 c-3 -3 -11 0 -18 7 -9 10 -8 11 6 5 10 -3
15 -9 12 -12z m-385 -128 c0 -8 -19 -13 -24 -6 -3 5 1 9 9 9 8 0 15 -2 15 -3z
m973 -47 c7 -6 19 -21 27 -32 14 -19 14 -19 -2 -6 -11 8 -18 9 -18 3 0 -6 7
-15 15 -19 12 -7 11 -11 -6 -21 -12 -8 -18 -9 -15 -3 4 5 2 12 -2 15 -5 3 -8
15 -7 28 1 13 -2 29 -8 36 -12 16 1 16 16 -1z m5597 9 c0 -3 -4 -8 -10 -11 -5
-3 -10 -1 -10 4 0 6 5 11 10 11 6 0 10 -2 10 -4z m60 -64 c0 -5 -7 -9 -15 -9
-8 0 -15 4 -15 9 0 4 7 8 15 8 8 0 15 -4 15 -8z m-5820 -56 c0 -3 -4 -8 -10
-11 -5 -3 -10 -1 -10 4 0 6 5 11 10 11 6 0 10 -2 10 -4z m187 -2 c-3 -3 -12
-4 -19 -1 -8 3 -5 6 6 6 11 1 17 -2 13 -5z m5719 -16 c10 -12 13 -18 5 -13
-11 6 -13 4 -8 -11 7 -18 6 -18 -9 1 -8 11 -20 19 -26 17 -7 -2 -6 3 2 12 16
20 13 20 36 -6z m-6316 -45 c0 5 5 5 10 2 6 -4 8 -11 4 -16 -7 -12 -34 8 -34
25 0 6 5 4 10 -4 5 -8 10 -11 10 -7z m223 -23 c-3 -12 -8 -19 -11 -16 -5 6 5
36 12 36 2 0 2 -9 -1 -20z m6162 -18 c-3 -3 -12 -7 -19 -8 -12 -2 -13 4 -7 35
1 2 8 -2 16 -9 9 -7 13 -15 10 -18z m-5823 -121 c8 11 9 10 4 -3 -6 -20 10
-34 17 -16 3 7 4 3 4 -9 l-1 -23 -23 22 c-13 12 -23 26 -22 32 0 6 3 5 6 -3 5
-11 7 -11 15 0z m5868 -79 c0 -5 -7 -9 -15 -9 -8 0 -12 4 -9 9 3 4 9 8 15 8 5
0 9 -4 9 -8z m0 -152 c0 -5 -5 -10 -11 -10 -5 0 -7 5 -4 10 3 6 8 10 11 10 2
0 4 -4 4 -10z m-5422 -7 c-1 -5 3 -19 10 -33 13 -24 12 -24 -3 -5 -9 11 -20
19 -25 18 -5 -2 -7 4 -4 12 6 15 26 22 22 8z m5437 -13 c-4 -6 -1 -17 5 -25 7
-8 10 -15 6 -15 -3 0 -9 -1 -13 -2 -3 -2 -7 6 -9 16 -3 20 3 36 12 36 3 0 2
-5 -1 -10z m-5441 -36 c5 -14 4 -15 -9 -4 -17 14 -19 20 -6 20 5 0 12 -7 15
-16z m5453 -59 c0 -23 -33 -49 -43 -34 -4 7 -3 10 3 6 12 -7 32 12 30 28 -2
16 -21 33 -31 27 -5 -3 -6 0 -2 7 10 15 43 -11 43 -34z m-27 -5 c0 -5 -2 -10
-4 -10 -3 0 -8 5 -11 10 -3 6 -1 10 4 10 6 0 11 -4 11 -10z m0 -88 c0 -5 -7
-9 -15 -9 -8 0 -12 4 -9 9 3 4 9 8 15 8 5 0 9 -4 9 -8z m-43 -77 c0 -8 -4 -12
-9 -9 -5 3 -6 10 -3 15 9 13 12 11 12 -6z m-5257 -12 c0 -3 -7 -3 -15 1 -10 3
-15 -1 -15 -14 0 -10 -4 -22 -10 -25 -6 -4 -7 1 -3 12 6 16 5 17 -13 3 -13
-10 -12 -6 5 12 19 22 51 29 51 11z m-170 -210 c0 -3 -7 -3 -15 0 -8 4 -17 2
-20 -3 -4 -6 -1 -10 6 -10 7 0 10 -3 6 -6 -3 -3 -11 -3 -17 1 -16 10 7 35 26
28 8 -3 14 -7 14 -10z m5255 -62 c4 -22 -10 -30 -18 -8 -4 13 3 40 10 34 2 -2
5 -14 8 -26z m-5525 -219 c0 -4 -10 -9 -22 -9 -18 -2 -20 0 -8 7 18 12 30 13
30 2z m-44 -24 c4 -7 3 -8 -4 -4 -8 4 -12 0 -12 -11 0 -15 -2 -16 -10 -3 -6 9
-5 17 3 22 15 10 15 10 23 -4z m-116 -105 c0 -2 -8 -3 -17 -1 -13 2 -17 -3
-15 -17 2 -16 1 -17 -7 -5 -12 18 5 41 25 33 8 -3 14 -7 14 -10z m4989 -9
c-11 -13 -34 -13 -46 1 -4 4 -3 5 4 1 6 -3 14 -3 17 2 3 5 12 9 20 9 11 0 13
-4 5 -13z m-96 -19 c-3 -9 -8 -14 -10 -11 -3 3 -2 9 2 15 9 16 15 13 8 -4z
m37 -20 c0 -12 -19 -12 -23 0 -4 9 -1 12 9 8 7 -3 14 -7 14 -8z m-5103 -77 c2
-17 0 -19 -7 -8 -5 8 -6 18 -4 22 8 12 10 10 11 -14z m-162 -88 c-3 -5 -1 -10
6 -10 7 0 10 -2 7 -5 -3 -3 -13 -2 -22 1 -14 5 -15 9 -4 15 17 11 20 11 13 -1z
m-54 -67 c-12 -20 -14 -14 -5 12 4 9 9 14 11 11 3 -2 0 -13 -6 -23z m-165 -84
c19 -22 19 -22 -3 -8 -13 8 -23 17 -23 21 0 12 6 9 26 -13z m-83 -13 c4 -10 1
-13 -9 -9 -7 3 -14 -1 -14 -8 0 -7 -3 -9 -6 -6 -4 4 -1 13 6 22 15 19 17 19
23 1z m42 -16 c3 -6 -1 -7 -9 -4 -18 7 -21 14 -7 14 6 0 13 -4 16 -10z m5591
-83 c5 -9 4 -9 -7 1 -17 15 -43 16 -33 0 4 -7 3 -8 -4 -4 -6 4 -9 13 -6 21 7
16 37 5 50 -18z m27 27 c3 -3 3 -13 0 -21 -5 -12 -7 -12 -14 -1 -15 23 -4 40
14 22z m47 -4 c0 -5 -8 -10 -17 -10 -15 0 -16 2 -3 10 19 12 20 12 20 0z m68
-10 c-7 -10 -14 -17 -17 -15 -4 4 18 35 25 35 2 0 -1 -9 -8 -20z m102 -1 c0
-8 5 -7 15 1 13 11 14 10 9 -4 -8 -20 -18 -20 -34 -1 -9 10 -9 15 -1 15 6 0
11 -5 11 -11z m-840 -34 c-7 -9 -8 -15 -2 -15 5 0 17 -12 27 -26 14 -22 15
-28 4 -35 -8 -5 -18 -8 -24 -8 -5 0 -4 3 3 6 10 4 5 11 -15 25 -15 11 -20 18
-11 14 10 -3 20 -1 23 4 4 6 -1 10 -9 10 -18 0 -19 2 -10 24 3 9 11 16 16 16
6 0 5 -6 -2 -15z m1132 -43 c-7 -2 -9 -9 -6 -14 4 -7 2 -8 -4 -4 -6 4 -9 13
-6 21 4 8 11 12 17 8 8 -5 7 -8 -1 -11z m-1148 -34 c-3 -4 -9 -8 -15 -8 -5 0
-9 4 -9 8 0 5 7 9 15 9 8 0 12 -4 9 -9z m1246 -18 c6 -11 7 -20 2 -20 -6 0
-12 9 -15 20 -3 11 -3 20 -1 20 2 0 8 -9 14 -20z m36 -34 c0 -20 -3 -22 -17
-13 -17 11 -14 17 17 37 0 0 0 -11 0 -24z m19 -45 c-3 -6 -11 -11 -16 -11 -5
0 -4 6 3 14 14 16 24 13 13 -3z m55 -42 c0 -14 -17 -10 -23 5 -4 10 -1 13 9 9
7 -3 14 -9 14 -14z m-6700 1 c0 -5 -7 -7 -15 -4 -8 4 -15 8 -15 10 0 2 7 4 15
4 8 0 15 -4 15 -10z m-10 -60 c0 -5 -5 -10 -11 -10 -5 0 -7 5 -4 10 3 6 8 10
11 10 2 0 4 -4 4 -10z m10 -40 c0 -5 -5 -10 -11 -10 -5 0 -7 5 -4 10 3 6 8 10
11 10 2 0 4 -4 4 -10z m-33 -168 c-10 -2 -15 -8 -12 -13 4 -5 1 -9 -5 -9 -6 0
-8 -6 -4 -12 4 -7 3 -10 -1 -5 -5 4 -9 20 -10 36 -1 27 0 28 24 17 19 -8 21
-12 8 -14z m6 -37 c-3 -9 -8 -14 -10 -11 -3 3 -2 9 2 15 9 16 15 13 8 -4z
m-40 -95 c-3 -12 -8 -19 -11 -16 -5 6 5 36 12 36 2 0 2 -9 -1 -20z m-13 -115
c0 -8 -2 -15 -4 -15 -2 0 -6 7 -10 15 -3 8 -1 15 4 15 6 0 10 -7 10 -15z
m6901 -42 c13 -16 12 -17 -3 -4 -10 7 -18 15 -18 17 0 8 8 3 21 -13z m-6674
-295 c-3 -8 -6 -5 -6 6 -1 11 2 17 5 13 3 -3 4 -12 1 -19z m18 -57 c3 -11 14
-21 23 -23 12 -2 13 -6 5 -11 -7 -4 -20 5 -33 23 -12 16 -17 30 -11 30 5 0 12
-9 16 -19z m60 -51 c-3 -5 -1 -10 5 -10 6 0 8 -5 4 -11 -4 -8 -9 -7 -15 2 -7
12 -3 29 7 29 3 0 2 -4 -1 -10z m6609 -9 c3 -5 -1 -11 -9 -15 -8 -3 -17 0 -21
6 -4 7 -3 8 4 4 7 -4 12 -2 12 3 0 13 7 14 14 2z m-1 -54 c4 3 7 4 7 1 0 -3
-8 -12 -17 -19 -11 -10 -14 -10 -9 -1 4 6 2 12 -3 12 -6 0 -11 5 -11 11 0 8 4
9 13 0 8 -6 17 -8 20 -4z m-6483 -72 c-10 -12 -10 -15 0 -15 8 0 11 -3 7 -6
-3 -3 -11 -3 -17 1 -8 5 -8 11 1 21 6 8 14 14 16 14 3 0 0 -7 -7 -15z m6470
-30 c0 -8 -4 -15 -10 -15 -5 0 -7 7 -4 15 4 8 8 15 10 15 2 0 4 -7 4 -15z
m-6406 -37 c-3 -4 -9 -8 -15 -8 -5 0 -9 4 -9 8 0 5 7 9 15 9 8 0 12 -4 9 -9z
m6425 -51 c8 -11 6 -13 -9 -12 -11 1 -23 5 -27 10 -5 4 -2 5 5 1 6 -4 12 -2
12 3 0 15 5 14 19 -2z m-6345 -33 c3 -8 2 -12 -4 -9 -6 3 -10 10 -10 16 0 14
7 11 14 -7z m4311 2 c-12 -8 -15 -18 -10 -27 6 -11 5 -12 -5 -2 -11 10 -17 9
-32 -4 -10 -9 -18 -11 -18 -6 0 6 7 14 16 17 8 3 12 10 9 16 -4 6 1 7 11 3 10
-4 15 -2 11 3 -3 6 4 11 15 11 19 2 19 1 3 -11z m51 -12 c1 -9 0 -13 -4 -10
-3 4 -7 14 -8 22 -1 9 0 13 4 10 3 -4 7 -14 8 -22z m1977 -7 c4 3 7 4 7 1 0
-3 -8 -12 -17 -19 -11 -10 -14 -10 -9 -1 4 6 2 12 -3 12 -6 0 -11 5 -11 11 0
8 4 9 13 0 8 -6 17 -8 20 -4z m-2379 -15 c3 -5 -1 -9 -9 -9 -8 0 -12 4 -9 9 3
4 7 8 9 8 2 0 6 -4 9 -8z m-3909 -22 c3 -6 -1 -7 -9 -4 -18 7 -21 14 -7 14 6
0 13 -4 16 -10z m4175 0 c0 -5 -5 -10 -11 -10 -5 0 -7 5 -4 10 3 6 8 10 11 10
2 0 4 -4 4 -10z m135 -19 c1 -12 -4 -18 -14 -16 -21 3 -26 25 -6 25 10 0 14 5
9 13 -4 6 -3 9 1 4 5 -4 9 -16 10 -26z m-405 -11 c4 0 11 -8 14 -17 6 -15 4
-15 -14 2 -11 10 -19 25 -19 34 1 13 2 13 6 -1 2 -10 8 -18 13 -18z m2370 -35
c0 -8 -4 -15 -10 -15 -5 0 -7 7 -4 15 4 8 8 15 10 15 2 0 4 -7 4 -15z m-2510
-10 c0 -12 -19 -12 -23 0 -4 9 -1 12 9 8 7 -3 14 -7 14 -8z m-3711 -50 c0 -5
-6 1 -14 15 -8 14 -14 30 -14 35 0 6 6 -1 14 -15 8 -14 14 -29 14 -35z m4751
-35 c8 -5 11 -10 5 -10 -5 0 -17 5 -25 10 -8 5 -10 10 -5 10 6 0 17 -5 25 -10z
m-4605 -80 c3 -6 -1 -7 -9 -4 -18 7 -21 14 -7 14 6 0 13 -4 16 -10z m3435 -20
c6 -11 8 -20 6 -20 -3 0 -10 9 -16 20 -6 11 -8 20 -6 20 3 0 10 -9 16 -20z
m2637 -2 c-3 -8 -6 -5 -6 6 -1 11 2 17 5 13 3 -3 4 -12 1 -19z m15 -30 c-9 -9
-8 -14 4 -23 14 -10 12 -14 -12 -30 l-29 -18 19 21 c17 20 15 27 -7 23 -4 -1
-2 8 5 19 7 11 17 20 22 20 6 0 5 -5 -2 -12z m-1872 -8 c0 -5 -2 -10 -4 -10
-3 0 -8 5 -11 10 -3 6 -1 10 4 10 6 0 11 -4 11 -10z m-4089 -133 c-10 -9 -11
-8 -5 6 3 10 9 15 12 12 3 -3 0 -11 -7 -18z m3148 -11 c9 -11 9 -16 -1 -22 -7
-4 -10 -4 -6 1 4 4 3 14 -3 22 -6 7 -9 13 -6 13 2 0 10 -6 16 -14z m1342 -19
c-1 -12 -15 -9 -19 4 -3 6 1 10 8 8 6 -3 11 -8 11 -12z m1524 -28 c3 -4 -8 -4
-24 1 -16 4 -33 5 -37 2 -4 -4 -4 -2 -1 4 7 12 54 7 62 -7z m-5934 -17 c-8 -3
-6 -9 8 -18 20 -14 19 -50 -1 -38 -6 4 -6 9 2 14 9 6 7 11 -8 19 -13 7 -19 17
-16 26 4 8 11 12 17 8 8 -5 7 -8 -2 -11z m5917 -57 c-3 -3 -9 2 -12 12 -6 14
-5 15 5 6 7 -7 10 -15 7 -18z m-2907 2 c-7 -7 -14 -8 -21 -1 -6 6 -2 10 12 11
16 2 18 -1 9 -10z m-2930 -30 c-10 -9 -11 -8 -5 6 3 10 9 15 12 12 3 -3 0 -11
-7 -18z m5832 -31 c-10 -13 -20 -22 -22 -20 -4 4 29 44 36 44 2 0 -4 -11 -14
-24z m-5806 8 c-3 -3 -12 -4 -19 -1 -8 3 -5 6 6 6 11 1 17 -2 13 -5z m4783
-18 c0 -2 -7 -7 -16 -10 -8 -3 -12 -2 -9 4 6 10 25 14 25 6z m-4746 -31 c5
-14 -30 -13 -44 1 -7 7 -2 10 15 10 13 0 26 -5 29 -11z m4671 5 c3 -5 1 -10
-4 -10 -6 0 -11 5 -11 10 0 6 2 10 4 10 3 0 8 -4 11 -10z m-1934 -27 c13 -16
12 -17 -3 -4 -10 7 -18 15 -18 17 0 8 8 3 21 -13z m2026 -5 c0 -13 -1 -17 -4
-10 -3 6 -9 10 -14 7 -5 -4 -6 1 -3 9 9 23 20 19 21 -6z m-4697 -73 c0 -8 -2
-15 -4 -15 -2 0 -6 7 -10 15 -3 8 -1 15 4 15 6 0 10 -7 10 -15z m4476 0 c-1
-8 -5 -17 -8 -21 -5 -4 -4 16 1 34 3 9 9 -1 7 -13z m1271 -1 c-3 -3 -12 -4
-19 -1 -8 3 -5 6 6 6 11 1 17 -2 13 -5z m-3247 -104 c0 -5 -5 -10 -11 -10 -5
0 -7 5 -4 10 3 6 8 10 11 10 2 0 4 -4 4 -10z m3260 -70 c-6 -11 -13 -20 -16
-20 -2 0 0 9 6 20 6 11 13 20 16 20 2 0 0 -9 -6 -20z m-5576 -25 c-4 -8 -11
-12 -16 -9 -6 4 -5 10 3 15 19 12 19 11 13 -6z m4988 -35 c5 0 7 7 4 16 -6 14
-4 15 9 4 15 -12 15 -14 -2 -24 -10 -5 -23 -16 -29 -24 -9 -12 -13 -13 -19 -2
-6 9 -4 11 5 5 8 -5 11 -3 8 6 -3 8 -11 13 -17 11 -7 -1 -10 2 -6 8 3 6 11 8
16 5 5 -4 10 4 10 17 l2 23 4 -22 c2 -13 9 -23 15 -23z m644 -18 c0 -28 -9
-36 -12 -11 -1 5 -2 10 -4 12 -8 10 -6 37 3 34 7 -2 12 -18 13 -35z m-21 -102
c3 -6 -1 -7 -9 -4 -18 7 -21 14 -7 14 6 0 13 -4 16 -10z m-5463 -18 c6 -6 3
-12 -5 -15 -8 -3 -23 3 -32 13 -17 19 -17 19 6 15 12 -3 27 -9 31 -13z m4789
3 c11 6 11 5 2 -5 -12 -14 -33 -6 -33 13 0 8 3 7 9 -2 5 -8 14 -10 22 -6z
m-3011 -39 c0 -2 -8 -10 -17 -17 -16 -13 -17 -12 -4 4 13 16 21 21 21 13z
m2785 -34 c-3 -3 -11 0 -18 7 -9 10 -8 11 6 5 10 -3 15 -9 12 -12z m-4521 -18
c3 -8 2 -12 -4 -9 -6 3 -10 10 -10 16 0 14 7 11 14 -7z m4554 -29 c-3 -3 -9 2
-12 12 -6 14 -5 15 5 6 7 -7 10 -15 7 -18z m-4503 -15 c-1 -11 -5 -23 -10 -27
-4 -5 -5 -3 -1 4 3 6 1 15 -5 19 -8 4 -7 9 2 15 8 5 14 9 15 9 0 0 0 -9 -1
-20z m1500 -39 c-3 -6 -11 -11 -16 -11 -5 0 -4 6 3 14 14 16 24 13 13 -3z
m3435 15 c0 -2 -7 -7 -16 -10 -8 -3 -12 -2 -9 4 6 10 25 14 25 6z m-4890 -25
c0 -6 -5 -13 -12 -17 -6 -4 -8 -3 -4 4 3 5 0 13 -6 15 -8 3 -6 6 5 6 9 1 17
-3 17 -8z m30 -5 c0 -3 -4 -8 -10 -11 -5 -3 -10 -1 -10 4 0 6 5 11 10 11 6 0
10 -2 10 -4z m1380 -16 c0 -5 -5 -10 -11 -10 -5 0 -7 5 -4 10 3 6 8 10 11 10
2 0 4 -4 4 -10z m3527 -35 c0 -8 -4 -12 -9 -9 -5 3 -6 10 -3 15 9 13 12 11 12
-6z m-4866 -18 c-10 -9 -11 -8 -5 6 3 10 9 15 12 12 3 -3 0 -11 -7 -18z m1205
-31 c-2 -14 -36 -52 -36 -40 0 3 -6 1 -14 -5 -10 -8 -16 -9 -21 -1 -4 6 -1 9
7 8 7 -2 12 3 10 10 -1 8 2 11 8 7 5 -3 18 -1 27 4 10 6 14 11 10 11 -5 0 -5
5 -2 10 9 14 14 12 11 -4z m-1166 -38 c0 -9 4 -8 11 2 10 13 10 13 6 0 -3 -9
1 -24 9 -35 8 -10 14 -13 14 -7 0 7 5 12 10 12 6 0 5 -8 -2 -20 -12 -18 -13
-18 -22 -2 -5 9 -18 27 -29 40 -11 12 -15 22 -9 22 7 0 12 -6 12 -12z m1023
-61 c-2 -4 -10 -6 -16 -4 -7 2 -20 -2 -29 -10 -15 -13 -16 -13 -14 3 2 9 11
19 22 20 10 2 20 8 23 15 2 8 6 8 12 -2 4 -7 5 -17 2 -22z m3958 18 c0 -5 6
-17 12 -25 7 -8 -3 -4 -20 9 -18 12 -33 24 -33 25 0 9 40 0 41 -9z m182 -31
c-6 -18 -19 -18 -26 -1 -3 7 3 13 14 14 12 1 16 -3 12 -13z m-4363 -83 c7 -15
7 -19 -5 -17 -8 1 -18 6 -22 11 -5 4 -2 5 6 0 11 -6 13 -4 8 8 -9 23 0 21 13
-2z m-562 -85 c-19 -14 -25 -32 -8 -21 11 7 14 -8 3 -18 -3 -4 -12 1 -19 11
-11 14 -9 19 9 29 29 16 36 16 15 -1z m38 -83 c-3 -4 -6 -1 -6 6 0 7 -4 9 -10
6 -6 -4 -7 1 -3 11 6 15 7 15 15 -1 6 -9 7 -19 4 -22z m124 33 c0 -2 -7 -7
-16 -10 -8 -3 -12 -2 -9 4 6 10 25 14 25 6z m-120 -51 c0 -2 -9 -3 -19 -2 -11
0 -18 5 -15 9 4 6 34 0 34 -7z"/>
<path d="M7470 4686 c0 -2 7 -7 16 -10 8 -3 12 -2 9 4 -6 10 -25 14 -25 6z"/>
<path d="M6273 8795 c0 -7 6 -11 14 -8 7 3 13 6 13 8 0 2 -6 5 -13 8 -8 3 -14
-1 -14 -8z"/>
<path d="M6605 8781 c-3 -5 0 -13 6 -17 7 -4 9 -3 5 4 -3 5 0 13 6 15 9 4 10
6 1 6 -6 1 -14 -3 -18 -8z"/>
<path d="M6099 8717 c6 -8 7 -18 3 -23 -4 -4 1 -2 11 5 18 14 24 26 7 16 -5
-3 -10 -1 -10 4 0 6 -5 11 -11 11 -8 0 -9 -4 0 -13z"/>
<path d="M6038 8683 c6 -2 9 -10 6 -15 -4 -7 -2 -8 5 -4 13 9 5 26 -12 25 -9
0 -8 -2 1 -6z"/>
<path d="M3373 8635 c0 -19 4 -32 8 -29 8 5 6 50 -3 59 -2 3 -5 -11 -5 -30z"/>
<path d="M3506 8662 c-2 -4 4 -8 14 -8 10 0 16 4 14 8 -3 4 -9 8 -14 8 -5 0
-11 -4 -14 -8z"/>
<path d="M3810 8660 c0 -5 5 -10 11 -10 5 0 7 5 4 10 -3 6 -8 10 -11 10 -2 0
-4 -4 -4 -10z"/>
<path d="M3780 8639 c0 -5 5 -7 10 -4 6 3 10 8 10 11 0 2 -4 4 -10 4 -5 0 -10
-5 -10 -11z"/>
<path d="M3826 8628 c3 -4 9 -8 15 -8 5 0 9 4 9 8 0 5 -7 9 -15 9 -8 0 -12 -4
-9 -9z"/>
<path d="M3875 8620 c3 -5 8 -10 11 -10 2 0 4 5 4 10 0 6 -5 10 -11 10 -5 0
-7 -4 -4 -10z"/>
<path d="M3910 8600 c0 -5 5 -10 11 -10 5 0 7 5 4 10 -3 6 -8 10 -11 10 -2 0
-4 -4 -4 -10z"/>
<path d="M5867 8591 c-4 -15 -10 -20 -18 -15 -8 4 -10 3 -5 -4 8 -14 56 13 56
32 0 6 -4 5 -9 -3 -7 -11 -9 -11 -13 0 -3 8 -7 4 -11 -10z"/>
<path d="M5815 8580 c-3 -5 -1 -10 4 -10 6 0 11 5 11 10 0 6 -2 10 -4 10 -3 0
-8 -4 -11 -10z"/>
<path d="M3110 8558 c0 -4 4 -8 9 -8 6 0 12 4 15 8 3 5 -1 9 -9 9 -8 0 -15 -4
-15 -9z"/>
<path d="M6867 8519 c7 -7 15 -10 18 -7 3 3 -2 9 -12 12 -14 6 -15 5 -6 -5z"/>
<path d="M2907 8456 c-3 -8 -2 -18 3 -21 13 -8 20 9 11 24 -6 10 -10 9 -14 -3z"/>
<path d="M4056 8453 c-6 -14 -5 -15 5 -6 7 7 10 15 7 18 -3 3 -9 -2 -12 -12z"/>
<path d="M4175 8351 c-3 -5 -2 -12 3 -15 5 -3 9 1 9 9 0 17 -3 19 -12 6z"/>
<path d="M5511 8334 c0 -11 3 -14 6 -6 3 7 2 16 -1 19 -3 4 -6 -2 -5 -13z"/>
<path d="M5459 8323 c6 -13 7 -24 2 -27 -5 -4 -11 0 -14 6 -2 7 -8 10 -12 6
-11 -10 -3 -18 23 -23 16 -3 20 1 17 17 -3 12 -10 26 -16 32 -9 8 -9 6 0 -11z"/>
<path d="M7087 8300 c18 -20 43 -22 35 -2 -4 11 -7 12 -10 4 -3 -10 -7 -10
-20 0 -14 10 -15 10 -5 -2z"/>
<path d="M2396 8141 c-3 -5 1 -11 9 -14 9 -4 12 -1 8 9 -6 16 -10 17 -17 5z"/>
<path d="M7240 8141 c0 -17 38 -33 46 -19 4 6 3 8 -4 4 -6 -3 -18 1 -26 10 -9
8 -16 11 -16 5z"/>
<path d="M5239 8138 c0 -2 -2 -10 -4 -18 -2 -8 -7 -26 -11 -40 -5 -20 -4 -23
6 -13 12 11 23 73 13 73 -2 0 -3 -1 -4 -2z"/>
<path d="M4276 8087 c3 -10 9 -15 12 -12 3 3 0 11 -7 18 -10 9 -11 8 -5 -6z"/>
<path d="M7350 8061 c0 -6 4 -13 10 -16 6 -3 7 1 4 9 -7 18 -14 21 -14 7z"/>
<path d="M5163 8015 c0 -8 4 -12 9 -9 5 3 6 10 3 15 -9 13 -12 11 -12 -6z"/>
<path d="M2197 7999 c4 -13 8 -18 11 -10 2 7 -1 18 -6 23 -8 8 -9 4 -5 -13z"/>
<path d="M5127 7987 c4 -6 0 -8 -10 -4 -9 3 -19 1 -23 -5 -4 -6 -3 -8 4 -4 5
3 12 1 14 -5 2 -6 11 -2 21 9 14 15 14 19 2 19 -8 0 -11 -5 -8 -10z"/>
<path d="M5074 7938 c6 -20 -10 -34 -17 -16 -3 8 -6 6 -6 -5 -1 -10 -5 -15
-11 -12 -5 3 -10 2 -10 -4 0 -16 37 -9 48 9 7 11 7 21 0 31 -8 11 -9 11 -4 -3z"/>
<path d="M7490 7900 c0 -6 -5 -8 -12 -4 -7 4 -8 3 -4 -5 4 -6 11 -9 16 -6 4 3
11 -1 13 -7 4 -8 6 -7 6 4 1 9 -3 20 -9 23 -5 3 -10 1 -10 -5z"/>
<path d="M1962 7874 c-7 -8 -8 -14 -3 -14 10 0 25 19 20 25 -2 1 -10 -3 -17
-11z"/>
<path d="M1937 7829 c-4 -16 -3 -18 9 -8 7 6 11 15 8 20 -8 13 -11 11 -17 -12z"/>
<path d="M7566 7833 c-6 -14 -5 -15 5 -6 7 7 10 15 7 18 -3 3 -9 -2 -12 -12z"/>
<path d="M7666 7738 c3 -5 10 -6 15 -3 13 9 11 12 -6 12 -8 0 -12 -4 -9 -9z"/>
<path d="M7740 7668 c0 -2 9 -11 20 -21 11 -9 20 -13 20 -7 0 5 -9 14 -20 20
-11 6 -20 9 -20 8z"/>
<path d="M1510 7640 c0 -5 5 -10 10 -10 6 0 10 5 10 10 0 6 -4 10 -10 10 -5 0
-10 -4 -10 -10z"/>
<path d="M4387 7636 c-3 -8 -2 -18 3 -21 13 -8 24 15 12 27 -6 6 -11 4 -15 -6z"/>
<path d="M4827 7625 c3 -8 9 -12 14 -9 12 7 11 11 -5 17 -10 4 -13 1 -9 -8z"/>
<path d="M7810 7620 c0 -5 0 -12 0 -15 0 -12 14 -4 16 10 1 8 -2 15 -7 15 -5
0 -9 -4 -9 -10z"/>
<path d="M4772 7579 c2 -8 -3 -13 -10 -11 -10 2 -10 -2 0 -17 14 -22 23 -19
39 12 7 12 8 19 4 15 -5 -4 -14 -3 -22 4 -11 9 -13 8 -11 -3z"/>
<path d="M4736 7512 c-3 -5 1 -9 9 -9 8 0 12 4 9 9 -3 4 -7 8 -9 8 -2 0 -6 -4
-9 -8z"/>
<path d="M7934 7495 c-3 -8 8 -32 26 -55 27 -34 35 -38 51 -30 22 12 26 25 4
17 -8 -4 -17 -2 -20 4 -4 5 -11 7 -16 4 -5 -4 -9 -1 -9 4 0 6 5 11 10 11 6 0
10 4 10 9 0 4 -10 8 -22 7 -18 -1 -22 4 -21 22 3 25 -5 29 -13 7z"/>
<path d="M1175 7480 c-3 -5 -1 -10 4 -10 6 0 11 5 11 10 0 6 -2 10 -4 10 -3 0
-8 -4 -11 -10z"/>
<path d="M4567 7359 c7 -7 15 -10 18 -7 3 3 -2 9 -12 12 -14 6 -15 5 -6 -5z"/>
<path d="M8122 7298 c-9 -9 -7 -17 10 -35 23 -25 38 -30 38 -12 0 5 -4 8 -9 4
-5 -3 -12 -1 -16 5 -3 5 1 10 9 10 19 0 21 16 4 26 -6 4 -8 3 -5 -3 4 -6 0
-14 -9 -17 -13 -5 -15 -2 -11 14 6 23 5 24 -11 8z"/>
<path d="M1228 7207 c4 -14 7 -16 13 -5 12 19 11 25 -5 25 -8 0 -11 -8 -8 -20z"/>
<path d="M1353 7125 c0 -8 4 -12 9 -9 5 3 6 10 3 15 -9 13 -12 11 -12 -6z"/>
<path d="M1410 7122 c0 -6 10 -14 23 -18 37 -13 44 -12 44 2 0 10 -4 11 -14 3
-10 -9 -13 -8 -13 1 0 8 -3 10 -7 7 -3 -4 -12 -2 -20 4 -9 8 -13 8 -13 1z"/>
<path d="M1630 7115 c0 -8 4 -15 10 -15 5 0 7 7 4 15 -4 8 -8 15 -10 15 -2 0
-4 -7 -4 -15z"/>
<path d="M1515 7109 c-10 -15 3 -25 16 -12 7 7 7 13 1 17 -6 3 -14 1 -17 -5z"/>
<path d="M1841 7088 c9 -17 5 -22 -13 -19 -4 0 -5 -5 -2 -12 10 -26 29 -14 29
18 0 18 -5 32 -12 32 -8 0 -9 -6 -2 -19z"/>
<path d="M8327 7079 c-3 -12 -3 -18 0 -15 4 3 17 -3 29 -15 17 -16 24 -18 30
-7 4 7 4 10 0 6 -11 -10 -49 28 -41 41 3 6 2 11 -3 11 -5 0 -12 -9 -15 -21z"/>
<path d="M1630 7080 c0 -5 5 -10 11 -10 5 0 7 5 4 10 -3 6 -8 10 -11 10 -2 0
-4 -4 -4 -10z"/>
<path d="M1790 7023 c0 -15 18 -35 23 -27 3 5 -1 15 -9 22 -8 7 -14 9 -14 5z"/>
<path d="M8504 6944 c-18 -14 -18 -15 4 -4 12 6 22 13 22 15 0 8 -5 6 -26 -11z"/>
<path d="M1730 6900 c0 -5 5 -10 11 -10 5 0 7 5 4 10 -3 6 -8 10 -11 10 -2 0
-4 -4 -4 -10z"/>
<path d="M2425 6852 c-9 -9 -6 -22 6 -22 5 0 7 5 4 10 -3 6 -1 10 4 10 6 0 11
-6 11 -12 0 -10 3 -9 9 1 6 10 10 10 13 1 3 -9 6 -9 15 1 9 11 5 14 -23 15
-18 1 -36 -1 -39 -4z"/>
<path d="M2390 6840 c0 -5 5 -10 10 -10 6 0 10 5 10 10 0 6 -4 10 -10 10 -5 0
-10 -4 -10 -10z"/>
<path d="M1863 6754 c-17 -17 -16 -21 2 -21 8 0 12 4 9 8 -2 4 1 9 8 11 7 3 8
7 3 10 -6 3 -16 0 -22 -8z"/>
<path d="M2005 6740 c-4 -6 -4 -14 -1 -17 3 -4 6 0 6 8 1 10 5 8 15 -5 8 -11
15 -15 15 -9 0 18 -27 36 -35 23z"/>
<path d="M2419 6726 c10 -11 8 -17 -6 -25 -10 -6 -12 -11 -5 -11 6 0 15 -1 19
-2 3 -2 7 7 9 19 2 12 -3 24 -13 27 -13 5 -14 4 -4 -8z"/>
<path d="M8736 6722 c-2 -4 -1 -14 4 -22 7 -11 9 -9 7 8 -1 24 -3 26 -11 14z"/>
<path d="M2420 6659 c0 -5 5 -7 10 -4 6 3 10 8 10 11 0 2 -4 4 -10 4 -5 0 -10
-5 -10 -11z"/>
<path d="M2414 6616 c1 -8 5 -18 8 -22 4 -3 5 1 4 10 -1 8 -5 18 -8 22 -4 3
-5 -1 -4 -10z"/>
<path d="M2960 6580 c-8 -5 -10 -10 -5 -10 6 0 17 5 25 10 8 5 11 10 5 10 -5
0 -17 -5 -25 -10z"/>
<path d="M3050 6564 c-17 -11 -19 -13 -5 -9 11 4 25 8 32 9 19 3 28 16 12 16
-8 -1 -25 -8 -39 -16z"/>
<path d="M2870 6560 c0 -5 5 -10 10 -10 6 0 10 5 10 10 0 6 -4 10 -10 10 -5 0
-10 -4 -10 -10z"/>
<path d="M2466 6538 c3 -4 11 -5 19 -1 21 7 19 12 -4 10 -11 0 -18 -5 -15 -9z"/>
<path d="M2837 6543 c-4 -6 0 -13 8 -17 8 -3 17 0 21 6 4 6 3 8 -4 4 -5 -3
-12 -1 -14 6 -3 8 -6 9 -11 1z"/>
<path d="M2835 6500 c-3 -5 -1 -10 4 -10 6 0 11 5 11 10 0 6 -2 10 -4 10 -3 0
-8 -4 -11 -10z"/>
<path d="M8953 6495 c0 -8 4 -12 9 -9 5 3 6 10 3 15 -9 13 -12 11 -12 -6z"/>
<path d="M3016 6478 c3 -4 11 -5 19 -1 21 7 19 12 -4 10 -11 0 -18 -5 -15 -9z"/>
<path d="M8935 6460 c3 -5 8 -10 11 -10 2 0 4 5 4 10 0 6 -5 10 -11 10 -5 0
-7 -4 -4 -10z"/>
<path d="M3145 6320 c3 -5 1 -10 -4 -10 -6 0 -11 -5 -11 -12 0 -6 3 -8 7 -5 3
4 18 0 31 -9 l25 -17 -22 32 c-20 28 -41 45 -26 21z"/>
<path d="M3358 6303 c-27 -32 -31 -49 -4 -19 14 16 26 31 26 33 0 7 -8 2 -22
-14z"/>
<path d="M8993 6303 c4 -3 2 -12 -4 -19 -8 -9 -5 -15 10 -23 14 -8 22 -8 27 1
4 7 3 8 -4 4 -12 -7 -16 5 -13 32 1 6 -4 12 -10 12 -7 0 -9 -3 -6 -7z"/>
<path d="M3494 6218 c-4 -7 -3 -8 4 -4 7 4 12 3 12 -3 0 -5 -5 -13 -10 -16 -8
-5 -8 -11 -1 -19 6 -7 7 -17 3 -21 -4 -5 -1 -5 6 -1 7 4 10 11 7 16 -3 4 1 11
7 13 10 4 9 6 -1 6 -10 1 -11 4 -2 15 9 10 8 15 -3 19 -9 4 -18 1 -22 -5z"/>
<path d="M3480 6156 c0 -8 4 -17 9 -20 5 -4 7 3 4 14 -6 23 -13 26 -13 6z"/>
<path d="M3593 6027 c0 -12 1 -16 4 -8 4 9 7 10 13 2 8 -14 40 -4 40 12 0 7
-4 7 -12 -1 -9 -9 -15 -8 -28 3 -14 13 -16 12 -17 -8z"/>
<path d="M3635 5961 c-3 -5 -2 -12 3 -15 5 -3 9 1 9 9 0 17 -3 19 -12 6z"/>
<path d="M3681 5941 c-7 -5 -12 -14 -10 -20 2 -6 10 -2 17 9 14 22 13 23 -7
11z"/>
<path d="M3640 5920 c0 -5 5 -10 11 -10 5 0 7 5 4 10 -3 6 -8 10 -11 10 -2 0
-4 -4 -4 -10z"/>
<path d="M8955 5820 c3 -5 8 -10 11 -10 2 0 4 5 4 10 0 6 -5 10 -11 10 -5 0
-7 -4 -4 -10z"/>
<path d="M3551 5774 c0 -11 3 -14 6 -6 3 7 2 16 -1 19 -3 4 -6 -2 -5 -13z"/>
<path d="M8873 5633 c-15 -14 -23 -22 -16 -19 6 4 13 3 16 -1 2 -5 2 -2 1 5
-2 6 3 12 11 12 8 0 15 5 15 11 0 5 4 8 9 4 5 -3 12 -2 15 3 11 18 -24 7 -51
-15z"/>
<path d="M8805 5600 c10 -11 20 -20 22 -20 2 0 -2 9 -9 20 -7 11 -17 20 -22
20 -5 0 -1 -9 9 -20z"/>
<path d="M8570 5466 c0 -2 7 -7 16 -10 8 -3 12 -2 9 4 -6 10 -25 14 -25 6z"/>
<path d="M8495 5440 c3 -5 8 -10 11 -10 2 0 4 5 4 10 0 6 -5 10 -11 10 -5 0
-7 -4 -4 -10z"/>
<path d="M3050 5276 c0 -2 7 -7 16 -10 8 -3 12 -2 9 4 -6 10 -25 14 -25 6z"/>
<path d="M8130 5260 c0 -5 5 -10 11 -10 5 0 7 5 4 10 -3 6 -8 10 -11 10 -2 0
-4 -4 -4 -10z"/>
<path d="M2989 5243 c-13 -16 -12 -17 4 -4 9 7 17 15 17 17 0 8 -8 3 -21 -13z"/>
<path d="M7939 5158 c-5 -9 -5 -48 -1 -43 8 7 13 45 7 45 -3 0 -6 -1 -6 -2z"/>
<path d="M7895 5080 c3 -5 8 -10 11 -10 2 0 4 5 4 10 0 6 -5 10 -11 10 -5 0
-7 -4 -4 -10z"/>
<path d="M2606 4978 c3 -5 10 -6 15 -3 13 9 11 12 -6 12 -8 0 -12 -4 -9 -9z"/>
<path d="M7700 4950 c-24 -18 -24 -19 -3 -17 12 0 21 6 20 12 -1 5 4 9 11 7 8
-1 11 2 7 8 -8 13 -5 13 -35 -10z"/>
<path d="M2453 4903 c4 -3 1 -13 -6 -22 -11 -14 -10 -14 5 -2 16 12 16 31 1
31 -4 0 -3 -3 0 -7z"/>
<path d="M2318 4853 c7 -3 16 -2 19 1 4 3 -2 6 -13 5 -11 0 -14 -3 -6 -6z"/>
<path d="M2358 4843 c7 -3 16 -2 19 1 4 3 -2 6 -13 5 -11 0 -14 -3 -6 -6z"/>
<path d="M8457 4783 c-4 -3 -7 -11 -7 -17 0 -6 5 -5 12 2 6 6 9 14 7 17 -3 3
-9 2 -12 -2z"/>
<path d="M7793 4768 c1 -7 -6 -12 -15 -12 -10 1 -15 -2 -12 -7 7 -12 42 -6 57
11 9 10 9 11 0 6 -7 -4 -13 -2 -13 3 0 6 -4 11 -10 11 -5 0 -9 -6 -7 -12z"/>
<path d="M2150 4749 c0 -5 -5 -7 -12 -3 -7 4 -8 3 -4 -5 6 -8 12 -9 20 -2 7 6
17 7 21 3 5 -4 5 -1 1 6 -9 15 -26 16 -26 1z"/>
<path d="M7716 4735 c-3 -8 -11 -12 -19 -9 -7 2 -14 -1 -14 -9 0 -23 40 -13
44 11 3 25 -2 29 -11 7z"/>
<path d="M8575 4739 c-4 -6 -5 -12 -2 -15 2 -3 7 2 10 11 7 17 1 20 -8 4z"/>
<path d="M7537 4703 c-4 -3 -7 -13 -7 -22 1 -13 3 -13 11 2 11 19 8 33 -4 20z"/>
<path d="M8700 4686 c0 -2 8 -10 18 -17 15 -13 16 -12 3 4 -13 16 -21 21 -21
13z"/>
<path d="M2076 4621 c-4 -6 -1 -11 6 -12 7 0 4 -4 -7 -9 -16 -7 -17 -9 -3 -9
21 -1 29 11 19 28 -6 9 -11 10 -15 2z"/>
<path d="M8786 4574 c-5 -14 -4 -15 9 -4 17 14 19 20 6 20 -5 0 -12 -7 -15
-16z"/>
<path d="M8829 4503 c-13 -16 -12 -17 4 -4 9 7 17 15 17 17 0 8 -8 3 -21 -13z"/>
<path d="M2044 4409 c-4 -7 -3 -9 4 -5 5 3 13 0 15 -6 4 -9 6 -10 6 -1 1 17
-16 25 -25 12z"/>
<path d="M2010 4361 c0 -6 4 -13 10 -16 6 -3 7 1 4 9 -7 18 -14 21 -14 7z"/>
<path d="M8952 4217 c-11 -13 -11 -41 0 -52 3 -3 11 2 18 10 11 13 11 16 0 13
-7 -2 -15 3 -18 11 -2 8 0 11 5 8 5 -3 10 0 10 8 0 18 -2 18 -15 2z"/>
<path d="M1997 4213 c-4 -3 -7 -11 -7 -17 0 -6 5 -5 12 2 6 6 9 14 7 17 -3 3
-9 2 -12 -2z"/>
<path d="M1993 4115 c0 -8 4 -12 9 -9 5 3 6 10 3 15 -9 13 -12 11 -12 -6z"/>
<path d="M8976 4101 c-3 -5 2 -15 12 -22 15 -12 16 -12 5 2 -7 9 -10 19 -6 22
3 4 4 7 0 7 -3 0 -8 -4 -11 -9z"/>
<path d="M9010 3955 c0 -8 2 -15 4 -15 2 0 6 7 10 15 3 8 1 15 -4 15 -6 0 -10
-7 -10 -15z"/>
<path d="M1996 3943 c-3 -4 -6 -11 -6 -17 0 -6 5 -4 10 4 8 13 10 12 10 -2 0
-10 7 -18 15 -18 8 0 15 3 15 8 0 11 -37 32 -44 25z"/>
<path d="M2026 3883 c-6 -14 -5 -15 5 -6 7 7 10 15 7 18 -3 3 -9 -2 -12 -12z"/>
<path d="M8997 3889 c7 -7 15 -10 18 -7 3 3 -2 9 -12 12 -14 6 -15 5 -6 -5z"/>
<path d="M9010 3859 c0 -5 5 -7 10 -4 6 3 10 8 10 11 0 2 -4 4 -10 4 -5 0 -10
-5 -10 -11z"/>
<path d="M8974 3838 c-4 -6 -3 -8 4 -4 5 3 13 0 15 -6 3 -8 6 -6 6 5 1 19 -14
23 -25 5z"/>
<path d="M2075 3820 c-16 -7 -17 -9 -3 -9 9 -1 20 4 23 9 7 11 7 11 -20 0z"/>
<path d="M2145 3730 c-4 -6 1 -7 12 -3 15 5 16 3 6 -8 -7 -7 -13 -17 -13 -23
0 -5 6 -1 14 9 14 20 12 35 -4 35 -5 0 -12 -4 -15 -10z"/>
<path d="M2436 3362 c-3 -5 1 -9 9 -9 8 0 12 4 9 9 -3 4 -7 8 -9 8 -2 0 -6 -4
-9 -8z"/>
<path d="M2525 3290 c-3 -6 -12 -7 -18 -4 -8 4 -7 2 1 -7 11 -12 14 -12 21 0
7 11 9 11 13 0 3 -8 8 -11 12 -8 4 3 0 12 -8 18 -10 8 -16 9 -21 1z"/>
<path d="M6875 3219 c-4 -6 -5 -12 -2 -15 2 -3 7 2 10 11 7 17 1 20 -8 4z"/>
<path d="M6850 3196 c0 -8 4 -17 9 -20 5 -4 7 3 4 14 -6 23 -13 26 -13 6z"/>
<path d="M2596 3178 c3 -5 10 -6 15 -3 13 9 11 12 -6 12 -8 0 -12 -4 -9 -9z"/>
<path d="M6800 3155 c-7 -9 -8 -15 -2 -15 5 0 12 7 16 15 3 8 4 15 2 15 -2 0
-9 -7 -16 -15z"/>
<path d="M6540 3146 c0 -2 8 -10 18 -17 15 -13 16 -12 3 4 -13 16 -21 21 -21
13z"/>
<path d="M6589 3148 c-5 -18 -6 -38 -1 -34 7 8 12 36 6 36 -2 0 -4 -1 -5 -2z"/>
<path d="M6410 3099 c0 -5 5 -7 10 -4 6 3 10 8 10 11 0 2 -4 4 -10 4 -5 0 -10
-5 -10 -11z"/>
<path d="M6926 3082 c-3 -5 1 -9 9 -9 8 0 12 4 9 9 -3 4 -7 8 -9 8 -2 0 -6 -4
-9 -8z"/>
<path d="M6626 3062 c-3 -5 1 -9 9 -9 8 0 12 4 9 9 -3 4 -7 8 -9 8 -2 0 -6 -4
-9 -8z"/>
<path d="M6660 3040 c-9 -6 -10 -10 -3 -10 6 0 15 5 18 10 8 12 4 12 -15 0z"/>
<path d="M6317 3006 c-3 -8 2 -20 11 -27 14 -11 15 -11 5 0 -6 7 -9 20 -6 27
3 8 3 14 0 14 -3 0 -7 -6 -10 -14z"/>
<path d="M6995 3000 c-3 -5 1 -10 10 -10 9 0 13 5 10 10 -3 6 -8 10 -10 10 -2
0 -7 -4 -10 -10z"/>
<path d="M8944 2998 c4 -19 23 -20 30 -2 5 14 4 15 -8 5 -10 -8 -16 -9 -19 -1
-3 6 -4 5 -3 -2z"/>
<path d="M2810 2936 c0 -2 8 -10 18 -17 15 -13 16 -12 3 4 -13 16 -21 21 -21
13z"/>
<path d="M7350 2920 c0 -5 5 -10 10 -10 6 0 10 5 10 10 0 6 -4 10 -10 10 -5 0
-10 -4 -10 -10z"/>
<path d="M7305 2881 c12 -12 16 -12 29 1 13 14 12 16 -14 14 -25 -1 -28 -3
-15 -15z"/>
<path d="M8942 2852 c-21 -16 -22 -20 -8 -31 9 -7 14 -17 11 -21 -2 -4 5 -16
16 -26 18 -16 19 -16 13 -1 -3 9 -10 17 -16 17 -5 0 -2 7 6 16 21 20 20 24 -4
19 -11 -2 -20 0 -20 4 0 14 26 31 35 23 5 -4 5 -1 1 6 -9 15 -6 15 -34 -6z"/>
<path d="M7130 2850 c0 -4 7 -11 16 -14 8 -3 12 -10 9 -16 -3 -5 -1 -10 4 -10
18 0 6 43 -12 46 -10 1 -17 -1 -17 -6z"/>
<path d="M7390 2856 c0 -2 8 -10 18 -17 15 -13 16 -12 3 4 -13 16 -21 21 -21
13z"/>
<path d="M7180 2841 c0 -6 4 -13 10 -16 6 -3 7 1 4 9 -7 18 -14 21 -14 7z"/>
<path d="M7211 2834 c0 -11 3 -14 6 -6 3 7 2 16 -1 19 -3 4 -6 -2 -5 -13z"/>
<path d="M6210 2819 c0 -5 5 -7 10 -4 6 3 10 8 10 11 0 2 -4 4 -10 4 -5 0 -10
-5 -10 -11z"/>
<path d="M7195 2800 c3 -5 8 -10 11 -10 2 0 4 5 4 10 0 6 -5 10 -11 10 -5 0
-7 -4 -4 -10z"/>
<path d="M7390 2806 c0 -2 7 -7 16 -10 8 -3 12 -2 9 4 -6 10 -25 14 -25 6z"/>
<path d="M8989 2797 c6 -8 7 -18 3 -22 -4 -5 -1 -5 6 -1 10 6 10 11 1 22 -6 8
-14 14 -16 14 -3 0 0 -6 6 -13z"/>
<path d="M2990 2736 c0 -2 8 -10 18 -17 15 -13 16 -12 3 4 -13 16 -21 21 -21
13z"/>
<path d="M6034 2614 c-18 -15 -18 -15 2 -5 12 6 24 7 28 4 3 -3 6 -1 6 5 0 16
-12 15 -36 -4z"/>
<path d="M7451 2611 c-8 -5 -9 -11 -3 -15 5 -3 12 1 16 9 6 17 6 18 -13 6z"/>
<path d="M7864 2518 c-3 -4 2 -8 10 -8 8 0 17 4 20 8 3 5 -2 9 -10 9 -8 0 -17
-4 -20 -9z"/>
<path d="M3195 2491 c-3 -5 -2 -12 3 -15 5 -3 9 1 9 9 0 17 -3 19 -12 6z"/>
<path d="M7815 2491 c-3 -5 -1 -12 5 -16 5 -3 10 1 10 9 0 18 -6 21 -15 7z"/>
<path d="M7850 2466 c0 -2 7 -7 16 -10 8 -3 12 -2 9 4 -6 10 -25 14 -25 6z"/>
<path d="M7677 2423 c-4 -3 -7 -11 -7 -17 0 -6 5 -5 12 2 6 6 9 14 7 17 -3 3
-9 2 -12 -2z"/>
<path d="M7706 2398 c3 -5 10 -6 15 -3 13 9 11 12 -6 12 -8 0 -12 -4 -9 -9z"/>
<path d="M7915 2400 c-3 -5 0 -10 7 -10 10 0 9 -3 -2 -11 -12 -8 -12 -10 -1
-7 8 2 15 12 17 21 2 19 -11 23 -21 7z"/>
<path d="M3310 2372 c0 -11 9 -27 20 -35 11 -8 18 -17 15 -20 -3 -4 -2 -5 2
-2 15 12 11 35 -5 33 -10 -2 -17 4 -17 14 0 9 -4 20 -8 24 -4 4 -7 -2 -7 -14z"/>
<path d="M7955 2309 c-4 -6 -5 -12 -2 -15 2 -3 7 2 10 11 7 17 1 20 -8 4z"/>
<path d="M5710 2275 c-11 -13 -10 -14 4 -9 9 3 16 10 16 15 0 13 -6 11 -20 -6z"/>
<path d="M9055 2279 c-4 -6 -5 -12 -2 -15 2 -3 7 2 10 11 7 17 1 20 -8 4z"/>
<path d="M9076 2273 c-6 -14 -5 -15 5 -6 7 7 10 15 7 18 -3 3 -9 -2 -12 -12z"/>
<path d="M5736 2262 c-3 -5 1 -9 9 -9 8 0 12 4 9 9 -3 4 -7 8 -9 8 -2 0 -6 -4
-9 -8z"/>
<path d="M9032 2197 c-7 -9 -3 -17 14 -30 13 -10 24 -13 24 -7 0 5 -5 10 -11
10 -6 0 -9 7 -6 15 8 19 -8 28 -21 12z"/>
<path d="M8484 2193 c3 -7 -1 -13 -11 -15 -15 -3 -15 -5 3 -10 22 -6 28 12 9
29 -4 4 -5 3 -1 -4z"/>
<path d="M8390 2119 c0 -5 5 -7 10 -4 6 3 10 8 10 11 0 2 -4 4 -10 4 -5 0 -10
-5 -10 -11z"/>
<path d="M8500 2090 c-8 -5 -10 -10 -5 -10 6 0 17 5 25 10 8 5 11 10 5 10 -5
0 -17 -5 -25 -10z"/>
<path d="M5476 2075 c-3 -8 -1 -15 4 -15 6 0 10 7 10 15 0 8 -2 15 -4 15 -2 0
-6 -7 -10 -15z"/>
<path d="M8510 2070 c-9 -6 -10 -10 -3 -10 6 0 15 5 18 10 8 12 4 12 -15 0z"/>
<path d="M8075 2040 c-18 -8 -17 -9 7 -9 21 -1 25 -5 21 -21 -3 -11 -1 -20 4
-20 12 0 10 37 -3 49 -5 5 -18 5 -29 1z"/>
<path d="M8547 2024 c6 -15 23 -19 23 -5 0 5 -7 11 -14 14 -10 4 -13 1 -9 -9z"/>
<path d="M8325 2010 c-10 -11 -13 -20 -8 -20 13 0 38 29 31 35 -3 3 -13 -4
-23 -15z"/>
<path d="M5375 2009 c-4 -6 -5 -12 -2 -15 2 -3 7 2 10 11 7 17 1 20 -8 4z"/>
<path d="M5433 2005 c0 -8 4 -12 9 -9 5 3 6 10 3 15 -9 13 -12 11 -12 -6z"/>
<path d="M5313 1948 c-1 -10 3 -21 9 -24 7 -5 8 -2 3 6 -5 8 -1 18 10 26 16
12 16 13 -2 11 -10 0 -20 -9 -20 -19z"/>
<path d="M8262 1944 c4 -4 3 -15 -3 -25 -13 -24 -8 -24 13 0 15 18 15 20 0 26
-9 3 -13 3 -10 -1z"/>
<path d="M8181 1924 c0 -11 3 -14 6 -6 3 7 2 16 -1 19 -3 4 -6 -2 -5 -13z"/>
<path d="M8235 1930 c3 -5 8 -10 11 -10 2 0 4 5 4 10 0 6 -5 10 -11 10 -5 0
-7 -4 -4 -10z"/>
<path d="M3734 1844 c1 -8 6 -17 11 -21 4 -4 5 -2 1 5 -5 9 -3 12 7 10 9 -2
15 1 14 7 -3 14 -35 13 -33 -1z"/>
<path d="M8687 1806 c-4 -10 -1 -13 8 -9 8 3 12 9 9 14 -7 12 -11 11 -17 -5z"/>
<path d="M4896 1722 c-2 -4 -1 -14 4 -22 7 -11 9 -9 7 8 -1 24 -3 26 -11 14z"/>
<path d="M8936 1673 c-4 -5 -12 -8 -17 -8 -5 0 -9 -4 -8 -10 1 -5 6 -8 13 -6
6 2 16 4 23 4 6 0 9 6 6 14 -6 15 -7 16 -17 6z"/>
<path d="M4850 1659 c0 -5 5 -7 10 -4 6 3 10 8 10 11 0 2 -4 4 -10 4 -5 0 -10
-5 -10 -11z"/>
<path d="M3900 1651 c0 -6 4 -13 10 -16 6 -3 7 1 4 9 -7 18 -14 21 -14 7z"/>
<path d="M3931 1637 c-1 -21 21 -18 27 4 3 12 2 12 -6 0 -8 -11 -10 -11 -15 0
-4 10 -6 8 -6 -4z"/>
<path d="M4710 1621 c0 -7 -4 -10 -8 -7 -15 9 -31 -9 -22 -24 8 -12 10 -11 10
5 0 15 3 17 9 7 6 -11 10 -10 15 4 3 9 4 19 1 22 -3 3 -5 0 -5 -7z"/>
<path d="M3991 1566 c-9 -11 -7 -13 10 -12 12 0 24 -5 27 -13 3 -9 0 -11 -8
-6 -8 5 -11 4 -6 -3 4 -6 13 -8 22 -5 13 5 11 9 -7 29 -26 28 -24 27 -38 10z"/>
<path d="M4400 1493 c0 -1 8 -7 18 -12 13 -7 19 -6 19 2 0 7 -9 13 -19 13 -10
0 -18 -1 -18 -3z"/>
<path d="M4450 1479 c0 -5 5 -7 10 -4 6 3 10 8 10 11 0 2 -4 4 -10 4 -5 0 -10
-5 -10 -11z"/>
<path d="M4320 1431 c0 -6 4 -13 10 -16 6 -3 7 1 4 9 -7 18 -14 21 -14 7z"/>
</g>
</svg>
