<?xml version="1.0" standalone="no"?>
<!DOCTYPE svg PUBLIC "-//W3C//DTD SVG 20010904//EN"
 "http://www.w3.org/TR/2001/REC-SVG-20010904/DTD/svg10.dtd">
<svg version="1.0" xmlns="http://www.w3.org/2000/svg"
 width="1024.000000pt" height="1024.000000pt" viewBox="0 0 1024.000000 1024.000000"
 preserveAspectRatio="xMidYMid meet">
<metadata>
Created by potrace 1.14, written by Peter Selinger 2001-2017
</metadata>
<g transform="translate(0.000000,1024.000000) scale(0.100000,-0.100000)"
fill="#000000" stroke="none">
<path d="M2861 9371 c-15 -21 -21 -45 -21 -82 0 -54 1 -60 43 -194 14 -44 31
-107 38 -140 15 -70 41 -113 75 -121 32 -8 31 -20 -3 -29 -34 -8 -76 -37 -131
-89 -60 -57 -104 -118 -151 -211 -54 -109 -82 -193 -110 -330 -5 -22 -15 -74
-24 -115 -45 -218 -12 -622 67 -838 36 -98 132 -262 226 -386 25 -32 54 -71
64 -85 35 -47 110 -123 161 -160 66 -50 112 -64 194 -59 55 3 78 10 125 38
163 98 255 211 326 395 4 11 12 31 18 45 6 14 16 43 23 65 6 22 15 51 20 65
17 53 48 232 69 400 13 110 13 290 -1 382 -6 40 -15 105 -21 143 -49 326 -234
599 -486 715 -82 39 -130 49 -219 50 l-72 0 24 35 c29 43 40 122 31 219 -9 92
-22 136 -76 249 l-32 67 -68 0 c-64 0 -70 -2 -89 -29z"/>
<path d="M1887 9223 c-21 -24 -87 -162 -87 -183 0 -9 -3 -20 -7 -24 -15 -15
-32 -104 -33 -170 0 -112 28 -175 92 -203 51 -23 116 19 136 87 6 19 22 71 37
115 65 192 77 239 71 290 -4 39 -12 56 -36 78 -26 23 -39 27 -94 27 -47 0 -67
-4 -79 -17z"/>
<path d="M1820 8574 c-19 -3 -44 -9 -55 -14 -11 -5 -40 -17 -65 -28 -59 -25
-166 -100 -211 -149 -177 -191 -279 -498 -294 -883 -7 -177 11 -420 40 -555
36 -167 88 -335 117 -377 10 -14 18 -30 18 -35 0 -16 71 -96 135 -153 212
-188 347 -125 637 295 123 179 187 338 218 545 6 41 15 98 20 125 23 123 19
353 -8 555 -16 114 -72 309 -112 390 -94 190 -193 273 -336 283 -38 3 -85 3
-104 1z"/>
<path d="M4194 8463 c-38 -7 -66 -48 -72 -103 -5 -54 4 -96 48 -230 15 -47 33
-111 40 -143 14 -62 53 -107 92 -107 29 0 75 30 84 54 25 78 30 128 19 213
-24 172 -84 304 -145 317 -18 3 -35 5 -39 5 -3 -1 -16 -4 -27 -6z"/>
<path d="M740 8128 c-55 -29 -149 -274 -150 -389 0 -113 57 -209 125 -209 41
0 100 52 110 96 13 57 43 151 85 269 20 55 30 93 30 112 0 30 -25 86 -49 107
-27 24 -116 32 -151 14z"/>
<path d="M4311 7748 c-73 -36 -150 -142 -225 -310 -14 -32 -37 -82 -50 -110
-13 -29 -35 -91 -50 -138 -15 -47 -31 -94 -36 -105 -22 -49 -97 -306 -122
-420 -5 -22 -13 -58 -18 -80 -5 -22 -14 -60 -20 -85 -13 -54 -24 -111 -39
-204 -6 -37 -13 -72 -16 -76 -3 -5 -5 -53 -6 -108 -1 -153 42 -261 180 -447
58 -77 345 -370 393 -401 48 -31 113 -32 165 -3 72 39 179 159 229 254 95 183
122 235 136 270 61 153 88 224 88 232 0 4 12 44 26 88 32 98 43 138 53 190 5
22 16 76 26 120 22 105 32 254 24 368 -7 89 -39 246 -61 297 -6 14 -14 34 -18
45 -37 101 -116 251 -178 338 -72 100 -203 226 -267 256 -48 23 -139 51 -160
50 -5 0 -30 -10 -54 -21z"/>
<path d="M660 7447 c-111 -52 -199 -127 -289 -247 -106 -141 -192 -321 -241
-500 -7 -25 -17 -56 -23 -70 -7 -15 -13 -114 -15 -250 -3 -180 0 -239 12 -293
9 -38 16 -80 16 -94 0 -15 4 -40 9 -57 13 -43 28 -102 42 -166 21 -96 92 -323
121 -389 11 -25 24 -55 28 -66 117 -288 259 -424 378 -361 36 20 272 260 357
365 104 128 153 218 196 355 18 59 3 309 -30 506 -5 30 -14 84 -20 120 -6 36
-15 86 -21 113 -5 26 -14 66 -19 90 -5 23 -16 78 -25 122 -8 44 -20 96 -25
115 -5 19 -18 69 -29 110 -35 131 -112 352 -150 430 -21 42 -59 98 -87 128
-50 51 -53 52 -106 51 -30 0 -65 -6 -79 -12z"/>
<path d="M7099 6933 c-110 -104 -199 -281 -199 -392 0 -40 26 -97 52 -115 27
-19 77 -21 113 -4 15 6 40 38 62 77 20 36 67 111 105 165 38 55 75 122 83 150
14 47 14 52 -6 92 -17 37 -29 46 -75 64 -30 11 -59 20 -65 20 -6 0 -37 -26
-70 -57z"/>
<path d="M8109 6877 c-69 -46 -67 -104 14 -362 14 -44 28 -97 31 -117 4 -24
17 -46 37 -62 54 -46 115 -28 144 41 23 55 20 211 -6 298 -30 99 -74 190 -100
209 -33 23 -80 20 -120 -7z"/>
<path d="M2555 6499 c-121 -16 -203 -55 -342 -166 -97 -77 -198 -184 -372
-398 -181 -222 -234 -276 -417 -430 -65 -54 -135 -123 -174 -170 -69 -84 -125
-151 -130 -155 -14 -11 -101 -141 -147 -215 -44 -73 -114 -210 -133 -260 -5
-11 -15 -37 -25 -58 -9 -21 -28 -81 -42 -135 -22 -81 -26 -118 -26 -227 0
-114 3 -139 26 -203 14 -40 40 -95 57 -123 70 -109 231 -222 375 -264 33 -9
69 -20 80 -25 87 -33 166 -39 252 -19 60 14 227 66 271 85 17 8 47 20 65 28
17 8 57 25 87 38 49 22 237 87 315 108 103 29 254 35 340 15 79 -19 222 -92
359 -184 165 -110 227 -147 311 -186 92 -43 116 -50 239 -72 77 -14 103 -14
179 -4 110 16 132 23 227 69 50 25 96 58 141 102 82 82 120 137 164 242 19 46
39 91 45 100 5 10 10 27 10 37 0 11 4 30 9 43 47 121 77 399 60 565 -18 172
-66 249 -354 568 -138 152 -359 423 -425 521 -15 21 -151 212 -247 344 -79
109 -179 224 -236 269 -59 47 -170 111 -193 111 -8 0 -22 4 -32 9 -29 15 -94
30 -158 35 -33 3 -67 7 -75 9 -8 3 -45 0 -84 -4z"/>
<path d="M6990 6330 c-8 -5 -25 -10 -37 -10 -34 0 -151 -57 -223 -108 -184
-131 -302 -329 -360 -602 -25 -122 -29 -150 -34 -270 -20 -423 97 -905 267
-1107 49 -57 171 -150 239 -181 50 -23 152 -30 186 -13 9 5 30 15 47 22 45 21
150 124 230 224 181 228 282 421 317 605 46 242 54 533 19 690 -6 25 -15 72
-21 105 -25 137 -103 328 -181 441 -58 85 -198 194 -249 194 -11 0 -22 5 -25
10 -8 13 -155 13 -175 0z"/>
<path d="M8305 6211 c-138 -24 -286 -194 -363 -416 -20 -60 -61 -222 -81 -325
-37 -189 -42 -492 -12 -670 5 -30 14 -82 19 -115 13 -78 40 -181 59 -225 43
-102 132 -259 180 -320 6 -8 36 -48 67 -88 93 -124 186 -215 260 -252 44 -23
137 -18 193 11 75 37 213 181 251 261 18 37 32 74 32 82 0 8 4 17 9 20 5 3 11
16 14 28 2 13 12 50 22 83 66 228 101 558 90 835 -5 136 -12 198 -36 330 -19
102 -60 240 -95 318 -13 29 -24 55 -24 58 0 3 -13 25 -30 49 -16 24 -30 48
-30 53 0 16 -122 143 -178 184 -103 77 -244 117 -347 99z"/>
<path d="M5705 5893 c-29 -8 -43 -21 -71 -69 -51 -87 -94 -237 -94 -328 0 -73
13 -118 47 -163 21 -29 30 -33 69 -33 61 0 97 26 113 82 7 24 35 113 63 197
44 134 50 162 45 210 -8 71 -34 98 -102 105 -27 2 -59 2 -70 -1z"/>
<path d="M9283 5590 c-17 -10 -37 -29 -44 -41 -17 -33 -5 -151 26 -244 34
-101 55 -181 55 -205 0 -10 14 -32 31 -49 33 -33 80 -41 110 -18 83 63 75 297
-18 495 -37 80 -95 102 -160 62z"/>
<path d="M5780 5261 c-152 -30 -356 -232 -474 -468 -27 -54 -53 -108 -57 -120
-5 -13 -13 -33 -18 -45 -20 -51 -31 -86 -46 -153 -9 -38 -20 -89 -25 -112 -16
-67 -12 -298 6 -388 9 -44 22 -111 30 -150 36 -182 149 -495 243 -675 80 -155
86 -165 119 -210 52 -70 115 -135 162 -166 35 -24 53 -29 100 -28 74 1 89 12
270 193 201 202 324 371 367 501 35 109 37 135 19 257 -19 130 -31 197 -45
258 -5 22 -19 85 -31 140 -12 55 -25 111 -30 125 -4 14 -13 45 -20 70 -7 25
-16 56 -20 70 -4 14 -13 45 -20 70 -20 72 -81 253 -91 272 -5 10 -9 24 -9 31
0 8 -6 27 -14 43 -8 16 -21 45 -29 64 -8 19 -26 61 -41 93 -14 32 -26 61 -26
66 0 21 -121 190 -159 223 -53 45 -86 53 -161 39z"/>
<path d="M9410 4934 c-34 -30 -95 -117 -124 -179 -20 -43 -102 -277 -118 -335
-5 -19 -13 -51 -18 -70 -4 -19 -15 -60 -23 -90 -18 -67 -64 -278 -87 -405 -69
-377 -86 -622 -48 -725 54 -149 185 -324 402 -538 155 -153 178 -166 252 -142
100 33 178 147 308 453 25 59 96 286 110 352 7 33 23 98 38 160 5 22 13 63 17
90 5 28 14 74 20 103 16 66 11 485 -6 522 -6 14 -16 45 -23 70 -14 51 -28 96
-40 125 -5 11 -14 36 -22 55 -15 39 -83 175 -117 234 -59 102 -182 233 -271
288 -80 49 -105 58 -165 58 -43 0 -59 -5 -85 -26z"/>
<path d="M7590 4000 c-14 -4 -40 -8 -58 -9 -50 -2 -178 -49 -252 -93 -72 -43
-200 -160 -271 -248 -55 -68 -152 -199 -285 -384 -112 -156 -142 -197 -204
-276 -105 -134 -203 -244 -387 -436 -95 -99 -191 -205 -213 -235 -44 -58 -100
-167 -100 -193 0 -9 -4 -24 -9 -34 -31 -59 -38 -371 -12 -547 27 -183 77 -322
163 -451 58 -88 132 -155 218 -197 64 -31 68 -32 226 -35 196 -4 244 6 394 82
87 43 392 242 410 266 7 9 179 120 186 120 3 0 18 8 32 18 15 10 54 29 87 43
53 21 76 24 190 24 122 0 202 -13 230 -37 5 -4 16 -8 24 -8 20 0 195 -90 316
-163 230 -138 341 -183 451 -181 51 0 130 19 149 36 5 4 17 8 27 8 10 0 26 4
36 10 9 5 46 19 82 30 36 12 108 42 160 67 203 97 348 223 419 360 43 86 54
134 53 248 0 96 -4 122 -31 204 -99 299 -354 602 -805 957 -140 109 -245 222
-351 375 -328 473 -464 607 -686 678 -40 12 -151 13 -189 1z"/>
</g>
</svg>
